<?xml version="1.0" standalone="no"?>
<!DOCTYPE svg PUBLIC "-//W3C//DTD SVG 1.1//EN" "http://www.w3.org/Graphics/SVG/1.1/DTD/svg11.dtd" >
<svg xmlns="http://www.w3.org/2000/svg">
<metadata></metadata>
<defs>
<font id="telefon_web_boldregular" horiz-adv-x="732" >
<font-face units-per-em="2048" ascent="1588" descent="-460" />
<missing-glyph horiz-adv-x="484" />
<glyph horiz-adv-x="0" />
<glyph horiz-adv-x="0" />
<glyph unicode=" "  horiz-adv-x="484" />
<glyph unicode="&#x09;" horiz-adv-x="484" />
<glyph unicode="&#xa0;" horiz-adv-x="484" />
<glyph unicode="!" horiz-adv-x="564" d="M124 1380q0 14 2 17t16 3h282q14 0 16 -3t2 -17l-58 -956q0 -14 -4 -17t-18 -3h-158q-14 0 -18 3t-4 17zM284 -22q-62 0 -108 43t-46 113q0 64 44 110t110 46t110 -46t44 -108q0 -64 -45 -111t-109 -47z" />
<glyph unicode="&#x22;" horiz-adv-x="800" d="M320 1400q14 0 17 -4t1 -16l-42 -456q-2 -12 -5 -16t-15 -4h-112q-12 0 -15 4t-5 16l-42 456q-2 12 1 16t17 4h200zM680 1400q14 0 17 -4t1 -16l-42 -456q-2 -12 -5 -16t-15 -4h-112q-12 0 -15 4t-5 16l-42 456q-2 12 1 16t17 4h200z" />
<glyph unicode="#" horiz-adv-x="1036" d="M562 338h-190l-56 -318q-4 -12 -7 -16t-17 -4h-136q-14 0 -16 4t0 16l56 318h-128q-14 0 -17 4t-3 16v126q0 12 3 16t17 4h156l44 256h-142q-14 0 -17 4t-3 16v126q0 12 3 16t17 4h172l56 314q4 12 7 16t17 4h136q14 0 17 -4t-1 -16l-56 -314h192l54 314q4 12 7 16t17 4 h136q14 0 17 -4t-1 -16l-54 -314h128q14 0 17 -4t3 -16v-126q0 -12 -3 -16t-17 -4h-158l-44 -256h138q14 0 17 -4t3 -16v-126q0 -12 -3 -16t-17 -4h-168l-56 -318q-4 -12 -7 -16t-17 -4h-136q-14 0 -16 4t0 16zM400 504h192l44 256h-192z" />
<glyph unicode="$" horiz-adv-x="1080" d="M476 10q-138 14 -244 78t-164 154q-6 8 -6 14t10 14l194 146q8 8 14 8q8 0 16 -12q48 -76 105 -116t137 -40q70 0 120 39t50 99q0 62 -43 103t-108 75t-141 69t-141 84t-108 119t-43 176q0 68 25 130t72 110t112 82t143 46v152q0 12 3 16t17 4h156q14 0 17 -4t3 -16v-156 q98 -16 182 -63t132 -119q6 -10 6 -14t-10 -14l-190 -140q-10 -10 -14 -10q-8 0 -12 12q-28 46 -72 78t-118 32q-68 0 -109 -36t-41 -92t44 -93t110 -69t142 -66t142 -84t110 -123t44 -183q0 -146 -88 -250t-258 -134v-156q0 -12 -3 -16t-17 -4h-156q-14 0 -17 4t-3 16v150z " />
<glyph unicode="%" horiz-adv-x="1816" d="M618 1074q0 35 -11.5 66.5t-32.5 55t-51 37t-67 13.5q-38 0 -69 -13.5t-52.5 -37t-33 -55t-11.5 -66.5t11.5 -66.5t33 -55t52.5 -37t69 -13.5q37 0 67 13.5t51 37t32.5 55t11.5 66.5zM106 1074q0 69 24.5 131t70 109t110.5 74.5t145 27.5q79 0 143 -27.5t109 -74.5 t69.5 -109t24.5 -131t-24.5 -131t-69.5 -109t-109 -74.5t-143 -27.5q-80 0 -145 27.5t-110.5 74.5t-70 109t-24.5 131zM564 20q-9 -14 -14.5 -17t-19.5 -3h-158q-16 0 -16 4q0 5 8 16l892 1360q9 14 14.5 17t19.5 3h158q16 0 16 -4q0 -5 -8 -16zM1526 326q0 35 -11.5 66.5 t-32.5 55t-51 37t-67 13.5q-38 0 -69 -13.5t-52.5 -37t-33 -55t-11.5 -66.5t11.5 -66.5t33 -55t52.5 -37t69 -13.5q37 0 67 13.5t51 37t32.5 55t11.5 66.5zM1014 326q0 69 24.5 131t69.5 109t109.5 74.5t144.5 27.5q79 0 143.5 -27.5t110 -74.5t70 -109t24.5 -131 t-24.5 -131t-70 -109t-110 -74.5t-143.5 -27.5q-80 0 -144.5 27.5t-109.5 74.5t-69.5 109t-24.5 131z" />
<glyph unicode="&#x26;" horiz-adv-x="1270" d="M482 624q-6 6 -12 6q-2 0 -10 -4q-54 -42 -89 -93t-35 -121q0 -56 20 -95t51 -64t68 -36t71 -11q62 0 105 15t83 57q6 6 6 12t-6 14zM438 1112q0 -48 33 -93t57 -79q4 -2 7 -4t7 -2t6 2t6 4q62 48 87 84t25 88q0 50 -31 81t-83 31t-83 -31t-31 -81zM1056 296 q-6 -10 -6 -14t8 -16l182 -240q2 -2 4 -6q4 -8 4 -12q0 -8 -18 -8h-232q-14 0 -26 14l-68 92q-4 6 -6 6q-4 0 -10 -6q-62 -66 -154 -98t-196 -32q-88 0 -171 26t-147 78t-103 131t-39 185q0 80 20 141t54 109t79 87t97 75q8 4 8 12q0 6 -4 10q-46 54 -87 131t-41 157 q0 68 28 125t75 97t109 62t132 22q74 0 137 -21t109 -61t73 -96t27 -128q0 -62 -17 -110t-46 -88t-67 -74t-82 -68q-8 -4 -8 -14q0 -8 6 -16l198 -252q6 -8 12 -8q8 0 10 8q16 36 23 83t11 87q0 16 16 16h200q18 0 18 -16q-2 -40 -13 -90t-27 -102t-35 -99t-37 -79z" />
<glyph unicode="'" horiz-adv-x="440" d="M320 1400q14 0 17 -4t1 -16l-42 -456q-2 -12 -5 -16t-15 -4h-112q-12 0 -15 4t-5 16l-42 456q-2 12 1 16t17 4h200z" />
<glyph unicode="(" horiz-adv-x="506" d="M266 -274q-38 84 -73 184t-62 211t-43 232t-16 245q0 126 16 244t43 227t62 207t73 180q6 14 14 14q6 0 10 -2l156 -70q10 -4 10 -12q0 -6 -2 -10q-34 -72 -65 -159t-56 -185t-40 -208t-15 -226q0 -118 15 -230t40 -213t56 -190t65 -161q2 -4 2 -10q0 -8 -10 -12 l-156 -68q-4 -2 -10 -2q-8 0 -14 14z" />
<glyph unicode=")" horiz-adv-x="506" d="M240 -274q-8 -14 -14 -14t-10 2q-16 6 -43 17t-54 23t-47 23t-20 17t2 10q32 72 64 161t56 190t39 213t15 230q0 116 -15 226t-39 208t-56 185t-64 159q-2 4 -2 10t23 19t52 26t56 23t33 14q4 2 10 2t14 -14q38 -82 73 -180t62 -207t43 -227t16 -244q0 -124 -16 -245 t-43 -232t-62 -211t-73 -184z" />
<glyph unicode="*" horiz-adv-x="656" d="M264 846q-14 0 -17 4t-3 16l18 148l-6 4l-120 -90q-10 -6 -14 -6q-6 0 -14 14l-64 110q-4 12 -4 14t12 12l140 56v12l-140 58q-12 6 -12 12q0 4 6 14l64 110q6 14 14 14l12 -4l120 -96l6 2l-18 152q0 12 2 16t16 4h128q16 0 19 -3t3 -17l-20 -150l8 -4l122 92q8 6 14 6 t12 -12l62 -110q6 -10 6 -16t-12 -12l-140 -58v-10l140 -56q12 -10 12 -14q0 -6 -6 -14l-62 -108q-8 -14 -14 -14t-14 6l-120 90l-6 -4l18 -148q0 -12 -3 -16t-17 -4h-128v0z" />
<glyph unicode="+" horiz-adv-x="1040" d="M614 586q0 -14 3 -17t17 -3h316q14 0 17 -4t3 -16v-134q0 -12 -3 -16t-17 -4h-316q-14 0 -17 -3t-3 -17v-352q0 -12 -3 -16t-17 -4h-146q-14 0 -17 4t-3 16v352q0 14 -3 17t-17 3h-318q-14 0 -17 4t-3 16v134q0 12 3 16t17 4h318q14 0 17 3t3 17v350q0 12 3 16t17 4h146 q14 0 17 -4t3 -16v-350z" />
<glyph unicode="," horiz-adv-x="500" d="M110 192q2 12 5 16t17 4h212q26 0 18 -20l-130 -436q-4 -12 -8 -16t-18 -4h-104q-12 0 -14 4t-2 16z" />
<glyph unicode="-" horiz-adv-x="600" d="M92 618q0 14 4 17t16 3h376q14 0 17 -3t3 -17v-156q0 -14 -3 -17t-17 -3h-376q-14 0 -17 3t-3 17v156z" />
<glyph unicode="." horiz-adv-x="500" d="M250 -22q-64 0 -110 43t-46 113q0 64 46 110t110 46q66 0 111 -46t45 -110q0 -70 -45 -113t-111 -43z" />
<glyph unicode="/" horiz-adv-x="1108" d="M288 -80q-8 -14 -13 -16t-15 2l-140 68q-12 6 -12 13t4 15l728 1552q8 14 13 16t15 -2l140 -68q12 -6 12 -13t-4 -15z" />
<glyph unicode="0" horiz-adv-x="1024" d="M966 636q0 -314 -118 -486t-332 -172q-212 0 -331 173t-119 485t119 485t331 173q214 0 332 -172t118 -486zM316 636q0 -90 11 -164t35 -128t62 -83t92 -29t92 29t61 83t34 128t11 164t-11 164t-34 128t-61 83t-92 29t-92 -29t-62 -83t-35 -128t-11 -164z" />
<glyph unicode="1" horiz-adv-x="574" d="M458 20q0 -14 -3 -17t-17 -3h-216q-14 0 -17 3t-3 17v926q0 12 -8 12q-6 0 -12 -2l-120 -42q-6 -2 -12 -2q-8 0 -8 18v186q0 16 4 21t16 9l376 140q6 2 12 2q8 0 8 -18v-1250z" />
<glyph unicode="2" horiz-adv-x="1008" d="M896 218q14 0 17 -4t3 -16v-178q0 -14 -3 -17t-17 -3h-848q-20 0 -20 14q0 8 5 14t9 10l454 506q84 92 121 176t37 160q0 78 -41 135t-131 57q-84 0 -132 -55t-48 -155q0 -20 -20 -20h-196q-16 0 -20 20q0 80 25 158t77 139t132 98t190 37q102 0 181 -30t132 -84t80 -127 t27 -157q0 -68 -15 -131t-48 -126t-87 -131t-132 -148l-96 -98q-26 -24 -26 -34t14 -10h376z" />
<glyph unicode="3" horiz-adv-x="1000" d="M86 946q2 74 30 138t78 110t121 73t161 27q92 0 166 -25t126 -70t80 -106t28 -133q0 -84 -37 -146t-91 -102q-8 -6 -8 -12q0 -4 8 -8q82 -48 132 -129t50 -187q0 -84 -29 -157t-85 -126t-137 -84t-185 -31q-102 0 -180 27t-133 77t-86 118t-37 150q0 10 3 14t15 4h206 q10 0 13 -4t5 -12q10 -68 59 -110t125 -42q86 0 138 50t52 134q0 78 -51 131t-145 53h-86q-14 0 -16 3t-2 15v156q0 12 2 15t16 3h86q72 0 114 49t42 121q0 70 -45 112t-121 42q-70 0 -112 -39t-46 -99q-2 -14 -5 -17t-15 -3h-184q-14 0 -17 3t-3 17z" />
<glyph unicode="4" horiz-adv-x="1040" d="M856 18q0 -12 -2 -15t-16 -3h-216q-12 0 -15 3t-3 15v130q0 12 -3 15t-15 3h-568q-16 0 -16 16q0 4 2 10t6 12q200 270 398 540t398 540q8 10 18 23t20 13q12 0 12 -12v-902q0 -12 3 -15t17 -3h90q12 0 15 -3t3 -17v-184q0 -12 -3 -15t-15 -3h-92q-12 0 -15 -3t-3 -15 v-130zM622 720q0 10 -4 10q-26 -30 -56 -72t-62 -88l-64 -92t-58 -84l-6 -12q0 -6 12 -6h220q12 0 15 3t3 15v326z" />
<glyph unicode="5" horiz-adv-x="938" d="M196 296q28 -38 77 -66t117 -28q100 0 159 54t59 144q0 94 -55 151t-171 57q-52 0 -88 -10t-62 -23t-42 -23t-24 -10q-16 0 -16 14l48 696q2 14 6 17t16 3h576q14 0 17 -3t3 -17v-178q0 -12 -3 -15t-17 -3h-368q-14 0 -17 -3t-5 -15l-14 -236q0 -14 3 -17t17 -3q8 0 20 2 t28 2q98 0 173 -30t127 -83t79 -126t27 -157q0 -86 -31 -161t-90 -131t-142 -88t-185 -32q-136 0 -225 42t-145 100q-8 8 -7 11t7 11l120 156q8 8 14 8t14 -10z" />
<glyph unicode="6" horiz-adv-x="1000" d="M550 814q-4 -4 -4 -12q0 -6 16 -6q86 0 160 -31t126 -84t82 -125t30 -156q0 -88 -31 -164t-90 -134t-141 -91t-184 -33t-184 33t-141 91t-91 134t-32 164q0 80 20 143t68 135t127 164t197 234l148 178q6 6 14 12t20 6h248q6 0 6 -4t-4 -8zM320 400q0 -84 52 -143t142 -59 q88 0 142 59t54 143q0 82 -52 141t-144 59q-90 0 -142 -59t-52 -141z" />
<glyph unicode="7" horiz-adv-x="842" d="M80 0q-12 0 -12 8t2 12l462 1000q4 12 4 14q0 14 -14 14h-432q-12 0 -15 3t-3 15v186q0 14 3 17t15 3h774q12 0 12 -8q0 -4 -4 -12l-530 -1234q-6 -12 -10 -15t-18 -3h-234z" />
<glyph unicode="8" horiz-adv-x="1030" d="M324 384q0 -36 14 -70t40 -59t61 -41t75 -16t75 16t60 41t40 59t15 70q0 78 -50 136t-140 58t-140 -58t-50 -136zM370 950q0 -66 39 -111t105 -45q68 0 109 45t41 111q0 58 -41 104t-107 46t-106 -46t-40 -104zM260 688q8 6 8 10t-8 12q-56 42 -92 104t-36 144 q0 72 26 133t76 107t121 72t161 26t161 -26t120 -72t76 -107t27 -133q0 -84 -38 -145t-92 -103q-8 -8 -8 -12t8 -10q82 -50 135 -128t53 -184q0 -84 -30 -156t-87 -126t-139 -85t-188 -31t-188 31t-138 85t-86 126t-30 156q0 106 52 184t136 128z" />
<glyph unicode="9" horiz-adv-x="1000" d="M690 880q0 80 -50 138t-134 58q-86 0 -138 -58t-52 -138q0 -78 50 -135t140 -57q86 0 135 57t49 135zM458 464q6 6 6 10q0 10 -16 10q-84 6 -154 37t-120 82t-78 121t-28 156t31 162t88 132t138 88t181 32q98 0 179 -32t138 -88t88 -132t31 -162q0 -52 -10 -98t-34 -95 t-63 -105t-95 -128l-338 -434q-10 -12 -17 -16t-19 -4h-248q-12 0 -15 3t7 17z" />
<glyph unicode=":" horiz-adv-x="500" d="M258 -22q-64 0 -110 43t-46 113q0 64 46 110t110 46q66 0 111 -46t45 -110q0 -70 -45 -113t-111 -43zM258 592q-64 0 -110 43t-46 113q0 64 46 110t110 46q66 0 111 -46t45 -110q0 -70 -45 -113t-111 -43z" />
<glyph unicode=";" horiz-adv-x="500" d="M258 592q-64 0 -110 43t-46 113q0 64 46 110t110 46q66 0 111 -46t45 -110q0 -70 -45 -113t-111 -43zM140 192q2 12 5 16t17 4h212q26 0 18 -20l-130 -436q-4 -12 -8 -16t-18 -4h-104q-12 0 -14 4t-2 16z" />
<glyph unicode="&#x3c;" horiz-adv-x="1040" d="M312 480q0 -2 0.5 -4.5t3.5 -5.5l634 -254q12 -5 16 -9.5t4 -18.5v-152q0 -16 -10 -16q-2 0 -10 4l-860 352q-14 6 -17 16t-3 28v120q0 18 3 25t17 13l860 350q8 4 10 4q10 0 10 -16v-152q0 -14 -4 -18.5t-16 -9.5l-634 -246q-3 -3 -3.5 -5.5t-0.5 -4.5z" />
<glyph unicode="=" horiz-adv-x="1040" d="M950 731q14 0 17 -4t3 -16v-134q0 -12 -3 -16t-17 -4h-860q-14 0 -17 4t-3 16v134q0 12 3 16t17 4h860zM950 400q14 0 17 -4t3 -16v-134q0 -12 -3 -16t-17 -4h-860q-14 0 -17 4t-3 16v134q0 12 3 16t17 4h860z" />
<glyph unicode="&#x3e;" horiz-adv-x="1040" d="M728 480q0 2 -0.5 4.5t-3.5 5.5l-634 246q-12 5 -16 9.5t-4 18.5v152q0 16 10 16q2 0 10 -4l860 -350q14 -6 17 -13t3 -25v-120q0 -18 -3 -28t-17 -16l-860 -352q-8 -4 -10 -4q-10 0 -10 16v152q0 14 4 18.5t16 9.5l634 254q3 3 3.5 5.5t0.5 4.5z" />
<glyph unicode="?" horiz-adv-x="866" d="M304 410q-14 0 -17 3t-5 17q-6 30 -6 58q0 98 42 172t93 136t93 118t42 118q0 64 -34 100t-104 36q-68 0 -106 -47t-38 -117q0 -12 -3 -16t-17 -4h-212q-12 0 -16 3t-4 15v20q0 86 30 160t84 128t131 84t173 30q76 0 151 -22t134 -65t95 -109t36 -152q0 -78 -25 -138 t-62 -107t-81 -86t-81 -77t-62 -79t-25 -91v-68q0 -14 -3 -17t-17 -3h-186zM414 -22q-62 0 -108 43t-46 113q0 64 44 110t110 46t110 -46t44 -108q0 -64 -45 -111t-109 -47z" />
<glyph unicode="@" horiz-adv-x="1516" d="M904 440q10 84 -28 137t-110 53q-48 0 -82 -18t-57 -48t-34 -69t-11 -81q0 -32 10 -62t28 -53t44 -37t58 -14q46 0 78 16t53 42t33 61t18 73zM924 152q-2 6 -8 6q-2 0 -8 -6q-42 -46 -96 -77t-142 -31q-62 0 -116 27t-94 74t-63 111t-23 140q0 90 23 169t69 138t113 94 t155 35q70 0 124 -32t76 -92q2 -6 8 -6t8 6l20 88q4 14 8 17t18 3h146q14 0 17 -3t-1 -17l-76 -422q-4 -22 -9 -52t-5 -54t15 -42t39 -18q30 0 61 22t55 64t39 102t15 134q0 118 -37 206t-103 146t-156 87t-198 29q-118 0 -217 -43t-171 -119t-113 -178t-41 -220 q0 -136 41 -243t116 -181t181 -112t236 -38q118 0 227 29t171 91q4 4 10 4q8 0 8 -14v-174q0 -12 -16 -20q-72 -38 -174 -62t-222 -24q-168 0 -308 51t-241 147t-157 234t-56 312q0 156 58 290t158 231t233 152t283 55q138 0 260 -43t213 -122t143 -192t52 -251 q0 -102 -29 -195t-81 -164t-126 -112t-164 -41q-52 0 -92 29t-56 77z" />
<glyph unicode="A" horiz-adv-x="1212" d="M614 818q-4 6 -12 6q-10 0 -12 -6l-130 -362q-2 -4 -2 -10q0 -8 14 -8h262q16 0 16 6t-2 10zM584 1422q6 12 22 12q14 0 20 -12l584 -1402q2 -4 2 -12t-14 -8h-278q-12 0 -17 4t-9 16l-68 176q-4 14 -9 17t-15 3h-398q-18 0 -26 -20l-66 -176q-8 -20 -24 -20h-272 q-16 0 -16 8q0 4 4 12z" />
<glyph unicode="B" horiz-adv-x="1140" d="M404 860q0 -14 3 -17t17 -3h98q82 0 134 34t52 122q0 82 -50 119t-136 37h-98q-14 0 -17 -3t-3 -17v-272zM584 248q90 0 144 44t54 132q0 102 -56 139t-172 37h-130q-14 0 -17 -3t-3 -17v-312q0 -14 3 -17t17 -3h160zM118 1380q0 14 3 17t17 3h376q60 0 107 -3t85 -10 t69 -18t59 -27q84 -46 124 -124t40 -176q0 -100 -43 -164t-101 -98q-8 -6 -8 -12t8 -10q40 -16 81 -46t74 -74t53 -103t20 -133q0 -110 -38 -187t-106 -125t-165 -69t-213 -21h-422q-14 0 -17 3t-3 17v1360z" />
<glyph unicode="C" horiz-adv-x="1250" d="M790 -26q-168 0 -302 57t-228 156t-145 231t-51 282q0 146 50 278t144 231t229 158t303 59q96 0 188 -23t164 -59q16 -8 16 -20v-302q0 -14 -8 -14q-6 0 -10 4q-58 60 -146 92t-188 32q-108 0 -189 -35t-136 -95t-83 -139t-28 -167t28 -167t83 -139t136 -95t187 -35 q100 0 189 32t147 92q4 4 10 4q8 0 8 -14v-302q0 -12 -16 -20q-72 -36 -164 -59t-188 -23z" />
<glyph unicode="D" horiz-adv-x="1274" d="M528 1400q176 0 304 -54t212 -149t125 -223t41 -274q0 -160 -47 -289t-140 -220t-233 -141t-324 -50h-328q-14 0 -17 3t-3 17v1360q0 14 3 17t17 3h390zM904 700q0 96 -22 177t-68 138t-118 89t-172 32h-94q-14 0 -17 -3t-3 -17v-832q0 -14 3 -17t17 -3h94q98 0 169 32 t118 89t70 138t23 177z" />
<glyph unicode="E" horiz-adv-x="1054" d="M118 1380q0 14 3 17t17 3h816q14 0 17 -3t3 -17v-224q0 -14 -3 -17t-17 -3h-524q-14 0 -17 -3t-3 -17v-326q0 -14 3 -17t17 -3h504q14 0 17 -3t3 -17v-220q0 -14 -3 -17t-17 -3h-504q-14 0 -17 -3t-3 -17v-206q0 -14 3 -17t17 -3h534q14 0 17 -3t3 -17v-224q0 -14 -3 -17 t-17 -3h-826q-14 0 -17 3t-3 17v1360z" />
<glyph unicode="F" horiz-adv-x="1000" d="M118 1380q0 14 3 17t17 3h780q14 0 17 -3t3 -17v-224q0 -14 -3 -17t-17 -3h-488q-14 0 -17 -3t-3 -17v-366q0 -14 3 -17t17 -3h470q14 0 17 -3t3 -17v-220q0 -14 -3 -17t-17 -3h-470q-14 0 -17 -3t-3 -17v-430q0 -14 -3 -17t-17 -3h-252q-14 0 -17 3t-3 17v1360z" />
<glyph unicode="G" horiz-adv-x="1326" d="M810 1152q-112 0 -195 -37t-137 -100t-81 -146t-27 -175q0 -94 28 -178t82 -147t135 -99t187 -36q42 0 86 5t66 15q20 8 20 26v238q0 14 -3 17t-17 3h-208q-14 0 -17 3t-3 17v210q0 14 3 17t17 3h474q14 0 17 -5t3 -15v-680q0 -12 -12 -20q-34 -24 -83 -41t-105 -29 t-115 -18t-113 -6q-176 0 -315 57t-235 155t-147 229t-51 279q0 150 51 283t147 233t231 158t303 58q102 0 194 -21t166 -61q16 -8 16 -20v-282q0 -12 -10 -12q-4 0 -8 2q-66 56 -153 88t-191 32z" />
<glyph unicode="H" horiz-adv-x="1240" d="M1122 20q0 -14 -3 -17t-17 -3h-252q-14 0 -17 3t-3 17v464q0 14 -3 17t-17 3h-380q-14 0 -17 -3t-3 -17v-464q0 -14 -3 -17t-17 -3h-252q-14 0 -17 3t-3 17v1360q0 14 3 17t17 3h252q14 0 17 -3t3 -17v-596q0 -14 3 -17t17 -3h380q14 0 17 3t3 17v596q0 14 3 17t17 3h252 q14 0 17 -3t3 -17v-1360z" />
<glyph unicode="I" horiz-adv-x="528" d="M118 1380q0 14 3 17t17 3h252q14 0 17 -3t3 -17v-1360q0 -14 -3 -17t-17 -3h-252q-14 0 -17 3t-3 17v1360z" />
<glyph unicode="J" horiz-adv-x="666" d="M232 -22q-56 0 -102 5t-66 9q-12 4 -16 7t-4 17v214q0 20 20 16q14 -4 39 -8t57 -4q56 0 77 33t21 103v1012q0 12 3 15t15 3h256q12 0 15 -3t3 -15v-1084q0 -162 -82 -241t-236 -79z" />
<glyph unicode="K" horiz-adv-x="1204" d="M406 20q0 -14 -3 -17t-17 -3h-248q-14 0 -17 3t-3 17v1360q0 14 3 17t17 3h248q14 0 17 -3t3 -17v-534q0 -14 12 -14t18 10l364 538q10 12 14 16t18 4h302q16 0 16 -6q0 -2 -8 -14l-434 -620q-4 -4 -4 -10t4 -10l472 -720q10 -14 10 -16q0 -4 -18 -4h-304q-14 0 -17 3 t-15 17l-398 612q-6 8 -16 8q-16 0 -16 -14v-606z" />
<glyph unicode="L" horiz-adv-x="950" d="M118 1380q0 14 3 17t17 3h252q14 0 17 -3t3 -17v-1096q0 -14 3 -17t17 -3h456q14 0 17 -3t3 -17v-224q0 -14 -3 -17t-17 -3h-748q-14 0 -17 3t-3 17v1360z" />
<glyph unicode="M" horiz-adv-x="1536" d="M788 270q-8 -10 -20 -10t-20 10l-322 394q-6 6 -14 6q-16 0 -16 -12v-638q0 -14 -3 -17t-17 -3h-238q-14 0 -17 3t-3 17v1400q0 14 14 14q4 0 8 -1t10 -9l606 -738q8 -8 12 -8q6 0 12 8l606 738q8 8 12 9t8 1q12 0 12 -14v-1400q0 -14 -3 -17t-17 -3h-238q-14 0 -17 3 t-3 17v638q0 12 -16 12q-8 0 -14 -6z" />
<glyph unicode="N" horiz-adv-x="1222" d="M428 724q-6 6 -14 6q-16 0 -16 -12v-698q0 -14 -3 -17t-17 -3h-246q-14 0 -17 3t-3 17v1400q0 14 10 14q4 0 8 -1t12 -9l652 -750q6 -6 14 -6q16 0 16 12v700q0 14 3 17t17 3h246q14 0 17 -3t3 -17v-1400q0 -14 -10 -14t-18 10z" />
<glyph unicode="O" horiz-adv-x="1540" d="M1476 700q0 -148 -55 -280t-150 -231t-224 -157t-277 -58t-277 58t-224 157t-150 231t-55 280t55 280t150 231t224 157t277 58t277 -58t224 -157t150 -231t55 -280zM370 700q0 -90 29 -169t82 -138t126 -94t163 -35t163 35t126 94t82 138t29 169t-29 169t-82 138t-126 94 t-163 35t-163 -35t-126 -94t-82 -138t-29 -169z" />
<glyph unicode="P" horiz-adv-x="1110" d="M430 1136q-14 0 -17 -3t-3 -17v-364q0 -14 3 -17t17 -3h106q108 0 166 49t58 153q0 92 -55 147t-175 55h-100zM430 470q-14 0 -17 -3t-3 -17v-430q0 -14 -3 -17t-17 -3h-252q-14 0 -17 3t-3 17v1360q0 14 3 17t17 3h404q126 0 207 -23t145 -69q82 -58 125 -153t43 -217 q0 -240 -162 -366q-64 -52 -153 -77t-197 -25h-120z" />
<glyph unicode="Q" horiz-adv-x="1564" d="M1476 704q0 -84 -15 -150t-41 -120t-59 -99t-69 -87q-6 -6 -6 -12q0 -8 26 -8l206 8q14 0 17 -3t3 -17v-198q0 -14 -3 -17t-17 -3l-370 12q-30 0 -72 -5t-92 -12t-105 -13t-109 -6q-148 0 -277 58t-224 157t-150 231t-55 280t55 280t150 231t224 157t277 58t277 -57 t224 -156t150 -230t55 -279zM370 700q0 -90 29 -169t82 -138t126 -94t163 -35t163 35t126 94t82 138t29 169t-29 169t-82 138t-126 94t-163 35t-163 -35t-126 -94t-82 -138t-29 -169z" />
<glyph unicode="R" horiz-adv-x="1178" d="M406 20q0 -14 -3 -17t-17 -3h-250q-14 0 -18 3t-4 17v1360q0 14 3 17t17 3h358q126 0 209 -14t159 -58q86 -48 143 -137t57 -221q0 -158 -81 -266t-217 -148q-8 -2 -8 -10q0 -4 4 -8q102 -132 202 -259t202 -259q10 -14 10 -16q0 -4 -18 -4h-310q-14 0 -19 3t-15 17 l-370 494q-10 16 -22 16q-10 0 -11 -5t-1 -15v-490zM426 1148q-14 0 -17 -3t-3 -17v-352q0 -14 3 -17t17 -3h110q108 0 166 45t58 149q0 92 -55 145t-175 53h-104z" />
<glyph unicode="S" horiz-adv-x="1074" d="M286 398q52 -80 110 -121t138 -41q74 0 124 40t50 104t-44 107t-110 79t-144 73t-144 88t-110 124t-44 183q0 82 33 154t92 125t142 83t183 30q64 0 127 -14t120 -39t105 -62t80 -85q6 -10 6 -14q0 -6 -10 -16l-194 -148q-10 -10 -14 -10q-6 0 -14 12q-28 50 -73 83 t-121 33q-70 0 -111 -38t-41 -96t45 -96t112 -72t145 -70t145 -89t112 -130t45 -191q0 -88 -31 -163t-93 -130t-152 -86t-208 -31q-82 0 -156 19t-137 53t-112 78t-83 96q-6 8 -6 16q0 6 10 14l198 152q10 8 16 8t14 -12z" />
<glyph unicode="T" horiz-adv-x="1002" d="M46 1380q0 14 3 17t17 3h870q14 0 17 -3t3 -17v-224q0 -14 -3 -17t-17 -3h-270q-14 0 -17 -3t-3 -17v-1096q0 -14 -3 -17t-17 -3h-252q-14 0 -17 3t-3 17v1096q0 14 -3 17t-17 3h-268q-14 0 -17 3t-3 17v224z" />
<glyph unicode="U" horiz-adv-x="1266" d="M858 1380q0 14 3 17t17 3h252q14 0 17 -3t3 -17v-948q0 -114 -42 -200t-113 -143t-165 -86t-196 -29t-196 29t-165 86t-113 143t-42 200v948q0 14 3 17t17 3h252q14 0 17 -3t3 -17v-872q0 -68 17 -114t47 -75t71 -42t89 -13q98 0 161 54t63 190v872z" />
<glyph unicode="V" horiz-adv-x="1214" d="M596 642q2 -6 12 -6q8 0 12 6l290 738q8 20 24 20h276q12 0 12 -6t-4 -14l-592 -1406q-2 -4 -8 -6t-10 -2q-6 0 -12 2t-8 6l-590 1406q-4 8 -4 14t12 6h278q16 0 24 -20z" />
<glyph unicode="W" horiz-adv-x="1814" d="M920 768q-4 6 -12 6t-10 -6l-300 -794q-2 -4 -9 -6t-11 -2t-10 2t-8 6l-542 1406q-4 8 -4 14t12 6h276q16 0 24 -20l252 -726q2 -6 12 -6q6 0 10 6l286 760q8 20 26 20t26 -20l288 -760q2 -6 10 -6q6 0 10 6l256 726q8 20 24 20h272q12 0 12 -6t-4 -14l-548 -1406 q-2 -4 -8 -6t-10 -2t-11 2t-9 6z" />
<glyph unicode="X" horiz-adv-x="1244" d="M32 1380q-4 8 -4 12q0 8 12 8h308q16 0 26 -20l240 -440q2 -6 10 -6q6 0 10 6l244 440q8 14 12 17t14 3h306q12 0 12 -8q0 -4 -4 -12l-392 -660q-4 -8 -4 -12t4 -12l408 -676q4 -8 4 -12q0 -8 -12 -8h-310q-16 0 -26 20l-260 452q-4 6 -10 6q-8 0 -10 -6l-260 -452 q-8 -14 -12 -17t-14 -3h-308q-12 0 -12 8q0 4 4 12l408 676q4 8 4 12t-4 12z" />
<glyph unicode="Y" horiz-adv-x="1192" d="M450 644l-438 736q-4 8 -4 12q0 8 12 8h292q16 0 26 -20l250 -432q2 -6 10 -6q6 0 10 6l252 432q8 14 12 17t14 3h286q12 0 12 -8q0 -4 -4 -12l-438 -736v-624q0 -14 -3 -17t-17 -3h-252q-14 0 -17 3t-3 17v624z" />
<glyph unicode="Z" horiz-adv-x="1014" d="M464 294q-4 -8 -4 -18q0 -12 12 -12h442q14 0 17 -3t3 -17v-224q0 -14 -3 -17t-17 -3h-874q-14 0 -14 10q0 4 4 12l520 1084q6 12 6 20q0 10 -14 10h-436q-14 0 -17 3t-3 17v224q0 14 3 17t17 3h862q14 0 14 -8q0 -4 -4 -12z" />
<glyph unicode="[" horiz-adv-x="582" d="M98 1446q0 14 3 17t17 3h396q14 0 17 -3t3 -17v-132q0 -14 -3 -17t-17 -3h-184q-14 0 -17 -3t-3 -17v-1366q0 -14 3 -17t17 -3h194q14 0 17 -3t3 -17v-132q0 -14 -3 -17t-17 -3h-406q-14 0 -17 3t-3 17v1710z" />
<glyph unicode="\" horiz-adv-x="1108" d="M112 1472q-4 8 -4 15t12 13l140 68q10 4 15 2t13 -16l728 -1552q4 -8 4 -15t-12 -13l-140 -68q-10 -4 -15 -2t-13 16z" />
<glyph unicode="]" horiz-adv-x="582" d="M484 -264q0 -14 -3 -17t-17 -3h-406q-14 0 -17 3t-3 17v132q0 14 3 17t17 3h194q14 0 17 3t3 17v1330v36q0 14 -3 17t-17 3h-184q-14 0 -17 3t-3 17v132q0 14 3 17t17 3h396q14 0 17 -3t3 -17v-1710z" />
<glyph unicode="^" horiz-adv-x="1040" d="M522 1186q-2 0 -5.5 -0.5t-6.5 -3.5l-206 -448q-5 -12 -9.5 -16t-18.5 -4h-190q-16 0 -16 10q0 2 4 10l306 646q6 14 16 17t28 3h200q18 0 25 -3t13 -17l306 -646q4 -8 4 -10q0 -10 -16 -10h-188q-14 0 -18.5 4t-9.5 16l-206 448q-3 3 -6.5 3.5t-5.5 0.5z" />
<glyph unicode="_" horiz-adv-x="934" d="M0 -126q0 14 4 17t16 3h894q14 0 17 -3t3 -17v-110q0 -14 -3 -17t-17 -3h-894q-14 0 -17 3t-3 17v110z" />
<glyph unicode="`" horiz-adv-x="1000" d="M626 1032q8 -10 8 -16q0 -4 -14 -4h-176q-14 0 -22 6t-16 14l-254 248q-12 12 -12 16t20 4h260q12 0 17 -4t15 -16z" />
<glyph unicode="a" horiz-adv-x="960" d="M620 298q0 52 -45 87t-115 35q-72 0 -116 -33t-44 -89q0 -58 44 -91t116 -33q70 0 115 35t45 89zM46 280q0 146 95 227t251 81q74 0 124 -14t88 -42q4 -2 8 -2q8 0 8 16v20q0 76 -41 108t-137 32q-62 0 -117 -16t-99 -40q-12 -6 -16 -6q-10 0 -10 16v164q0 16 16 24 q36 18 104 37t152 19q116 0 178 -16t110 -52q34 -26 56 -59t34 -82t17 -117t5 -160v-398q0 -12 -3 -16t-17 -4h-202q-14 0 -17 4t-3 16v64q0 4 -8 4q-6 0 -8 -2q-48 -56 -110 -81t-154 -25q-66 0 -121 22t-96 62t-64 95t-23 121z" />
<glyph unicode="b" horiz-adv-x="1100" d="M786 444q0 48 -15 91t-43 76t-69 52t-93 19t-93 -19t-70 -52t-44 -76t-15 -91q0 -50 15 -95t44 -78t70 -52t93 -19t93 19t69 52t43 78t15 95zM350 796q0 -4 8 -4q6 0 8 2q40 46 109 78t155 32q92 0 169 -35t132 -97t85 -146t30 -182t-30 -183t-85 -148t-132 -99t-169 -36 q-86 0 -155 32t-109 78q-2 2 -8 2q-8 0 -8 -4v-66q0 -12 -3 -16t-17 -4h-218q-14 0 -17 4t-3 16v1460q0 12 3 16t17 4h218q14 0 17 -4t3 -16v-684z" />
<glyph unicode="c" horiz-adv-x="828" d="M748 22q-22 -12 -51 -20t-61 -13t-63 -8t-57 -3q-100 0 -185 36t-148 98t-99 147t-36 185q0 98 36 183t99 146t148 96t185 35q56 0 119 -10t107 -30q10 -4 13 -8t3 -12v-212q0 -16 -10 -16q-4 0 -10 4q-36 28 -83 44t-111 16q-112 0 -174 -66t-62 -170t60 -173t176 -69 q68 0 116 19t86 49q2 2 8 2q10 0 10 -14v-216q0 -8 -3 -12t-13 -8z" />
<glyph unicode="d" horiz-adv-x="1100" d="M752 442q0 48 -15 91t-43 76t-69 52t-91 19q-52 0 -94 -19t-70 -52t-43 -76t-15 -91q0 -50 15 -94t43 -77t70 -52t94 -19q50 0 91 19t69 52t43 77t15 94zM750 1480q0 12 3 16t17 4h218q14 0 17 -4t3 -16v-1460q0 -12 -3 -16t-17 -4h-218q-14 0 -17 4t-3 16v66q0 4 -8 4 q-6 0 -8 -2q-40 -46 -110 -78t-156 -32q-94 0 -170 36t-131 98t-85 147t-30 183t30 182t85 146t131 97t170 35q86 0 156 -31t110 -77q2 -2 8 -2q8 0 8 4v684z" />
<glyph unicode="e" horiz-adv-x="986" d="M316 330q8 -70 69 -110t173 -40q68 0 136 19t112 53q4 4 12 4t8 -20v-174q0 -12 -20 -26q-18 -12 -49 -23t-68 -19t-78 -12t-77 -4q-110 0 -199 36t-151 98t-95 147t-33 185q0 98 32 182t90 146t139 97t179 35q104 0 185 -35t137 -98t84 -150t28 -193v-32q0 -30 -3 -39 t-19 -9h-570q-14 0 -18 -3t-4 -15zM490 700q-76 0 -126 -42t-58 -112q0 -14 3 -17t17 -3h328q16 0 19 3t1 17q-8 70 -54 112t-130 42z" />
<glyph unicode="f" horiz-adv-x="604" d="M412 902q0 -14 3 -17t17 -3h122q14 0 17 -4t3 -16v-176q0 -12 -3 -16t-17 -4h-122q-14 0 -17 -3t-3 -17v-626q0 -12 -3 -16t-17 -4h-216q-14 0 -17 4t-3 16v626q0 14 -3 17t-17 3h-82q-14 0 -17 4t-3 16v176q0 12 3 16t17 4h82q14 0 17 3t3 17v302q0 160 72 242t228 82 q22 0 42 -2t36 -4q20 -2 38 -4q12 -4 16 -7t4 -17v-174q0 -22 -20 -16q-16 4 -30 6t-26 2q-104 0 -104 -136v-274z" />
<glyph unicode="g" horiz-adv-x="1094" d="M314 444q0 -50 15 -95t42 -78t67 -52t92 -19t93 19t70 52t44 78t15 95q0 48 -15 91t-44 76t-70 52t-93 19t-92 -19t-67 -52t-42 -76t-15 -91zM242 -380q-18 8 -18 24v188q0 20 8 20q4 0 7 -2t7 -4q34 -28 101 -53t155 -25q120 0 184 56t64 196v66q0 4 -8 4q-6 0 -8 -2 q-40 -46 -109 -78t-155 -32q-94 0 -170 38t-131 102t-85 148t-30 178t30 177t85 146t131 100t170 37q86 0 155 -32t109 -78q2 -2 8 -2q8 0 8 4v66q0 12 3 16t17 4h216q14 0 17 -4t3 -16v-830q0 -234 -121 -353t-359 -119q-84 0 -164 18t-120 42z" />
<glyph unicode="h" horiz-adv-x="1038" d="M938 20q0 -12 -3 -16t-17 -4h-218q-14 0 -17 4t-3 16v494q0 80 -34 122t-110 42q-90 0 -137 -62t-47 -164v-432q0 -12 -3 -16t-17 -4h-218q-14 0 -17 4t-3 16v1460q0 12 3 16t17 4h218q14 0 17 -4t3 -16v-694q0 -4 8 -4q6 0 8 2q64 58 130 89t148 31q80 0 136 -26t90 -71 t50 -107t16 -132v-548z" />
<glyph unicode="i" horiz-adv-x="446" d="M94 862q0 12 3 16t17 4h218q14 0 17 -4t3 -16v-842q0 -12 -3 -16t-17 -4h-218q-14 0 -17 4t-3 16v842zM70 1202q0 66 44 110t110 44t110 -44t44 -110t-44 -110t-110 -44t-110 44t-44 110z" />
<glyph unicode="j" horiz-adv-x="444" d="M354 -122q0 -154 -70 -236t-224 -82q-22 0 -44 1t-38 3q-20 2 -38 4q-12 4 -16 7t-4 17v172q0 18 8 18q4 0 12 -2q26 -6 52 -6q58 0 80 33t22 103v952q0 12 3 16t17 4h220q14 0 17 -4t3 -16v-984zM70 1202q0 66 44 110t110 44t110 -44t44 -110t-44 -110t-110 -44t-110 44 t-44 110z" />
<glyph unicode="k" horiz-adv-x="966" d="M346 572q0 -14 12 -14t18 10l226 294q10 12 14 16t18 4h266q16 0 16 -6q0 -2 -8 -14l-300 -368q-4 -4 -4 -10t4 -10l324 -454q10 -14 10 -16q0 -4 -18 -4h-264q-14 0 -17 3t-15 17l-250 370q-6 8 -16 8q-16 0 -16 -14v-364q0 -12 -3 -16t-17 -4h-216q-14 0 -17 4t-3 16 v1460q0 12 3 16t17 4h216q14 0 17 -4t3 -16v-908z" />
<glyph unicode="l" horiz-adv-x="446" d="M94 1480q0 12 3 16t17 4h218q14 0 17 -4t3 -16v-1460q0 -12 -3 -16t-17 -4h-218q-14 0 -17 4t-3 16v1460z" />
<glyph unicode="m" horiz-adv-x="1564" d="M870 752q2 -4 8 -4t8 2q24 28 53 56t63 50t76 35t92 13q84 0 142 -25t94 -70t51 -107t15 -136v-546q0 -12 -3 -16t-17 -4h-216q-14 0 -17 4t-3 16v492q0 80 -30 122t-104 42q-78 0 -125 -52t-47 -144v-460q0 -12 -3 -16t-17 -4h-216q-14 0 -17 4t-3 16v492q0 80 -30 122 t-104 42q-78 0 -124 -52t-46 -144v-460q0 -12 -3 -16t-17 -4h-216q-14 0 -17 4t-3 16v842q0 12 3 16t17 4h216q14 0 17 -4t3 -16v-80q0 -4 8 -4q6 0 8 2q50 54 107 89t141 35q112 0 169 -43t87 -109z" />
<glyph unicode="n" horiz-adv-x="1026" d="M938 20q0 -12 -3 -16t-17 -4h-218q-14 0 -17 4t-3 16v494q0 80 -34 122t-110 42q-90 0 -137 -62t-47 -164v-432q0 -12 -3 -16t-17 -4h-218q-14 0 -17 4t-3 16v842q0 12 3 16t17 4h218q14 0 17 -4t3 -16v-80q0 -4 8 -4q6 0 8 2q64 58 130 91t148 33q80 0 136 -26t90 -71 t50 -107t16 -132v-548z" />
<glyph unicode="o" horiz-adv-x="1068" d="M56 444q0 100 37 184t102 146t152 96t187 34t187 -34t152 -96t102 -146t37 -184t-37 -185t-102 -148t-152 -98t-187 -35t-187 35t-152 98t-102 148t-37 185zM316 444q0 -50 15 -94t43 -77t68 -52t92 -19t92 19t68 52t43 77t15 94q0 48 -15 91t-43 75t-68 51t-92 19 t-92 -19t-68 -51t-43 -75t-15 -91z" />
<glyph unicode="p" horiz-adv-x="1100" d="M786 444q0 48 -15 91t-43 76t-69 52t-93 19t-93 -20t-70 -53t-44 -76t-15 -91q0 -50 15 -94t44 -77t70 -52t93 -19t93 19t69 52t43 78t15 95zM350 796q0 -4 8 -4q6 0 8 2q40 46 109 78t155 32q92 0 169 -37t132 -100t85 -146t30 -177t-30 -178t-85 -148t-132 -102 t-169 -38q-86 0 -155 32t-109 78q-2 2 -8 2q-8 0 -8 -4v-506q0 -12 -3 -16t-17 -4h-216q-14 0 -17 4t-3 16v1282q0 12 3 16t17 4h216q14 0 17 -4t3 -16v-66z" />
<glyph unicode="q" horiz-adv-x="1100" d="M310 442q0 -50 15 -94t43 -77t69 -52t93 -19t93 19t70 52t44 77t15 94q0 48 -15 91t-44 76t-70 52t-93 19t-93 -19t-69 -52t-43 -76t-15 -91zM746 862q0 12 3 16t17 4h216q14 0 17 -4t3 -16v-1282q0 -12 -3 -16t-17 -4h-216q-14 0 -17 4t-3 16v506q0 4 -8 4q-6 0 -8 -2 q-40 -46 -109 -78t-155 -32q-94 0 -170 36t-131 98t-85 147t-30 183t30 182t85 146t131 97t170 35q86 0 155 -31t109 -77q2 -2 8 -2q8 0 8 4v66z" />
<glyph unicode="r" horiz-adv-x="666" d="M108 0q-14 0 -17 4t-3 16v842q0 12 3 16t17 4h212q14 0 17 -4t3 -16v-104q0 -4 8 -4q6 0 8 2q16 26 42 52t60 47t75 35t87 14q14 0 17 -4t3 -16v-210q0 -22 -12 -22q-6 0 -22 2t-40 2q-114 0 -168 -82t-54 -232v-322q0 -12 -3 -16t-17 -4h-216z" />
<glyph unicode="s" horiz-adv-x="812" d="M738 768q4 -6 4 -14t-8 -16l-132 -102q-12 -8 -16 -8t-14 10q-22 24 -59 45t-87 21q-40 0 -68 -17t-28 -51q0 -32 32 -51t79 -35t103 -34t103 -50t79 -84t32 -132q0 -54 -22 -104t-66 -87t-109 -59t-151 -22q-132 0 -216 49t-140 115q-4 6 -4 14t8 16l140 108q8 6 14 6 q10 0 16 -10q34 -42 76 -68t94 -26q46 0 74 18t28 54q0 32 -31 50t-78 34t-102 34t-102 50t-78 84t-31 134q0 54 23 102t66 84t105 57t140 21q100 0 187 -39t139 -97z" />
<glyph unicode="t" horiz-adv-x="602" d="M58 666q-14 0 -17 4t-3 16v176q0 12 3 16t17 4h82q14 0 17 3t3 17v258q0 20 20 32l212 104q4 2 7 4t7 2q10 0 10 -16v-384q0 -14 3 -17t17 -3h122q14 0 17 -4t3 -16v-176q0 -12 -3 -16t-17 -4h-122q-14 0 -17 -3t-3 -17v-626q0 -12 -3 -16t-17 -4h-216q-14 0 -17 4t-3 16 v626q0 14 -3 17t-17 3h-82z" />
<glyph unicode="u" horiz-adv-x="984" d="M492 -22q-100 0 -174 30t-122 81t-72 121t-24 152v500q0 12 3 16t17 4h218q14 0 17 -4t3 -16v-496q0 -88 36 -126t98 -38t98 38t36 126v496q0 12 3 16t17 4h218q14 0 17 -4t3 -16v-500q0 -82 -24 -152t-72 -121t-122 -81t-174 -30z" />
<glyph unicode="v" horiz-adv-x="878" d="M426 446q2 -6 12 -6q8 0 12 6l178 416q6 12 10 16t16 4h224q18 0 18 -8l-4 -12l-436 -880q-10 -20 -28 -20q-14 0 -24 20l-418 880l-4 12q0 8 18 8h222q12 0 16 -4t10 -16z" />
<glyph unicode="w" horiz-adv-x="1296" d="M448 -18q-6 -18 -24 -18q-14 0 -22 18l-408 880l-4 12q0 8 18 8h228q12 0 16 -4t10 -16l164 -388q2 -6 12 -6q8 0 12 6l178 410q8 20 20 20t20 -20l180 -410q2 -6 12 -6q8 0 12 6l162 388q6 12 10 16t16 4h228q18 0 18 -8l-4 -12l-404 -880q-4 -10 -8 -14t-14 -4 q-16 0 -24 18l-190 436q-4 6 -12 6q-10 0 -12 -6z" />
<glyph unicode="x" horiz-adv-x="948" d="M282 444q4 4 4 8t-4 8l-260 402q-4 8 -4 12q0 8 14 8h244q12 0 17 -4t15 -16q38 -64 76 -126l76 -124q4 -4 8 -4t8 4l76 124t76 126q10 12 15 16t17 4h242q18 0 18 -4q0 -6 -8 -16l-258 -402q-4 -4 -4 -8t4 -8l280 -424q8 -10 8 -14q0 -6 -18 -6h-244q-12 0 -17 4t-15 16 l-170 264q-4 4 -8 4t-8 -4q-42 -66 -83 -132t-81 -132q-10 -12 -15 -16t-17 -4h-242q-18 0 -18 6t6 14z" />
<glyph unicode="y" horiz-adv-x="958" d="M470 348q2 -6 8 -6q4 0 8 6l208 514q6 12 10 16t16 4h230q18 0 18 -8l-4 -12q-136 -322 -270 -642t-270 -642q-6 -12 -10 -16t-16 -4h-228q-18 0 -18 8l4 12l182 442q4 10 4 18t-4 18l-334 806l-4 12q0 8 18 8h224q12 0 16 -4t10 -16z" />
<glyph unicode="z" horiz-adv-x="756" d="M400 246q-6 -12 -6 -18q0 -12 12 -12h278q14 0 17 -3t3 -17v-176q0 -14 -3 -17t-17 -3h-648q-14 0 -14 10q0 4 4 12l330 614q6 12 6 20q0 10 -12 10h-268q-14 0 -17 3t-3 17v176q0 14 3 17t17 3h638q14 0 14 -8q0 -4 -4 -12z" />
<glyph unicode="{" horiz-adv-x="584" d="M246 596q20 -4 47 -18t50 -44t39 -80t16 -126v-308q0 -128 88 -128h40q14 0 17 -3t3 -17v-132q0 -14 -3 -17t-17 -3h-92q-52 0 -97 14t-78 44t-53 78t-20 116v290q0 132 -32 192t-102 60q-14 0 -17 3t-3 17v146q0 14 3 17t17 3q70 0 102 59t32 191v260q0 68 20 116t53 78 t78 44t97 14h92q14 0 17 -3t3 -17v-132q0 -14 -3 -17t-17 -3h-40q-88 0 -88 -128v-278q0 -76 -16 -126t-39 -80t-50 -44t-47 -18v-20z" />
<glyph unicode="|" horiz-adv-x="412" d="M114 1480q0 12 3 16t17 4h132q14 0 17 -4t3 -16v-1960q0 -12 -3 -16t-17 -4h-132q-14 0 -17 4t-3 16v1960z" />
<glyph unicode="}" horiz-adv-x="584" d="M338 616q-22 4 -48 18t-49 44t-39 80t-16 126v244q0 84 -18 123t-70 39h-40q-14 0 -17 3t-3 17v132q0 14 3 17t17 3h72q54 0 103 -12t85 -41t58 -77t22 -122v-260q0 -132 32 -191t102 -59q14 0 17 -3t3 -17v-146q0 -14 -3 -17t-17 -3q-70 0 -102 -60t-32 -192v-290 q0 -74 -22 -122t-58 -77t-85 -41t-103 -12h-72q-14 0 -17 3t-3 17v132q0 14 3 17t17 3h40q52 0 70 38t18 122v276q0 76 16 126t39 80t49 44t48 18v20z" />
<glyph unicode="~" horiz-adv-x="1040" d="M980 614q0 -49 -20.5 -92.5t-56 -76.5t-83 -52t-102.5 -19q-54 0 -94.5 12.5t-73 31.5t-58.5 41t-49.5 41t-46.5 31.5t-50 12.5q-17 0 -34.5 -6t-31 -18t-22 -28.5t-8.5 -37.5v-22q0 -15 -3.5 -20.5t-20.5 -5.5h-142q-17 0 -20.5 5.5t-3.5 20.5v58q0 49 22 93.5t59.5 78 t86.5 53t104 19.5q52 0 92 -12.5t71.5 -31.5t56.5 -41t48 -41t45.5 -31.5t48.5 -12.5q17 0 34.5 5.5t31 16.5t22 27.5t8.5 38.5v24q0 15 3.5 20.5t20.5 5.5h142q17 0 20.5 -5.5t3.5 -20.5v-62z" />
<glyph unicode="&#xa1;" horiz-adv-x="554" d="M278 1424q60 0 104 -44t44 -106q0 -60 -42 -105t-106 -45q-62 0 -105 45t-43 105q0 32 12 59t33 47t47 32t56 12zM374 966q16 -238 31 -473t31 -473q0 -14 -2 -17t-16 -3h-282q-14 0 -16 3t-2 17q16 238 31 473t31 473q0 14 4 17t18 3h150q14 0 18 -3t4 -17z" />
<glyph unicode="&#xa2;" horiz-adv-x="820" d="M394 10q-76 18 -140 58t-110 97t-71 128t-25 151t25 150t71 126t110 95t140 57v154q0 12 3 16t17 4h156q14 0 17 -4t3 -16v-144q42 -4 82 -13t70 -21q10 -4 13 -8t3 -12v-204q0 -16 -10 -16q-4 0 -10 4q-72 54 -206 54q-112 0 -174 -61t-62 -161t60 -164t176 -64 q136 0 214 60q2 2 8 2q10 0 10 -12v-208q0 -8 -3 -12t-13 -8q-32 -16 -74 -25t-84 -13v-140q0 -12 -3 -16t-17 -4h-156q-14 0 -17 4t-3 16v150z" />
<glyph unicode="&#xa3;" horiz-adv-x="1146" d="M196 222q14 0 17 3t3 17v348q0 12 -12 12h-128q-16 0 -16 16v144q0 16 16 16h128q12 0 12 12v138q0 132 28 219t88 153q54 58 134 90t184 32q112 0 192 -33t131 -87t74 -125t23 -145q0 -14 -3 -17t-17 -3h-214q-14 0 -17 3t-3 17q0 30 -8 59t-26 53t-49 39t-79 15 q-178 0 -178 -254v-154q0 -12 12 -12h284q20 0 20 -20v-136q0 -20 -20 -20h-284q-12 0 -12 -12v-348q0 -14 3 -17t17 -3h460q20 0 20 -20v-182q0 -20 -20 -20h-908q-20 0 -20 20v182q0 20 20 20h148z" />
<glyph unicode="&#xa4;" horiz-adv-x="1148" d="M794 744q0 96 -60 160t-160 64q-48 0 -88 -17t-69 -47t-45 -71t-16 -89t16 -89t45 -71t69 -47t88 -17q100 0 160 64t60 160zM1000 744q0 -70 -21 -125t-47 -93q-4 -8 -4 -10q0 -4 2 -6l148 -146q4 -4 4 -8t-4 -8l-106 -106q-4 -4 -8 -4t-8 4l-146 148q-4 4 -8 4t-8 -4 q-38 -26 -93 -47t-127 -21t-127 20t-95 46q-4 4 -8 4t-8 -4l-146 -148q-4 -4 -8 -4t-8 4l-106 106q-4 4 -4 8t4 8l148 146q2 2 2 6q0 2 -4 10q-24 34 -43 91t-19 129t19 129t43 91q4 8 4 10q0 4 -2 6l-148 146q-4 4 -4 8t4 8l106 106q4 4 8 4t8 -4l146 -148q4 -4 8 -4t8 4 q40 26 95 46t127 20t127 -21t93 -47q4 -4 8 -4t8 4l146 148q4 4 8 4t8 -4l106 -106q4 -4 4 -8t-4 -8l-148 -146q-2 -2 -2 -6q0 -2 4 -10q26 -38 47 -93t21 -125z" />
<glyph unicode="&#xa5;" horiz-adv-x="1192" d="M884 908q-4 -8 -4 -10q0 -10 14 -10h174q20 0 20 -20v-108q0 -20 -20 -20h-254q-14 0 -18 -3t-10 -15l-50 -90q-4 -14 0 -17t18 -3h314q20 0 20 -20v-108q0 -20 -20 -20h-330q-14 0 -17 -3t-3 -17v-424q0 -14 -3 -17t-17 -3h-202q-14 0 -17 3t-3 17v424q0 14 -3 17t-17 3 h-334q-16 0 -16 16v116q0 16 16 16h316q14 0 20 3t-2 17l-48 90q-6 12 -10 15t-18 3h-258q-16 0 -16 16v116q0 16 16 16h178q14 0 14 10q0 2 -4 10l-298 472q-4 8 -4 12q0 8 12 8h262q16 0 28 -20q68 -122 138 -241t140 -241q2 -6 10 -6q6 0 10 6q70 122 139 242t139 240 q8 14 13 17t15 3h260q12 0 12 -8q0 -4 -4 -12z" />
<glyph unicode="&#xa6;" horiz-adv-x="408" d="M112 1480q0 12 3 16t17 4h134q14 0 17 -4t3 -16v-792q0 -12 -3 -16t-17 -4h-134q-14 0 -17 4t-3 16v792zM112 312q0 12 3 16t17 4h134q14 0 17 -4t3 -16v-792q0 -12 -3 -16t-17 -4h-134q-14 0 -17 4t-3 16v792z" />
<glyph unicode="&#xa7;" horiz-adv-x="1110" d="M84 -192q-6 12 -6 16q0 7 10 14l164 112q9 6 18 6q8 0 18 -10q48 -81 109 -123.5t147 -42.5q75 0 119.5 36.5t44.5 101.5q0 31 -14 58t-43.5 53.5t-76 53.5t-110.5 57q-86 40 -153 78t-112.5 82.5t-69 98.5t-23.5 125q0 40 12.5 77.5t34 71t51 63t64.5 52.5q8 5 8 10 q0 4 -8 12q-30 25 -53 49t-38 52.5t-23 63t-8 79.5q0 76 29 142.5t81.5 116t126.5 78.5t165 29q66 0 129.5 -13.5t119 -41t100 -69t73.5 -96.5q6 -12 6 -16q0 -7 -10 -14l-154 -106q-9 -6 -18 -6q-8 0 -18 10q-20 26 -44 49t-51 40t-57 27t-64 10q-32 0 -60 -8t-48.5 -24.5 t-32 -40.5t-11.5 -55t12.5 -56t38.5 -48t66.5 -46t96.5 -48q83 -38 155 -74.5t126 -80t87 -99.5t38 -132q0 -100 -35.5 -177.5t-112.5 -130.5q-8 -5 -8 -10q0 -4 8 -12q48 -47 73 -104.5t25 -135.5q0 -80 -28.5 -147t-84 -115t-137.5 -75t-190 -27q-82 0 -152.5 19 t-128 53.5t-101.5 82t-72 105.5zM678 290q8 -4 12 -4t8 2q86 37 86 132q0 34 -13.5 61.5t-43 54.5t-75.5 54.5t-110 61.5q-14 8 -28.5 15t-23.5 13q-8 4 -12 4h-4.5t-5.5 -2q-22 -7 -41.5 -17.5t-34.5 -26t-23.5 -36.5t-8.5 -48q0 -35 15.5 -63.5t45.5 -54t73 -51t98 -53.5 q26 -14 45.5 -22.5t40.5 -19.5z" />
<glyph unicode="&#xa8;" horiz-adv-x="1000" d="M498 1044q-56 0 -97 39t-41 101q0 60 40 101t98 41q60 0 99 -42t39 -98q0 -58 -40 -100t-98 -42zM94 1044q-56 0 -97 39t-41 101q0 60 39 101t99 41t99 -42t39 -98q0 -58 -40 -100t-98 -42z" />
<glyph unicode="&#xa9;" horiz-adv-x="1084" d="M56 962q0 100 39 188.5t105.5 155t155 105.5t188.5 39t188.5 -39t154 -105.5t103.5 -155t38 -188.5t-38 -189t-103.5 -156t-154 -106t-188.5 -39t-188.5 39t-155 106t-105.5 156t-39 189zM198 962q0 -77 25.5 -144t71 -116.5t109 -77.5t140.5 -28t140 28t108 77.5 t69.5 116.5t24.5 144q0 76 -24.5 142t-69.5 115.5t-108 78t-140 28.5t-140.5 -28.5t-109 -78t-71 -115.5t-25.5 -142zM578 818q22 0 38.5 3t30 9t26.5 14.5t27 19.5q6 6 10 6t4 -12v-114q0 -12 -2 -15.5t-10 -8.5q-26 -15 -60 -26.5t-78 -11.5q-65 0 -117 23t-88 61.5 t-55.5 89t-19.5 106.5q0 57 18.5 108t54 89t87.5 60.5t120 22.5q39 0 75 -11t63 -25q9 -5 10.5 -8.5t1.5 -15.5v-114q0 -12 -2 -12t-5.5 1.5t-6.5 4.5q-24 18 -50.5 31t-71.5 13q-32 0 -57.5 -11.5t-43 -31t-26.5 -45.5t-9 -56q0 -63 35.5 -103.5t100.5 -40.5z" />
<glyph unicode="&#xaa;" horiz-adv-x="746" d="M516 1130q0 29 -10 55.5t-28.5 46.5t-45 32t-58.5 12q-31 0 -57 -11.5t-45 -31t-29.5 -46t-10.5 -57.5q0 -32 10.5 -59.5t29.5 -47.5t45 -31.5t57 -11.5q32 0 58.5 12t45 32.5t28.5 47.5t10 58zM690 870q0 -12 -3 -16t-17 -4h-134q-14 0 -17 4t-3 16v40q0 2 -3 3t-5 1h-3 q-3 0 -5 -2q-35 -33 -76.5 -53.5t-97.5 -20.5q-60 0 -109.5 22t-85.5 60.5t-55.5 90.5t-19.5 113q0 58 19.5 111t55.5 93.5t85.5 64t109.5 23.5q56 0 97.5 -20.5t76.5 -53.5q2 -2 5 -2h3q2 0 5 1t3 3v40q0 12 3 16t17 4h134q14 0 17 -4t3 -16v-514z" />
<glyph unicode="&#xab;" horiz-adv-x="1010" d="M100 432q-4 8 -4 12t4 12l238 416q6 12 14 12q5 0 14 -6l136 -78q12 -6 12 -14q0 -4 -4 -12l-186 -314q-5 -8 -5.5 -12.5t-0.5 -9.5q0 -8 6 -20l186 -312q3 -5 4.5 -7t1.5 -5q0 -6 -14 -14l-136 -78q-9 -6 -14 -6q-8 0 -14 12zM510 432q-4 8 -4 12t4 12l238 416 q6 12 14 12q5 0 14 -6l136 -78q12 -6 12 -14q0 -4 -4 -12l-186 -314q-5 -8 -5.5 -12.5t-0.5 -9.5q0 -8 6 -20l186 -312q3 -5 4.5 -7t1.5 -5q0 -6 -14 -14l-136 -78q-9 -6 -14 -6q-8 0 -14 12z" />
<glyph unicode="&#xac;" horiz-adv-x="1040" d="M90 586q-14 0 -17 4t-3 16v134q0 12 3 16t17 4h860q14 0 17 -4t3 -16v-532q0 -12 -3 -16t-17 -4h-146q-14 0 -17 4t-3 16v358q0 14 -3 17t-17 3h-674z" />
<glyph unicode="&#xad;" horiz-adv-x="600" d="M92 618q0 14 4 17t16 3h376q14 0 17 -3t3 -17v-156q0 -14 -3 -17t-17 -3h-376q-14 0 -17 3t-3 17v156z" />
<glyph unicode="&#xae;" horiz-adv-x="1084" d="M56 962q0 100 39 188.5t105.5 155t155 105.5t188.5 39t188 -39t154 -105.5t104 -155t38 -188.5t-38 -189t-104 -156t-154 -106t-188 -39t-188.5 39t-155 106t-105.5 156t-39 189zM200 962q0 -77 25 -144t70.5 -116.5t108.5 -77.5t140 -28t140 28t108 77.5t69.5 116.5 t24.5 144q0 76 -24.5 142t-69.5 115.5t-108 78t-140 28.5t-140 -28.5t-108.5 -78t-70.5 -115.5t-25 -142zM508 982q25 0 44 1t32.5 7t20.5 18t7 34q0 35 -17.5 50.5t-50.5 15.5h-36q-14 0 -17 -3t-3 -17v-88q0 -12 3 -15t17 -3zM372 710q-14 0 -17 3t-3 17v478q0 14 3 17 t17 3h184q102 0 148 -45t46 -123q0 -56 -24 -94t-60 -62q-4 -4 -4 -6q0 -3 1.5 -5t4.5 -7l90 -156q6 -12 6 -14q0 -6 -16 -6h-114q-6 0 -11 4t-11 12l-66 122q-5 9 -10 14.5t-20 5.5h-8q-14 0 -17 -3t-3 -17v-118q0 -14 -3 -17t-17 -3h-96z" />
<glyph unicode="&#xaf;" horiz-adv-x="1000" d="M100 1212q0 14 4 17t16 3h620q14 0 17 -3t3 -17v-112q0 -14 -3 -17t-17 -3h-620q-14 0 -17 3t-3 17v112z" />
<glyph unicode="&#xb0;" horiz-adv-x="702" d="M484 1136q0 28 -9.5 53.5t-26.5 44t-41.5 29.5t-54.5 11q-31 0 -55.5 -11t-42 -29.5t-27 -44t-9.5 -53.5q0 -29 9.5 -54t27 -43.5t42 -29.5t55.5 -11q30 0 54.5 11t41.5 29.5t26.5 43.5t9.5 54zM56 1136q0 61 20 112t58 88.5t93 58.5t125 21q69 0 123.5 -21t92.5 -58.5 t58 -88.5t20 -112t-20 -112t-58 -88.5t-92.5 -58.5t-123.5 -21q-70 0 -125 21t-93 58.5t-58 88.5t-20 112z" />
<glyph unicode="&#xb1;" horiz-adv-x="1040" d="M614 748q0 -14 3 -17t17 -3h316q14 0 17 -4t3 -16v-134q0 -12 -3 -16t-17 -4h-316q-14 0 -17 -3t-3 -17v-250q0 -12 -3 -16t-17 -4h-146q-14 0 -17 4t-3 16v250q0 14 -3 17t-17 3h-318q-14 0 -17 4t-3 16v134q0 12 3 16t17 4h318q14 0 17 3t3 17v250q0 12 3 16t17 4h146 q14 0 17 -4t3 -16v-250zM950 176q14 0 17 -4t3 -16v-134q0 -12 -3 -16t-17 -4h-860q-14 0 -17 4t-3 16v134q0 12 3 16t17 4h860z" />
<glyph unicode="&#xb2;" d="M80 1378q-3 59 14.5 111t53.5 90.5t89 60.5t121 22q71 0 125.5 -19t91 -53.5t55 -83t18.5 -106.5q0 -38 -10.5 -74.5t-33 -75t-57 -80.5t-83.5 -90l-24 -24q-3 -5 -5.5 -6.5t-2.5 -3.5q0 -6 12 -6h190q14 0 17 -3t3 -17v-118q0 -14 -3 -17t-17 -3h-534q-6 0 -9 3.5 t-3 8.5q0 6 2.5 9.5t5.5 8.5q29 31 67 70t78.5 81.5t80 87t70 86.5t49.5 80.5t19 68.5q0 47 -24.5 79.5t-75.5 32.5q-28 0 -47.5 -10t-31.5 -26.5t-17.5 -37t-5.5 -42.5q0 -20 -20 -20h-142q-9 0 -12.5 2.5t-3.5 13.5z" />
<glyph unicode="&#xb3;" d="M258 1436q0 -14 -3 -17t-15 -3h-126q-14 0 -17 3t-3 17q1 52 19 93.5t52 71t82 45.5t109 16q60 0 108.5 -15.5t82.5 -42.5t52.5 -64t18.5 -80q0 -48 -21 -81.5t-53 -56.5q-6 -6 -6 -10q0 -2 6 -8q50 -29 80 -79.5t30 -112.5q0 -55 -20 -99.5t-57.5 -76t-91.5 -49 t-123 -17.5q-68 0 -121 17.5t-89 49.5t-55 77.5t-19 101.5q0 14 3 17t17 3h132q14 0 17 -3t3 -17q0 -42 27.5 -65t74.5 -23q48 0 76 22t28 66q0 42 -26.5 66t-83.5 24h-52q-14 0 -17 3t-3 17v92q0 14 3 17t17 3h46q42 0 68 21t26 63q0 39 -24 62.5t-62 23.5 q-41 0 -64.5 -18.5t-25.5 -53.5z" />
<glyph unicode="&#xb4;" horiz-adv-x="1000" d="M548 1280q10 12 15 16t17 4h260q20 0 20 -4t-12 -16l-254 -248q-8 -8 -16 -14t-22 -6h-176q-14 0 -14 4q0 6 8 16z" />
<glyph unicode="&#xb5;" horiz-adv-x="1026" d="M350 -8q-6 0 -8 -2t-2 -10v-404q0 -12 -3 -16t-17 -4h-208q-14 0 -17 4t-3 16v1286q0 12 3 16t17 4h220q14 0 17 -4t3 -16v-492q0 -80 34.5 -122t109.5 -42q38 0 71.5 14t58.5 39.5t39.5 62t14.5 82.5v458q0 12 3 16t17 4h220q14 0 17 -4t3 -16v-842q0 -12 -3 -16t-17 -4 h-220q-14 0 -17 4t-3 16v80q0 2 -2 3t-4 1h-4t-4 -2q-25 -32 -50 -54.5t-53.5 -37t-61 -21.5t-71.5 -7q-21 0 -41.5 3.5t-38.5 6.5z" />
<glyph unicode="&#xb6;" horiz-adv-x="1112" d="M542 466q-116 0 -208.5 34t-157 96t-98.5 150t-34 196q0 109 33 194.5t97 144t158.5 89t217.5 30.5h12q14 0 17 -4t3 -16v-894q0 -14 -3 -17t-17 -3h-20zM972 1400q14 0 17 -3t3 -17v-1686q0 -14 -3 -17t-17 -3h-222q-14 0 -17 3t-3 17v1686q0 14 3 17t17 3h222z" />
<glyph unicode="&#xb7;" horiz-adv-x="500" d="M258 506q-64 0 -110 43t-46 113q0 64 46 110t110 46q66 0 111 -46t45 -110q0 -70 -45 -113t-111 -43z" />
<glyph unicode="&#xb8;" horiz-adv-x="1000" d="M434 22q44 0 91 -13t85 -40t62 -66t24 -93q0 -102 -64 -171t-166 -69q-32 0 -78 9t-74 29q-12 10 -10 24l20 110q4 16 8 16q6 0 10 -4q22 -16 43 -25t51 -9q44 0 67 23t23 61q0 48 -32 70t-72 22q-12 0 -27 -1t-21 -1q-10 0 -13 2t-3 14l20 112h56z" />
<glyph unicode="&#xb9;" d="M536 902q0 -12 -3 -16t-17 -4h-142q-12 0 -16 4t-4 16v514q0 15 -3 20t-17 0l-120 -36q-12 -5 -16 -3.5t-4 15.5v126q0 14 4 18.5t16 9.5l302 100q15 5 17.5 1.5t2.5 -17.5v-748z" />
<glyph unicode="&#xba;" d="M366 1276q-31 0 -56.5 -11.5t-44 -31.5t-29 -47t-10.5 -58q0 -32 10.5 -60t29 -48.5t44 -32t56.5 -11.5t56.5 11.5t44 32t29 48.5t10.5 60q0 31 -10.5 58t-29 47t-44 31.5t-56.5 11.5zM366 838q-69 0 -126 21.5t-98 60t-63.5 91.5t-22.5 117q0 61 22.5 114t63.5 91.5 t98 60.5t126 22t126 -22t98 -60.5t63.5 -91.5t22.5 -114q0 -64 -22.5 -117t-63.5 -91.5t-98 -60t-126 -21.5z" />
<glyph unicode="&#xbb;" horiz-adv-x="1010" d="M262 8q-6 -12 -14 -12q-5 0 -14 6l-136 78q-14 8 -14 14q0 3 1.5 5t4.5 7l186 312q6 12 6 20q0 5 -0.5 9.5t-5.5 12.5l-186 314q-4 8 -4 12q0 8 12 14l136 78q9 6 14 6q8 0 14 -12l238 -416q4 -8 4 -12t-4 -12zM672 8q-6 -12 -14 -12q-5 0 -14 6l-136 78q-14 8 -14 14 q0 3 1.5 5t4.5 7l186 312q6 12 6 20q0 5 -0.5 9.5t-5.5 12.5l-186 314q-4 8 -4 12q0 8 12 14l136 78q9 6 14 6q8 0 14 -12l238 -416q4 -8 4 -12t-4 -12z" />
<glyph unicode="&#xbc;" horiz-adv-x="1446" d="M272 62q180 340 359.5 680.5t358.5 681.5q8 14 16 14q2 0 4.5 -1l7.5 -3l120 -62q12 -9 12 -16q0 -4 -4 -12q-180 -341 -360 -681.5t-358 -680.5q-8 -14 -16 -14q-3 0 -5 1t-7 3l-120 62q-12 6 -12 14q0 3 1 6t3 8zM442 652q0 -12 -3 -16t-17 -4h-142q-12 0 -16 4t-4 16 v514q0 15 -3 20t-17 0l-120 -36q-12 -5 -16 -3.5t-4 15.5v126q0 14 4 18.5t16 9.5l302 100q15 5 17.5 1.5t2.5 -17.5v-748zM718 100q-15 0 -20.5 3t-5.5 9q0 5 3.5 11t8.5 11l502 630l8.5 8.5t9.5 3.5t8 -3.5t2 -8.5v-486q0 -14 3 -17t17 -3h52q14 0 17 -3t3 -17v-118 q0 -14 -3 -17t-17 -3h-52q-14 0 -17 -3t-3 -17v-60q0 -14 -3 -17t-17 -3h-132q-14 0 -17 3t-3 17v60q0 14 -3 17t-17 3h-324zM1078 406q0 10 -4 10t-10 -6l-110 -148q-3 -5 -5.5 -8t-2.5 -6q0 -6 12 -6h100q14 0 17 3t3 17v144z" />
<glyph unicode="&#xbd;" horiz-adv-x="1594" d="M272 62q180 340 359.5 680.5t358.5 681.5q8 14 16 14q2 0 4.5 -1l7.5 -3l120 -62q12 -9 12 -16q0 -4 -4 -12q-180 -341 -360 -681.5t-358 -680.5q-8 -14 -16 -14q-3 0 -5 1t-7 3l-120 62q-12 6 -12 14q0 3 1 6t3 8zM442 652q0 -12 -3 -16t-17 -4h-142q-12 0 -16 4t-4 16 v514q0 15 -3 20t-17 0l-120 -36q-12 -5 -16 -3.5t-4 15.5v126q0 14 4 18.5t16 9.5l302 100q15 5 17.5 1.5t2.5 -17.5v-748zM900 496q-3 59 14.5 111t53.5 90.5t89 60.5t121 22q71 0 125.5 -19t91 -53.5t55 -83t18.5 -106.5q0 -38 -10.5 -74.5t-33 -75t-57 -80.5t-83.5 -90 l-24 -24q-3 -5 -5.5 -6.5t-2.5 -3.5q0 -6 12 -6h190q14 0 17 -3t3 -17v-118q0 -14 -3 -17t-17 -3h-534q-6 0 -9 3.5t-3 8.5q0 6 2.5 9.5t5.5 8.5q29 31 67 70t78.5 81.5t80 87t70 86.5t49.5 80.5t19 68.5q0 47 -24.5 79.5t-75.5 32.5q-28 0 -47.5 -10t-31.5 -26.5t-17.5 -37 t-5.5 -42.5q0 -20 -20 -20h-142q-9 0 -12.5 2.5t-3.5 13.5z" />
<glyph unicode="&#xbe;" horiz-adv-x="1546" d="M392 62q180 340 359.5 680.5t358.5 681.5q8 14 16 14q2 0 4.5 -1l7.5 -3l120 -62q12 -9 12 -16q0 -4 -4 -12q-180 -341 -360 -681.5t-358 -680.5q-8 -14 -16 -14q-3 0 -5 1t-7 3l-120 62q-12 6 -12 14q0 3 1 6t3 8zM279 1186q0 -14 -3 -17t-15 -3h-126q-14 0 -17 3t-3 17 q1 52 19 93.5t52 71t82 45.5t109 16q60 0 108.5 -15.5t82.5 -42.5t52.5 -64t18.5 -80q0 -48 -21 -81.5t-53 -56.5q-6 -6 -6 -10q0 -2 6 -8q50 -29 80 -79.5t30 -112.5q0 -55 -20 -99.5t-57.5 -76t-91.5 -49t-123 -17.5q-68 0 -121 17.5t-89 49.5t-55 77.5t-19 101.5 q0 14 3 17t17 3h132q14 0 17 -3t3 -17q0 -42 27.5 -65t74.5 -23q48 0 76 22t28 66q0 42 -26.5 66t-83.5 24h-52q-14 0 -17 3t-3 17v92q0 14 3 17t17 3h46q42 0 68 21t26 63q0 39 -24 62.5t-62 23.5q-41 0 -64.5 -18.5t-25.5 -53.5zM818 100q-15 0 -20.5 3t-5.5 9q0 5 3.5 11 t8.5 11l502 630l8.5 8.5t9.5 3.5t8 -3.5t2 -8.5v-486q0 -14 3 -17t17 -3h52q14 0 17 -3t3 -17v-118q0 -14 -3 -17t-17 -3h-52q-14 0 -17 -3t-3 -17v-60q0 -14 -3 -17t-17 -3h-132q-14 0 -17 3t-3 17v60q0 14 -3 17t-17 3h-324zM1178 406q0 10 -4 10t-10 -6l-110 -148 q-3 -5 -5.5 -8t-2.5 -6q0 -6 12 -6h100q14 0 17 3t3 17v144z" />
<glyph unicode="&#xbf;" horiz-adv-x="866" d="M562 990q14 0 17 -3t5 -17q6 -30 6 -58q0 -98 -42 -172t-93 -136t-93 -118t-42 -118q0 -64 34 -100t104 -36q68 0 106 47t38 117q0 12 3 16t17 4h212q12 0 16 -3t4 -15v-20q0 -88 -30 -161t-84 -127t-131 -84t-173 -30q-76 0 -151 22t-134 65t-95 108t-36 153 q0 78 25 138t62 107t81 86t81 77t62 78t25 92v68q0 14 3 17t17 3h186zM452 1424q62 0 108 -43t46 -113q0 -64 -44 -110t-110 -46t-110 46t-44 108q0 64 45 111t109 47z" />
<glyph unicode="&#xc0;" horiz-adv-x="1212" d="M614 818q-4 6 -12 6q-10 0 -12 -6l-130 -362q-2 -4 -2 -10q0 -8 14 -8h262q16 0 16 6t-2 10zM584 1422q6 12 22 12q14 0 20 -12l584 -1402q2 -4 2 -12t-14 -8h-278q-12 0 -17 4t-9 16l-68 176q-4 14 -9 17t-15 3h-398q-18 0 -26 -20l-66 -176q-8 -20 -24 -20h-272 q-16 0 -16 8q0 4 4 12zM726 1520q8 -10 8 -16q0 -4 -14 -4h-176q-14 0 -22 6t-16 14l-254 248q-12 12 -12 16t20 4h260q12 0 17 -4t15 -16z" />
<glyph unicode="&#xc1;" horiz-adv-x="1212" d="M614 818q-4 6 -12 6q-10 0 -12 -6l-130 -362q-2 -4 -2 -10q0 -8 14 -8h262q16 0 16 6t-2 10zM584 1422q6 12 22 12q14 0 20 -12l584 -1402q2 -4 2 -12t-14 -8h-278q-12 0 -17 4t-9 16l-68 176q-4 14 -9 17t-15 3h-398q-18 0 -26 -20l-66 -176q-8 -20 -24 -20h-272 q-16 0 -16 8q0 4 4 12zM692 1768q10 12 15 16t17 4h260q20 0 20 -4t-12 -16l-254 -248q-8 -8 -16 -14t-22 -6h-176q-14 0 -14 4q0 6 8 16z" />
<glyph unicode="&#xc2;" horiz-adv-x="1212" d="M614 818q-4 6 -12 6q-10 0 -12 -6l-130 -362q-2 -4 -2 -10q0 -8 14 -8h262q16 0 16 6t-2 10zM584 1422q6 12 22 12q14 0 20 -12l584 -1402q2 -4 2 -12t-14 -8h-278q-12 0 -17 4t-9 16l-68 176q-4 14 -9 17t-15 3h-398q-18 0 -26 -20l-66 -176q-8 -20 -24 -20h-272 q-16 0 -16 8q0 4 4 12zM478 1768q10 12 18 16t20 4h212q22 0 38 -20l216 -248q6 -8 6 -14t-12 -6h-184q-14 0 -20 6l-14 14l-120 128q-4 4 -12 4t-12 -4l-116 -128l-14 -14t-20 -6h-188q-12 0 -12 6t6 14z" />
<glyph unicode="&#xc3;" horiz-adv-x="1212" d="M614 818q-4 6 -12 6q-10 0 -12 -6l-130 -362q-2 -4 -2 -10q0 -8 14 -8h262q16 0 16 6t-2 10zM584 1422q6 12 22 12q14 0 20 -12l584 -1402q2 -4 2 -12t-14 -8h-278q-12 0 -17 4t-9 16l-68 176q-4 14 -9 17t-15 3h-398q-18 0 -26 -20l-66 -176q-8 -20 -24 -20h-272 q-16 0 -16 8q0 4 4 12zM966 1680q0 -80 -57 -137t-147 -57q-64 0 -102 20t-64 45t-48 45t-54 20q-28 0 -48 -19t-20 -53v-12q0 -12 -3 -16t-17 -4h-114q-14 0 -17 4t-3 16v48q0 40 17 75t45 62t67 43t83 16q62 0 99 -20t62 -45t46 -45t53 -20q28 0 48 18t20 52v14q0 12 3 16 t17 4h114q14 0 17 -4t3 -16v-50z" />
<glyph unicode="&#xc4;" horiz-adv-x="1212" d="M614 818q-4 6 -12 6q-10 0 -12 -6l-130 -362q-2 -4 -2 -10q0 -8 14 -8h262q16 0 16 6t-2 10zM584 1422q6 12 22 12q14 0 20 -12l584 -1402q2 -4 2 -12t-14 -8h-278q-12 0 -17 4t-9 16l-68 176q-4 14 -9 17t-15 3h-398q-18 0 -26 -20l-66 -176q-8 -20 -24 -20h-272 q-16 0 -16 8q0 4 4 12zM828 1532q-56 0 -97 39t-41 101q0 60 40 101t98 41q60 0 99 -42t39 -98q0 -58 -40 -100t-98 -42zM424 1532q-56 0 -97 39t-41 101q0 60 39 101t99 41t99 -42t39 -98q0 -58 -40 -100t-98 -42z" />
<glyph unicode="&#xc5;" horiz-adv-x="1212" d="M614 818q-4 6 -12 6q-10 0 -12 -6l-130 -362q-2 -4 -2 -10q0 -8 14 -8h262q16 0 16 6t-2 10zM584 1422q6 12 22 12q14 0 20 -12l584 -1402q2 -4 2 -12t-14 -8h-278q-12 0 -17 4t-9 16l-68 176q-4 14 -9 17t-15 3h-398q-18 0 -26 -20l-66 -176q-8 -20 -24 -20h-272 q-16 0 -16 8q0 4 4 12zM626 1606q32 0 54 22t22 56q0 32 -21 54t-55 22t-55 -22t-21 -56t22 -55t54 -21zM626 1492q-76 0 -133 51t-57 139q0 80 54 136t136 56q40 0 75 -15t60 -41t40 -61t15 -73q0 -40 -15 -74t-41 -61t-61 -42t-73 -15z" />
<glyph unicode="&#xc6;" horiz-adv-x="1652" d="M760 0q-14 0 -17 3t-3 17v214q0 16 -20 16h-328q-20 0 -26 -20l-96 -210q-4 -14 -9 -17t-17 -3h-260q-16 0 -16 8t2 12l648 1360q10 20 30 20h870q14 0 17 -3t3 -17v-220q0 -14 -3 -17t-17 -3h-478q-14 0 -17 -3t-3 -17v-334q0 -14 3 -17t17 -3h468q14 0 17 -3t3 -17 v-214q0 -14 -3 -17t-17 -3h-468q-14 0 -17 -3t-3 -17v-212q0 -14 3 -17t17 -3h488q14 0 17 -3t3 -17v-220q0 -14 -3 -17t-17 -3h-768zM476 506l-4 -12q0 -8 18 -8h230q14 0 17 3t3 17v528q0 8 -10 8q-4 0 -8 -1t-6 -5z" />
<glyph unicode="&#xc7;" horiz-adv-x="1250" d="M790 -26q-168 0 -302 57t-228 156t-145 231t-51 282q0 146 50 278t144 231t229 158t303 59q96 0 188 -23t164 -59q16 -8 16 -20v-302q0 -14 -8 -14q-6 0 -10 4q-58 60 -146 92t-188 32q-108 0 -189 -35t-136 -95t-83 -139t-28 -167t28 -167t83 -139t136 -95t187 -35 q100 0 189 32t147 92q4 4 10 4q8 0 8 -14v-302q0 -12 -16 -20q-72 -36 -164 -59t-188 -23zM614 22q44 0 91 -13t85 -40t62 -66t24 -93q0 -102 -64 -171t-166 -69q-32 0 -78 9t-74 29q-12 10 -10 24l20 110q4 16 8 16q6 0 10 -4q22 -16 43 -25t51 -9q44 0 67 23t23 61 q0 48 -32 70t-72 22q-12 0 -27 -1t-21 -1q-10 0 -13 2t-3 14l20 112h56z" />
<glyph unicode="&#xc8;" horiz-adv-x="1054" d="M118 1380q0 14 3 17t17 3h816q14 0 17 -3t3 -17v-224q0 -14 -3 -17t-17 -3h-524q-14 0 -17 -3t-3 -17v-326q0 -14 3 -17t17 -3h504q14 0 17 -3t3 -17v-220q0 -14 -3 -17t-17 -3h-504q-14 0 -17 -3t-3 -17v-206q0 -14 3 -17t17 -3h534q14 0 17 -3t3 -17v-224q0 -14 -3 -17 t-17 -3h-826q-14 0 -17 3t-3 17v1360zM738 1520q8 -10 8 -16q0 -4 -14 -4h-176q-14 0 -22 6t-16 14l-254 248q-12 12 -12 16t20 4h260q12 0 17 -4t15 -16z" />
<glyph unicode="&#xc9;" horiz-adv-x="1054" d="M118 1380q0 14 3 17t17 3h816q14 0 17 -3t3 -17v-224q0 -14 -3 -17t-17 -3h-524q-14 0 -17 -3t-3 -17v-326q0 -14 3 -17t17 -3h504q14 0 17 -3t3 -17v-220q0 -14 -3 -17t-17 -3h-504q-14 0 -17 -3t-3 -17v-206q0 -14 3 -17t17 -3h534q14 0 17 -3t3 -17v-224q0 -14 -3 -17 t-17 -3h-826q-14 0 -17 3t-3 17v1360zM486 1768q10 12 15 16t17 4h260q20 0 20 -4t-12 -16l-254 -248q-8 -8 -16 -14t-22 -6h-176q-14 0 -14 4q0 6 8 16z" />
<glyph unicode="&#xca;" horiz-adv-x="1054" d="M118 1380q0 14 3 17t17 3h816q14 0 17 -3t3 -17v-224q0 -14 -3 -17t-17 -3h-524q-14 0 -17 -3t-3 -17v-326q0 -14 3 -17t17 -3h504q14 0 17 -3t3 -17v-220q0 -14 -3 -17t-17 -3h-504q-14 0 -17 -3t-3 -17v-206q0 -14 3 -17t17 -3h534q14 0 17 -3t3 -17v-224q0 -14 -3 -17 t-17 -3h-826q-14 0 -17 3t-3 17v1360zM378 1768q10 12 18 16t20 4h212q22 0 38 -20l216 -248q6 -8 6 -14t-12 -6h-184q-14 0 -20 6l-14 14l-120 128q-4 4 -12 4t-12 -4l-116 -128l-14 -14t-20 -6h-188q-12 0 -12 6t6 14z" />
<glyph unicode="&#xcb;" horiz-adv-x="1054" d="M118 1380q0 14 3 17t17 3h816q14 0 17 -3t3 -17v-224q0 -14 -3 -17t-17 -3h-524q-14 0 -17 -3t-3 -17v-326q0 -14 3 -17t17 -3h504q14 0 17 -3t3 -17v-220q0 -14 -3 -17t-17 -3h-504q-14 0 -17 -3t-3 -17v-206q0 -14 3 -17t17 -3h534q14 0 17 -3t3 -17v-224q0 -14 -3 -17 t-17 -3h-826q-14 0 -17 3t-3 17v1360zM728 1532q-56 0 -97 39t-41 101q0 60 40 101t98 41q60 0 99 -42t39 -98q0 -58 -40 -100t-98 -42zM324 1532q-56 0 -97 39t-41 101q0 60 39 101t99 41t99 -42t39 -98q0 -58 -40 -100t-98 -42z" />
<glyph unicode="&#xcc;" horiz-adv-x="528" d="M118 1380q0 14 3 17t17 3h252q14 0 17 -3t3 -17v-1360q0 -14 -3 -17t-17 -3h-252q-14 0 -17 3t-3 17v1360zM430 1520q8 -10 8 -16q0 -4 -14 -4h-176q-14 0 -22 6t-16 14l-254 248q-12 12 -12 16t20 4h260q12 0 17 -4t15 -16z" />
<glyph unicode="&#xcd;" horiz-adv-x="528" d="M118 1380q0 14 3 17t17 3h252q14 0 17 -3t3 -17v-1360q0 -14 -3 -17t-17 -3h-252q-14 0 -17 3t-3 17v1360zM268 1768q10 12 15 16t17 4h260q20 0 20 -4t-12 -16l-254 -248q-8 -8 -16 -14t-22 -6h-176q-14 0 -14 4q0 6 8 16z" />
<glyph unicode="&#xce;" horiz-adv-x="528" d="M118 1380q0 14 3 17t17 3h252q14 0 17 -3t3 -17v-1360q0 -14 -3 -17t-17 -3h-252q-14 0 -17 3t-3 17v1360zM116 1768q10 12 18 16t20 4h212q22 0 38 -20l216 -248q6 -8 6 -14t-12 -6h-184q-14 0 -20 6l-14 14l-120 128q-4 4 -12 4t-12 -4l-116 -128l-14 -14t-20 -6h-188 q-12 0 -12 6t6 14z" />
<glyph unicode="&#xcf;" horiz-adv-x="528" d="M118 1380q0 14 3 17t17 3h252q14 0 17 -3t3 -17v-1360q0 -14 -3 -17t-17 -3h-252q-14 0 -17 3t-3 17v1360zM466 1532q-56 0 -97 39t-41 101q0 60 40 101t98 41q60 0 99 -42t39 -98q0 -58 -40 -100t-98 -42zM62 1532q-56 0 -97 39t-41 101q0 60 39 101t99 41t99 -42 t39 -98q0 -58 -40 -100t-98 -42z" />
<glyph unicode="&#xd0;" horiz-adv-x="1270" d="M500 1400q180 0 315 -50t225 -142t135 -221t45 -287q0 -156 -46 -284t-137 -221t-228 -144t-319 -51h-352q-14 0 -17 3t-3 17v490q0 14 -3 17t-17 3h-82q-14 0 -17 3t-3 17v184q0 14 4 17t16 3h82q14 0 17 3t3 17v606q0 14 3 17t17 3h362zM916 700q0 202 -93 316 t-305 114h-96q-14 0 -17 -3t-3 -17v-336q0 -14 4 -17t16 -3h176q14 0 17 -3t3 -17v-184q0 -14 -3 -17t-17 -3h-176q-14 0 -17 -3t-3 -17v-220q0 -14 3 -17t17 -3h96q204 0 301 112t97 318z" />
<glyph unicode="&#xd1;" horiz-adv-x="1222" d="M428 724q-6 6 -14 6q-16 0 -16 -12v-698q0 -14 -3 -17t-17 -3h-246q-14 0 -17 3t-3 17v1400q0 14 10 14q4 0 8 -1t12 -9l652 -750q6 -6 14 -6q16 0 16 12v700q0 14 3 17t17 3h246q14 0 17 -3t3 -17v-1400q0 -14 -10 -14t-18 10zM952 1680q0 -80 -57 -137t-147 -57 q-64 0 -102 20t-64 45t-48 45t-54 20q-28 0 -48 -19t-20 -53v-12q0 -12 -3 -16t-17 -4h-114q-14 0 -17 4t-3 16v48q0 40 17 75t45 62t67 43t83 16q62 0 99 -20t62 -45t46 -45t53 -20q28 0 48 18t20 52v14q0 12 3 16t17 4h114q14 0 17 -4t3 -16v-50z" />
<glyph unicode="&#xd2;" horiz-adv-x="1540" d="M1476 700q0 -148 -55 -280t-150 -231t-224 -157t-277 -58t-277 58t-224 157t-150 231t-55 280t55 280t150 231t224 157t277 58t277 -58t224 -157t150 -231t55 -280zM370 700q0 -90 29 -169t82 -138t126 -94t163 -35t163 35t126 94t82 138t29 169t-29 169t-82 138t-126 94 t-163 35t-163 -35t-126 -94t-82 -138t-29 -169zM904 1520q8 -10 8 -16q0 -4 -14 -4h-176q-14 0 -22 6t-16 14l-254 248q-12 12 -12 16t20 4h260q12 0 17 -4t15 -16z" />
<glyph unicode="&#xd3;" horiz-adv-x="1540" d="M1476 700q0 -148 -55 -280t-150 -231t-224 -157t-277 -58t-277 58t-224 157t-150 231t-55 280t55 280t150 231t224 157t277 58t277 -58t224 -157t150 -231t55 -280zM370 700q0 -90 29 -169t82 -138t126 -94t163 -35t163 35t126 94t82 138t29 169t-29 169t-82 138t-126 94 t-163 35t-163 -35t-126 -94t-82 -138t-29 -169zM804 1768q10 12 15 16t17 4h260q20 0 20 -4t-12 -16l-254 -248q-8 -8 -16 -14t-22 -6h-176q-14 0 -14 4q0 6 8 16z" />
<glyph unicode="&#xd4;" horiz-adv-x="1540" d="M1476 700q0 -148 -55 -280t-150 -231t-224 -157t-277 -58t-277 58t-224 157t-150 231t-55 280t55 280t150 231t224 157t277 58t277 -58t224 -157t150 -231t55 -280zM370 700q0 -90 29 -169t82 -138t126 -94t163 -35t163 35t126 94t82 138t29 169t-29 169t-82 138t-126 94 t-163 35t-163 -35t-126 -94t-82 -138t-29 -169zM622 1768q10 12 18 16t20 4h212q22 0 38 -20l216 -248q6 -8 6 -14t-12 -6h-184q-14 0 -20 6l-14 14l-120 128q-4 4 -12 4t-12 -4l-116 -128l-14 -14t-20 -6h-188q-12 0 -12 6t6 14z" />
<glyph unicode="&#xd5;" horiz-adv-x="1540" d="M1476 700q0 -148 -55 -280t-150 -231t-224 -157t-277 -58t-277 58t-224 157t-150 231t-55 280t55 280t150 231t224 157t277 58t277 -58t224 -157t150 -231t55 -280zM370 700q0 -90 29 -169t82 -138t126 -94t163 -35t163 35t126 94t82 138t29 169t-29 169t-82 138t-126 94 t-163 35t-163 -35t-126 -94t-82 -138t-29 -169zM1118 1680q0 -80 -57 -137t-147 -57q-64 0 -102 20t-64 45t-48 45t-54 20q-28 0 -48 -19t-20 -53v-12q0 -12 -3 -16t-17 -4h-114q-14 0 -17 4t-3 16v48q0 40 17 75t45 62t67 43t83 16q62 0 99 -20t62 -45t46 -45t53 -20 q28 0 48 18t20 52v14q0 12 3 16t17 4h114q14 0 17 -4t3 -16v-50z" />
<glyph unicode="&#xd6;" horiz-adv-x="1540" d="M1476 700q0 -148 -55 -280t-150 -231t-224 -157t-277 -58t-277 58t-224 157t-150 231t-55 280t55 280t150 231t224 157t277 58t277 -58t224 -157t150 -231t55 -280zM370 700q0 -90 29 -169t82 -138t126 -94t163 -35t163 35t126 94t82 138t29 169t-29 169t-82 138t-126 94 t-163 35t-163 -35t-126 -94t-82 -138t-29 -169zM972 1532q-56 0 -97 39t-41 101q0 60 40 101t98 41q60 0 99 -42t39 -98q0 -58 -40 -100t-98 -42zM568 1532q-56 0 -97 39t-41 101q0 60 39 101t99 41t99 -42t39 -98q0 -58 -40 -100t-98 -42z" />
<glyph unicode="&#xd7;" horiz-adv-x="1040" d="M506 614q3 -6 7 -8t7 -2q5 0 8 2.5t8 7.5l256 256q8 8 12 8q6 0 14 -8l94 -94q8 -8 8 -13t-8 -13l-256 -256l-4 -4q-6 -6 -6 -12t10 -16l256 -256q3 -5 5.5 -6t2.5 -6q0 -2 -0.5 -4t-3.5 -4l-104 -104q-4 -4 -6 -4q-4 0 -14 10l-256 254q-3 6 -8 6q-6 5 -11 4t-11 -10 l-262 -260q-4 -4 -8 -4q-5 0 -11 6t-11 14l-74 74q-6 5 -12 11t-6 11q0 2 1.5 5.5t6.5 6.5l256 256l3 4.5t1 3.5q5 6 4.5 11t-8.5 13l-256 256q-6 6 -8 10t4 10l104 104q6 6 10.5 3.5t9.5 -7.5z" />
<glyph unicode="&#xd8;" horiz-adv-x="1540" d="M1476 700q0 -148 -55 -280t-150 -231t-224 -157t-277 -58q-114 0 -216 34t-188 96l-126 -140q-4 -6 -10 -6t-14 6l-122 108q-6 6 -6 12t6 12l128 144q-76 96 -117 212t-41 248q0 148 55 280t150 231t224 157t277 58q114 0 216 -34t188 -96l126 140q2 6 10 6q4 0 14 -6 l122 -108q6 -6 6 -12t-6 -12l-130 -146q76 -96 118 -212t42 -246zM370 700q0 -124 56 -230h4q4 0 10 6l530 588q6 6 6 8q0 4 -6 10q-44 26 -94 40t-106 14q-90 0 -163 -35t-126 -94t-82 -138t-29 -169zM564 326q0 -4 2 -6q90 -56 204 -56q90 0 163 35t126 94t82 138t29 169 q0 126 -56 228q-2 2 -4 2q-4 0 -10 -6l-530 -590q-6 -6 -6 -8z" />
<glyph unicode="&#xd9;" horiz-adv-x="1266" d="M858 1380q0 14 3 17t17 3h252q14 0 17 -3t3 -17v-948q0 -114 -42 -200t-113 -143t-165 -86t-196 -29t-196 29t-165 86t-113 143t-42 200v948q0 14 3 17t17 3h252q14 0 17 -3t3 -17v-872q0 -68 17 -114t47 -75t71 -42t89 -13q98 0 161 54t63 190v872zM748 1550 q8 -10 8 -16q0 -4 -14 -4h-176q-14 0 -22 6t-16 14l-254 248q-12 12 -12 16t20 4h260q12 0 17 -4t15 -16z" />
<glyph unicode="&#xda;" horiz-adv-x="1266" d="M858 1380q0 14 3 17t17 3h252q14 0 17 -3t3 -17v-948q0 -114 -42 -200t-113 -143t-165 -86t-196 -29t-196 29t-165 86t-113 143t-42 200v948q0 14 3 17t17 3h252q14 0 17 -3t3 -17v-872q0 -68 17 -114t47 -75t71 -42t89 -13q98 0 161 54t63 190v872zM668 1768 q10 12 15 16t17 4h260q20 0 20 -4t-12 -16l-254 -248q-8 -8 -16 -14t-22 -6h-176q-14 0 -14 4q0 6 8 16z" />
<glyph unicode="&#xdb;" horiz-adv-x="1266" d="M858 1380q0 14 3 17t17 3h252q14 0 17 -3t3 -17v-948q0 -114 -42 -200t-113 -143t-165 -86t-196 -29t-196 29t-165 86t-113 143t-42 200v948q0 14 3 17t17 3h252q14 0 17 -3t3 -17v-872q0 -68 17 -114t47 -75t71 -42t89 -13q98 0 161 54t63 190v872zM484 1768 q10 12 18 16t20 4h212q22 0 38 -20l216 -248q6 -8 6 -14t-12 -6h-184q-14 0 -20 6l-14 14l-120 128q-4 4 -12 4t-12 -4l-116 -128l-14 -14t-20 -6h-188q-12 0 -12 6t6 14z" />
<glyph unicode="&#xdc;" horiz-adv-x="1266" d="M858 1380q0 14 3 17t17 3h252q14 0 17 -3t3 -17v-948q0 -114 -42 -200t-113 -143t-165 -86t-196 -29t-196 29t-165 86t-113 143t-42 200v948q0 14 3 17t17 3h252q14 0 17 -3t3 -17v-872q0 -68 17 -114t47 -75t71 -42t89 -13q98 0 161 54t63 190v872zM834 1494 q-56 0 -97 39t-41 101q0 60 40 101t98 41q60 0 99 -42t39 -98q0 -58 -40 -100t-98 -42zM430 1494q-56 0 -97 39t-41 101q0 60 39 101t99 41t99 -42t39 -98q0 -58 -40 -100t-98 -42z" />
<glyph unicode="&#xdd;" horiz-adv-x="1192" d="M450 644l-438 736q-4 8 -4 12q0 8 12 8h292q16 0 26 -20l250 -432q2 -6 10 -6q6 0 10 6l252 432q8 14 12 17t14 3h286q12 0 12 -8q0 -4 -4 -12l-438 -736v-624q0 -14 -3 -17t-17 -3h-252q-14 0 -17 3t-3 17v624zM630 1768q10 12 15 16t17 4h260q20 0 20 -4t-12 -16 l-254 -248q-8 -8 -16 -14t-22 -6h-176q-14 0 -14 4q0 6 8 16z" />
<glyph unicode="&#xde;" horiz-adv-x="1128" d="M386 1400q14 0 17 -3t3 -17v-210q0 -14 3 -17t17 -3h168q106 0 193 -31t149 -88t96 -139t34 -184q0 -100 -34 -183t-95 -142t-148 -92t-193 -33h-170q-14 0 -17 -3t-3 -17v-218q0 -14 -3 -17t-17 -3h-250q-14 0 -17 3t-3 17v1360q0 14 3 17t17 3h250zM426 912 q-14 0 -17 -3t-3 -17v-374q0 -14 3 -17t17 -3h156q86 0 135 58t49 148q0 96 -52 152t-150 56h-138z" />
<glyph unicode="&#xdf;" horiz-adv-x="1092" d="M110 0q-14 0 -17 4t-3 16v1148q0 82 31 148t84 112t126 71t157 25q206 0 315 -96t109 -262q0 -90 -39 -152t-91 -104q-6 -4 -6 -10t10 -10q50 -22 100 -55t89 -82t63 -119t24 -166q0 -114 -37 -205t-106 -154t-166 -97t-217 -34h-36q-14 0 -17 4t-3 16v182q0 12 3 16 t17 4h36q126 0 196 69t70 195q0 54 -18 103t-53 86t-88 58t-125 21h-32q-14 0 -17 4t-3 16v172q0 12 3 16t17 4h40q58 10 99 59t41 119q0 76 -37 131t-127 55q-64 0 -109 -43t-45 -123v-1122q0 -12 -3 -16t-17 -4h-218v0z" />
<glyph unicode="&#xe0;" horiz-adv-x="960" d="M620 298q0 52 -45 87t-115 35q-72 0 -116 -33t-44 -89q0 -58 44 -91t116 -33q70 0 115 35t45 89zM46 280q0 146 95 227t251 81q74 0 124 -14t88 -42q4 -2 8 -2q8 0 8 16v20q0 76 -41 108t-137 32q-62 0 -117 -16t-99 -40q-12 -6 -16 -6q-10 0 -10 16v164q0 16 16 24 q36 18 104 37t152 19q116 0 178 -16t110 -52q34 -26 56 -59t34 -82t17 -117t5 -160v-398q0 -12 -3 -16t-17 -4h-202q-14 0 -17 4t-3 16v64q0 4 -8 4q-6 0 -8 -2q-48 -56 -110 -81t-154 -25q-66 0 -121 22t-96 62t-64 95t-23 121zM654 1032q8 -10 8 -16q0 -4 -14 -4h-176 q-14 0 -22 6t-16 14l-254 248q-12 12 -12 16t20 4h260q12 0 17 -4t15 -16z" />
<glyph unicode="&#xe1;" horiz-adv-x="960" d="M620 298q0 52 -45 87t-115 35q-72 0 -116 -33t-44 -89q0 -58 44 -91t116 -33q70 0 115 35t45 89zM46 280q0 146 95 227t251 81q74 0 124 -14t88 -42q4 -2 8 -2q8 0 8 16v20q0 76 -41 108t-137 32q-62 0 -117 -16t-99 -40q-12 -6 -16 -6q-10 0 -10 16v164q0 16 16 24 q36 18 104 37t152 19q116 0 178 -16t110 -52q34 -26 56 -59t34 -82t17 -117t5 -160v-398q0 -12 -3 -16t-17 -4h-202q-14 0 -17 4t-3 16v64q0 4 -8 4q-6 0 -8 -2q-48 -56 -110 -81t-154 -25q-66 0 -121 22t-96 62t-64 95t-23 121zM534 1280q10 12 15 16t17 4h260q20 0 20 -4 t-12 -16l-254 -248q-8 -8 -16 -14t-22 -6h-176q-14 0 -14 4q0 6 8 16z" />
<glyph unicode="&#xe2;" horiz-adv-x="960" d="M620 298q0 52 -45 87t-115 35q-72 0 -116 -33t-44 -89q0 -58 44 -91t116 -33q70 0 115 35t45 89zM46 280q0 146 95 227t251 81q74 0 124 -14t88 -42q4 -2 8 -2q8 0 8 16v20q0 76 -41 108t-137 32q-62 0 -117 -16t-99 -40q-12 -6 -16 -6q-10 0 -10 16v164q0 16 16 24 q36 18 104 37t152 19q116 0 178 -16t110 -52q34 -26 56 -59t34 -82t17 -117t5 -160v-398q0 -12 -3 -16t-17 -4h-202q-14 0 -17 4t-3 16v64q0 4 -8 4q-6 0 -8 -2q-48 -56 -110 -81t-154 -25q-66 0 -121 22t-96 62t-64 95t-23 121zM332 1280q10 12 18 16t20 4h212q22 0 38 -20 l216 -248q6 -8 6 -14t-12 -6h-184q-14 0 -20 6l-14 14l-120 128q-4 4 -12 4t-12 -4l-116 -128l-14 -14t-20 -6h-188q-12 0 -12 6t6 14z" />
<glyph unicode="&#xe3;" horiz-adv-x="960" d="M620 298q0 52 -45 87t-115 35q-72 0 -116 -33t-44 -89q0 -58 44 -91t116 -33q70 0 115 35t45 89zM46 280q0 146 95 227t251 81q74 0 124 -14t88 -42q4 -2 8 -2q8 0 8 16v20q0 76 -41 108t-137 32q-62 0 -117 -16t-99 -40q-12 -6 -16 -6q-10 0 -10 16v164q0 16 16 24 q36 18 104 37t152 19q116 0 178 -16t110 -52q34 -26 56 -59t34 -82t17 -117t5 -160v-398q0 -12 -3 -16t-17 -4h-202q-14 0 -17 4t-3 16v64q0 4 -8 4q-6 0 -8 -2q-48 -56 -110 -81t-154 -25q-66 0 -121 22t-96 62t-64 95t-23 121zM844 1204q0 -80 -57 -137t-147 -57 q-64 0 -102 20t-64 45t-48 45t-54 20q-28 0 -48 -19t-20 -53v-12q0 -12 -3 -16t-17 -4h-114q-14 0 -17 4t-3 16v48q0 40 17 75t45 62t67 43t83 16q62 0 99 -20t62 -45t46 -45t53 -20q28 0 48 18t20 52v14q0 12 3 16t17 4h114q14 0 17 -4t3 -16v-50z" />
<glyph unicode="&#xe4;" horiz-adv-x="960" d="M620 298q0 52 -45 87t-115 35q-72 0 -116 -33t-44 -89q0 -58 44 -91t116 -33q70 0 115 35t45 89zM46 280q0 146 95 227t251 81q74 0 124 -14t88 -42q4 -2 8 -2q8 0 8 16v20q0 76 -41 108t-137 32q-62 0 -117 -16t-99 -40q-12 -6 -16 -6q-10 0 -10 16v164q0 16 16 24 q36 18 104 37t152 19q116 0 178 -16t110 -52q34 -26 56 -59t34 -82t17 -117t5 -160v-398q0 -12 -3 -16t-17 -4h-202q-14 0 -17 4t-3 16v64q0 4 -8 4q-6 0 -8 -2q-48 -56 -110 -81t-154 -25q-66 0 -121 22t-96 62t-64 95t-23 121zM702 1044q-56 0 -97 39t-41 101q0 60 40 101 t98 41q60 0 99 -42t39 -98q0 -58 -40 -100t-98 -42zM298 1044q-56 0 -97 39t-41 101q0 60 39 101t99 41t99 -42t39 -98q0 -58 -40 -100t-98 -42z" />
<glyph unicode="&#xe5;" horiz-adv-x="960" d="M620 298q0 52 -45 87t-115 35q-72 0 -116 -33t-44 -89q0 -58 44 -91t116 -33q70 0 115 35t45 89zM46 280q0 146 95 227t251 81q74 0 124 -14t88 -42q4 -2 8 -2q8 0 8 16v20q0 76 -41 108t-137 32q-62 0 -117 -16t-99 -40q-12 -6 -16 -6q-10 0 -10 16v164q0 16 16 24 q36 18 104 37t152 19q116 0 178 -16t110 -52q34 -26 56 -59t34 -82t17 -117t5 -160v-398q0 -12 -3 -16t-17 -4h-202q-14 0 -17 4t-3 16v64q0 4 -8 4q-6 0 -8 -2q-48 -56 -110 -81t-154 -25q-66 0 -121 22t-96 62t-64 95t-23 121zM498 1122q32 0 54 22t22 56q0 32 -21 54 t-55 22t-55 -22t-21 -56t22 -55t54 -21zM498 1008q-76 0 -133 51t-57 139q0 80 54 136t136 56q40 0 75 -15t60 -41t40 -61t15 -73q0 -40 -15 -74t-41 -61t-61 -42t-73 -15z" />
<glyph unicode="&#xe6;" horiz-adv-x="1520" d="M1042 706q-76 0 -130 -49t-62 -119q0 -14 3 -17t17 -3h336q14 0 18 3t2 17q-8 76 -53 122t-131 46zM724 142q0 4 -8 4q-6 0 -8 -2q-20 -28 -51 -58t-74 -54t-100 -39t-127 -15q-72 0 -130 23t-98 62t-61 93t-21 118q0 138 91 223t247 85q72 0 126 -19t82 -41q4 -2 8 -2 q8 0 8 16v28q0 148 -196 148q-82 0 -131 -22t-71 -38q-6 -6 -8 -6q-14 0 -14 16v160q0 16 27 31t66 26t85 17t86 6q70 0 119 -14t82 -35t53 -46t32 -49q2 -4 8 -4q4 0 8 4q44 56 115 100t179 44t186 -36t129 -102t76 -156t25 -198v-42q0 -12 -3 -16t-17 -4h-560 q-14 0 -18 -3t-4 -15q8 -70 69 -114t169 -44q64 0 134 19t112 53q4 2 6 4t6 2q8 0 8 -20v-164q0 -18 -29 -34t-73 -28t-95 -19t-93 -7q-128 0 -208 44t-144 120zM440 170q84 0 124 45t40 97q0 46 -45 83t-127 37q-66 0 -106 -34t-40 -98q0 -62 41 -96t113 -34z" />
<glyph unicode="&#xe7;" horiz-adv-x="828" d="M388 22q44 0 91 -13t85 -40t62 -66t24 -93q0 -102 -64 -171t-166 -69q-32 0 -78 9t-74 29q-12 10 -10 24l20 110q4 16 8 16q6 0 10 -4q22 -16 43 -25t51 -9q44 0 67 23t23 61q0 48 -32 70t-72 22q-12 0 -27 -1t-21 -1q-10 0 -13 2t-3 14l20 112h56zM748 22 q-22 -12 -51 -20t-61 -13t-63 -8t-57 -3q-100 0 -185 36t-148 98t-99 147t-36 185q0 98 36 183t99 146t148 96t185 35q56 0 119 -10t107 -30q10 -4 13 -8t3 -12v-212q0 -16 -10 -16q-4 0 -10 4q-36 28 -83 44t-111 16q-112 0 -174 -66t-62 -170t60 -173t176 -69q68 0 116 19 t86 49q2 2 8 2q10 0 10 -14v-216q0 -8 -3 -12t-13 -8z" />
<glyph unicode="&#xe8;" horiz-adv-x="986" d="M316 330q8 -70 69 -110t173 -40q68 0 136 19t112 53q4 4 12 4t8 -20v-174q0 -12 -20 -26q-18 -12 -49 -23t-68 -19t-78 -12t-77 -4q-110 0 -199 36t-151 98t-95 147t-33 185q0 98 32 182t90 146t139 97t179 35q104 0 185 -35t137 -98t84 -150t28 -193v-32q0 -30 -3 -39 t-19 -9h-570q-14 0 -18 -3t-4 -15zM490 700q-76 0 -126 -42t-58 -112q0 -14 3 -17t17 -3h328q16 0 19 3t1 17q-8 70 -54 112t-130 42zM668 1032q8 -10 8 -16q0 -4 -14 -4h-176q-14 0 -22 6t-16 14l-254 248q-12 12 -12 16t20 4h260q12 0 17 -4t15 -16z" />
<glyph unicode="&#xe9;" horiz-adv-x="986" d="M316 330q8 -70 69 -110t173 -40q68 0 136 19t112 53q4 4 12 4t8 -20v-174q0 -12 -20 -26q-18 -12 -49 -23t-68 -19t-78 -12t-77 -4q-110 0 -199 36t-151 98t-95 147t-33 185q0 98 32 182t90 146t139 97t179 35q104 0 185 -35t137 -98t84 -150t28 -193v-32q0 -30 -3 -39 t-19 -9h-570q-14 0 -18 -3t-4 -15zM490 700q-76 0 -126 -42t-58 -112q0 -14 3 -17t17 -3h328q16 0 19 3t1 17q-8 70 -54 112t-130 42zM548 1280q10 12 15 16t17 4h260q20 0 20 -4t-12 -16l-254 -248q-8 -8 -16 -14t-22 -6h-176q-14 0 -14 4q0 6 8 16z" />
<glyph unicode="&#xea;" horiz-adv-x="986" d="M316 330q8 -70 69 -110t173 -40q68 0 136 19t112 53q4 4 12 4t8 -20v-174q0 -12 -20 -26q-18 -12 -49 -23t-68 -19t-78 -12t-77 -4q-110 0 -199 36t-151 98t-95 147t-33 185q0 98 32 182t90 146t139 97t179 35q104 0 185 -35t137 -98t84 -150t28 -193v-32q0 -30 -3 -39 t-19 -9h-570q-14 0 -18 -3t-4 -15zM490 700q-76 0 -126 -42t-58 -112q0 -14 3 -17t17 -3h328q16 0 19 3t1 17q-8 70 -54 112t-130 42zM344 1280q10 12 18 16t20 4h212q22 0 38 -20l216 -248q6 -8 6 -14t-12 -6h-184q-14 0 -20 6l-14 14l-120 128q-4 4 -12 4t-12 -4 l-116 -128l-14 -14t-20 -6h-188q-12 0 -12 6t6 14z" />
<glyph unicode="&#xeb;" horiz-adv-x="986" d="M316 330q8 -70 69 -110t173 -40q68 0 136 19t112 53q4 4 12 4t8 -20v-174q0 -12 -20 -26q-18 -12 -49 -23t-68 -19t-78 -12t-77 -4q-110 0 -199 36t-151 98t-95 147t-33 185q0 98 32 182t90 146t139 97t179 35q104 0 185 -35t137 -98t84 -150t28 -193v-32q0 -30 -3 -39 t-19 -9h-570q-14 0 -18 -3t-4 -15zM490 700q-76 0 -126 -42t-58 -112q0 -14 3 -17t17 -3h328q16 0 19 3t1 17q-8 70 -54 112t-130 42zM694 1044q-56 0 -97 39t-41 101q0 60 40 101t98 41q60 0 99 -42t39 -98q0 -58 -40 -100t-98 -42zM290 1044q-56 0 -97 39t-41 101 q0 60 39 101t99 41t99 -42t39 -98q0 -58 -40 -100t-98 -42z" />
<glyph unicode="&#xec;" horiz-adv-x="446" d="M94 862q0 12 3 16t17 4h218q14 0 17 -4t3 -16v-842q0 -12 -3 -16t-17 -4h-218q-14 0 -17 4t-3 16v842zM202 1012q-16 0 -23 4t-19 16l-214 250q-10 10 -10 16q0 4 18 4h240q22 0 32 -20l134 -250q6 -10 6 -14q0 -6 -14 -6h-150z" />
<glyph unicode="&#xed;" horiz-adv-x="446" d="M94 862q0 12 3 16t17 4h218q14 0 17 -4t3 -16v-842q0 -12 -3 -16t-17 -4h-218q-14 0 -17 4t-3 16v842zM92 1012q-14 0 -14 6q0 4 6 14l134 250q10 20 32 20h240q18 0 18 -4q0 -6 -10 -16l-214 -250q-12 -12 -19 -16t-23 -4h-150v0z" />
<glyph unicode="&#xee;" horiz-adv-x="446" d="M94 862q0 12 3 16t17 4h218q14 0 17 -4t3 -16v-842q0 -12 -3 -16t-17 -4h-218q-14 0 -17 4t-3 16v842zM74 1282q10 12 18 16t20 4h212q22 0 38 -20l156 -250q6 -8 6 -14t-12 -6h-164q-14 0 -20 6l-14 14l-80 130q-4 4 -12 4t-12 -4l-76 -130l-14 -14t-20 -6h-168 q-12 0 -12 6t6 14z" />
<glyph unicode="&#xef;" horiz-adv-x="446" d="M94 862q0 12 3 16t17 4h218q14 0 17 -4t3 -16v-842q0 -12 -3 -16t-17 -4h-218q-14 0 -17 4t-3 16v842zM398 1038q-52 0 -91 37t-39 95q0 56 38 95t92 39q58 0 94 -40t36 -92q0 -56 -37 -95t-93 -39zM46 1038q-52 0 -91 37t-39 95q0 56 36 95t94 39q56 0 93 -40t37 -92 q0 -56 -38 -95t-92 -39z" />
<glyph unicode="&#xf0;" horiz-adv-x="1054" d="M304 440q0 -50 15 -93t44 -76t70 -52t93 -19t92 19t68 52t43 76t15 93q0 48 -15 91t-43 76t-68 53t-92 20t-93 -20t-70 -53t-44 -76t-15 -91zM682 1190q142 -170 225 -349t85 -395v-6q0 -98 -36 -182t-99 -146t-148 -97t-183 -35t-183 35t-149 97t-101 146t-37 182 t34 182t95 145t145 96t184 35q50 0 98 -22q6 0 6 6q0 4 -2 8l-30 54q-44 78 -98 144q-8 10 -13 11t-17 -5l-172 -98q-16 -10 -26 8q-2 2 -4 6t-8 15t-19 33t-33 58q-6 10 -5 15t11 13l142 80q14 8 14 11t-10 13q-34 34 -70 63t-76 63q-16 12 -2 26l110 110q12 14 26 2 q46 -34 94 -74t96 -90q14 -14 32 -4l188 110q16 10 26 -8l70 -120q6 -10 5 -15t-11 -13l-148 -82q-10 -6 -13 -11t7 -15z" />
<glyph unicode="&#xf1;" horiz-adv-x="1026" d="M938 20q0 -12 -3 -16t-17 -4h-218q-14 0 -17 4t-3 16v494q0 80 -34 122t-110 42q-90 0 -137 -62t-47 -164v-432q0 -12 -3 -16t-17 -4h-218q-14 0 -17 4t-3 16v842q0 12 3 16t17 4h218q14 0 17 -4t3 -16v-80q0 -4 8 -4q6 0 8 2q64 58 130 91t148 33q80 0 136 -26t90 -71 t50 -107t16 -132v-548zM852 1204q0 -80 -57 -137t-147 -57q-64 0 -102 20t-64 45t-48 45t-54 20q-28 0 -48 -19t-20 -53v-12q0 -12 -3 -16t-17 -4h-114q-14 0 -17 4t-3 16v48q0 40 17 75t45 62t67 43t83 16q62 0 99 -20t62 -45t46 -45t53 -20q28 0 48 18t20 52v14q0 12 3 16 t17 4h114q14 0 17 -4t3 -16v-50z" />
<glyph unicode="&#xf2;" horiz-adv-x="1068" d="M56 444q0 100 37 184t102 146t152 96t187 34t187 -34t152 -96t102 -146t37 -184t-37 -185t-102 -148t-152 -98t-187 -35t-187 35t-152 98t-102 148t-37 185zM316 444q0 -50 15 -94t43 -77t68 -52t92 -19t92 19t68 52t43 77t15 94q0 48 -15 91t-43 75t-68 51t-92 19 t-92 -19t-68 -51t-43 -75t-15 -91zM668 1032q8 -10 8 -16q0 -4 -14 -4h-176q-14 0 -22 6t-16 14l-254 248q-12 12 -12 16t20 4h260q12 0 17 -4t15 -16z" />
<glyph unicode="&#xf3;" horiz-adv-x="1068" d="M56 444q0 100 37 184t102 146t152 96t187 34t187 -34t152 -96t102 -146t37 -184t-37 -185t-102 -148t-152 -98t-187 -35t-187 35t-152 98t-102 148t-37 185zM316 444q0 -50 15 -94t43 -77t68 -52t92 -19t92 19t68 52t43 77t15 94q0 48 -15 91t-43 75t-68 51t-92 19 t-92 -19t-68 -51t-43 -75t-15 -91zM608 1280q10 12 15 16t17 4h260q20 0 20 -4t-12 -16l-254 -248q-8 -8 -16 -14t-22 -6h-176q-14 0 -14 4q0 6 8 16z" />
<glyph unicode="&#xf4;" horiz-adv-x="1068" d="M56 444q0 100 37 184t102 146t152 96t187 34t187 -34t152 -96t102 -146t37 -184t-37 -185t-102 -148t-152 -98t-187 -35t-187 35t-152 98t-102 148t-37 185zM316 444q0 -50 15 -94t43 -77t68 -52t92 -19t92 19t68 52t43 77t15 94q0 48 -15 91t-43 75t-68 51t-92 19 t-92 -19t-68 -51t-43 -75t-15 -91zM386 1280q10 12 18 16t20 4h212q22 0 38 -20l216 -248q6 -8 6 -14t-12 -6h-184q-14 0 -20 6l-14 14l-120 128q-4 4 -12 4t-12 -4l-116 -128l-14 -14t-20 -6h-188q-12 0 -12 6t6 14z" />
<glyph unicode="&#xf5;" horiz-adv-x="1068" d="M56 444q0 100 37 184t102 146t152 96t187 34t187 -34t152 -96t102 -146t37 -184t-37 -185t-102 -148t-152 -98t-187 -35t-187 35t-152 98t-102 148t-37 185zM316 444q0 -50 15 -94t43 -77t68 -52t92 -19t92 19t68 52t43 77t15 94q0 48 -15 91t-43 75t-68 51t-92 19 t-92 -19t-68 -51t-43 -75t-15 -91zM880 1204q0 -80 -57 -137t-147 -57q-64 0 -102 20t-64 45t-48 45t-54 20q-28 0 -48 -19t-20 -53v-12q0 -12 -3 -16t-17 -4h-114q-14 0 -17 4t-3 16v48q0 40 17 75t45 62t67 43t83 16q62 0 99 -20t62 -45t46 -45t53 -20q28 0 48 18t20 52 v14q0 12 3 16t17 4h114q14 0 17 -4t3 -16v-50z" />
<glyph unicode="&#xf6;" horiz-adv-x="1068" d="M56 444q0 100 37 184t102 146t152 96t187 34t187 -34t152 -96t102 -146t37 -184t-37 -185t-102 -148t-152 -98t-187 -35t-187 35t-152 98t-102 148t-37 185zM316 444q0 -50 15 -94t43 -77t68 -52t92 -19t92 19t68 52t43 77t15 94q0 48 -15 91t-43 75t-68 51t-92 19 t-92 -19t-68 -51t-43 -75t-15 -91zM736 1044q-56 0 -97 39t-41 101q0 60 40 101t98 41q60 0 99 -42t39 -98q0 -58 -40 -100t-98 -42zM332 1044q-56 0 -97 39t-41 101q0 60 39 101t99 41t99 -42t39 -98q0 -58 -40 -100t-98 -42z" />
<glyph unicode="&#xf7;" horiz-adv-x="1040" d="M518 -6q-25 0 -48.5 10t-41.5 27.5t-29 41t-11 51.5q0 26 10.5 50t28.5 42t41.5 29t49.5 11t49.5 -11t41.5 -29t28.5 -41.5t10.5 -48.5q0 -26 -11 -49.5t-29 -42t-41.5 -29.5t-48.5 -11zM518 688q-25 0 -48.5 10t-41.5 27.5t-29 41t-11 51.5q0 26 10.5 50t28.5 42 t41.5 29t49.5 11t49.5 -11t41.5 -29t28.5 -41.5t10.5 -48.5q0 -26 -11 -49.5t-29 -42t-41.5 -29.5t-48.5 -11zM950 566q14 0 17 -4t3 -16v-134q0 -12 -3 -16t-17 -4h-860q-14 0 -17 4t-3 16v134q0 12 3 16t17 4h860z" />
<glyph unicode="&#xf8;" horiz-adv-x="1068" d="M56 442q0 98 38 182t103 146t153 97t188 35q80 0 153 -23t131 -65l72 76q6 6 12 6q2 0 12 -6l64 -66q6 -6 6 -12t-6 -12l-70 -70q46 -60 73 -132t27 -156q0 -98 -37 -182t-102 -147t-152 -99t-187 -36q-84 0 -156 24t-132 66l-74 -76q-6 -6 -12 -6q-4 0 -12 6l-66 64 q-6 6 -6 12t6 12l74 74q-46 60 -73 132t-27 156zM764 442q0 64 -26 114l-334 -320q28 -16 59 -26t71 -10q54 0 97 19t73 52t45 77t15 94zM304 442q0 -58 26 -114l332 316q-52 36 -122 36q-56 0 -100 -19t-74 -52t-46 -76t-16 -91z" />
<glyph unicode="&#xf9;" horiz-adv-x="984" d="M492 -22q-100 0 -174 30t-122 81t-72 121t-24 152v500q0 12 3 16t17 4h218q14 0 17 -4t3 -16v-496q0 -88 36 -126t98 -38t98 38t36 126v496q0 12 3 16t17 4h218q14 0 17 -4t3 -16v-500q0 -82 -24 -152t-72 -121t-122 -81t-174 -30zM618 1032q8 -10 8 -16q0 -4 -14 -4 h-176q-14 0 -22 6t-16 14l-254 248q-12 12 -12 16t20 4h260q12 0 17 -4t15 -16z" />
<glyph unicode="&#xfa;" horiz-adv-x="984" d="M492 -22q-100 0 -174 30t-122 81t-72 121t-24 152v500q0 12 3 16t17 4h218q14 0 17 -4t3 -16v-496q0 -88 36 -126t98 -38t98 38t36 126v496q0 12 3 16t17 4h218q14 0 17 -4t3 -16v-500q0 -82 -24 -152t-72 -121t-122 -81t-174 -30zM534 1280q10 12 15 16t17 4h260 q20 0 20 -4t-12 -16l-254 -248q-8 -8 -16 -14t-22 -6h-176q-14 0 -14 4q0 6 8 16z" />
<glyph unicode="&#xfb;" horiz-adv-x="984" d="M492 -22q-100 0 -174 30t-122 81t-72 121t-24 152v500q0 12 3 16t17 4h218q14 0 17 -4t3 -16v-496q0 -88 36 -126t98 -38t98 38t36 126v496q0 12 3 16t17 4h218q14 0 17 -4t3 -16v-500q0 -82 -24 -152t-72 -121t-122 -81t-174 -30zM344 1280q10 12 18 16t20 4h212 q22 0 38 -20l216 -248q6 -8 6 -14t-12 -6h-184q-14 0 -20 6l-14 14l-120 128q-4 4 -12 4t-12 -4l-116 -128l-14 -14t-20 -6h-188q-12 0 -12 6t6 14z" />
<glyph unicode="&#xfc;" horiz-adv-x="984" d="M492 -22q-100 0 -174 30t-122 81t-72 121t-24 152v500q0 12 3 16t17 4h218q14 0 17 -4t3 -16v-496q0 -88 36 -126t98 -38t98 38t36 126v496q0 12 3 16t17 4h218q14 0 17 -4t3 -16v-500q0 -82 -24 -152t-72 -121t-122 -81t-174 -30zM694 1044q-56 0 -97 39t-41 101 q0 60 40 101t98 41q60 0 99 -42t39 -98q0 -58 -40 -100t-98 -42zM290 1044q-56 0 -97 39t-41 101q0 60 39 101t99 41t99 -42t39 -98q0 -58 -40 -100t-98 -42z" />
<glyph unicode="&#xfd;" horiz-adv-x="958" d="M470 348q2 -6 8 -6q4 0 8 6l208 514q6 12 10 16t16 4h230q18 0 18 -8l-4 -12q-136 -322 -270 -642t-270 -642q-6 -12 -10 -16t-16 -4h-228q-18 0 -18 8l4 12l182 442q4 10 4 18t-4 18l-334 806l-4 12q0 8 18 8h224q12 0 16 -4t10 -16zM494 1280q10 12 15 16t17 4h260 q20 0 20 -4t-12 -16l-254 -248q-8 -8 -16 -14t-22 -6h-176q-14 0 -14 4q0 6 8 16z" />
<glyph unicode="&#xfe;" horiz-adv-x="1100" d="M786 444q0 48 -15 91t-43 76t-69 52t-93 19t-93 -19t-70 -52t-44 -76t-15 -91q0 -50 15 -95t44 -78t70 -52t93 -19t93 19t69 52t43 78t15 95zM348 798q0 -4 8 -4q6 0 8 2q40 46 110 77t156 31q92 0 169 -37t132 -100t85 -146t30 -177t-30 -178t-85 -148t-132 -102 t-169 -38q-86 0 -156 32t-110 78q-2 2 -8 2q-8 0 -8 -4v-506q0 -12 -3 -16t-17 -4h-216q-14 0 -17 4t-3 16v1900q0 12 3 16t17 4h216q14 0 17 -4t3 -16v-682z" />
<glyph unicode="&#xff;" horiz-adv-x="958" d="M470 348q2 -6 8 -6q4 0 8 6l208 514q6 12 10 16t16 4h230q18 0 18 -8l-4 -12q-136 -322 -270 -642t-270 -642q-6 -12 -10 -16t-16 -4h-228q-18 0 -18 8l4 12l182 442q4 10 4 18t-4 18l-334 806l-4 12q0 8 18 8h224q12 0 16 -4t10 -16zM680 1044q-56 0 -97 39t-41 101 q0 60 40 101t98 41q60 0 99 -42t39 -98q0 -58 -40 -100t-98 -42zM276 1044q-56 0 -97 39t-41 101q0 60 39 101t99 41t99 -42t39 -98q0 -58 -40 -100t-98 -42z" />
<glyph unicode="&#x100;" horiz-adv-x="1212" d="M614 818q-4 6 -12 6q-10 0 -12 -6l-130 -362q-2 -4 -2 -10q0 -8 14 -8h262q16 0 16 6t-2 10zM584 1422q6 12 22 12q14 0 20 -12l584 -1402q2 -4 2 -12t-14 -8h-278q-12 0 -17 4t-9 16l-68 176q-4 14 -9 17t-15 3h-398q-18 0 -26 -20l-66 -176q-8 -20 -24 -20h-272 q-16 0 -16 8q0 4 4 12zM296 1700q0 14 4 17t16 3h620q14 0 17 -3t3 -17v-112q0 -14 -3 -17t-17 -3h-620q-14 0 -17 3t-3 17v112z" />
<glyph unicode="&#x101;" horiz-adv-x="960" d="M620 298q0 52 -45 87t-115 35q-72 0 -116 -33t-44 -89q0 -58 44 -91t116 -33q70 0 115 35t45 89zM46 280q0 146 95 227t251 81q74 0 124 -14t88 -42q4 -2 8 -2q8 0 8 16v20q0 76 -41 108t-137 32q-62 0 -117 -16t-99 -40q-12 -6 -16 -6q-10 0 -10 16v164q0 16 16 24 q36 18 104 37t152 19q116 0 178 -16t110 -52q34 -26 56 -59t34 -82t17 -117t5 -160v-398q0 -12 -3 -16t-17 -4h-202q-14 0 -17 4t-3 16v64q0 4 -8 4q-6 0 -8 -2q-48 -56 -110 -81t-154 -25q-66 0 -121 22t-96 62t-64 95t-23 121zM178 1212q0 14 4 17t16 3h620q14 0 17 -3 t3 -17v-112q0 -14 -3 -17t-17 -3h-620q-14 0 -17 3t-3 17v112z" />
<glyph unicode="&#x102;" horiz-adv-x="1212" d="M614 818q-4 6 -12 6q-10 0 -12 -6l-130 -362q-2 -4 -2 -10q0 -8 14 -8h262q16 0 16 6t-2 10zM584 1422q6 12 22 12q14 0 20 -12l584 -1402q2 -4 2 -12t-14 -8h-278q-12 0 -17 4t-9 16l-68 176q-4 14 -9 17t-15 3h-398q-18 0 -26 -20l-66 -176q-8 -20 -24 -20h-272 q-16 0 -16 8q0 4 4 12zM626 1646q54 0 88 27t46 95q4 20 26 20h146q16 0 12 -20q-24 -154 -110 -216t-208 -62t-208 62t-110 216q-6 20 12 20h146q22 0 26 -20q12 -68 48 -95t86 -27z" />
<glyph unicode="&#x103;" horiz-adv-x="960" d="M620 298q0 52 -45 87t-115 35q-72 0 -116 -33t-44 -89q0 -58 44 -91t116 -33q70 0 115 35t45 89zM46 280q0 146 95 227t251 81q74 0 124 -14t88 -42q4 -2 8 -2q8 0 8 16v20q0 76 -41 108t-137 32q-62 0 -117 -16t-99 -40q-12 -6 -16 -6q-10 0 -10 16v164q0 16 16 24 q36 18 104 37t152 19q116 0 178 -16t110 -52q34 -26 56 -59t34 -82t17 -117t5 -160v-398q0 -12 -3 -16t-17 -4h-202q-14 0 -17 4t-3 16v64q0 4 -8 4q-6 0 -8 -2q-48 -56 -110 -81t-154 -25q-66 0 -121 22t-96 62t-64 95t-23 121zM520 1160q54 0 88 27t46 95q4 20 26 20h146 q16 0 12 -20q-24 -154 -110 -216t-208 -62t-208 62t-110 216q-6 20 12 20h146q22 0 26 -20q12 -68 48 -95t86 -27z" />
<glyph unicode="&#x104;" horiz-adv-x="1212" d="M614 818q-4 6 -12 6q-10 0 -12 -6l-130 -362q-2 -4 -2 -10q0 -8 14 -8h262q16 0 16 6t-2 10zM584 1422q6 12 22 12q14 0 20 -12l584 -1402q2 -4 2 -12t-14 -8h-278q-12 0 -17 4t-9 16l-68 176q-4 14 -9 17t-15 3h-398q-18 0 -26 -20l-66 -176q-8 -20 -24 -20h-272 q-16 0 -16 8q0 4 4 12zM1098 -402q-54 0 -103 14t-86 41t-60 68t-23 93q0 64 31 119t85 107l162 -30q-34 -42 -59 -80t-35 -86q-8 -40 20 -66t74 -26q38 0 78 16q4 2 10 2q6 -2 6 -18v-116q0 -16 -14 -22q-36 -16 -86 -16z" />
<glyph unicode="&#x105;" horiz-adv-x="960" d="M620 298q0 52 -45 87t-115 35q-72 0 -116 -33t-44 -89q0 -58 44 -91t116 -33q70 0 115 35t45 89zM46 280q0 146 95 227t251 81q74 0 124 -14t88 -42q4 -2 8 -2q8 0 8 16v20q0 76 -41 108t-137 32q-62 0 -117 -16t-99 -40q-12 -6 -16 -6q-10 0 -10 16v164q0 16 16 24 q36 18 104 37t152 19q116 0 178 -16t110 -52q34 -26 56 -59t34 -82t17 -117t5 -160v-398q0 -12 -3 -16t-17 -4h-202q-14 0 -17 4t-3 16v64q0 4 -8 4q-6 0 -8 -2q-48 -56 -110 -81t-154 -25q-66 0 -121 22t-96 62t-64 95t-23 121zM802 -402q-54 0 -103 14t-86 41t-60 68 t-23 93q0 64 31 119t85 107l162 -30q-34 -42 -59 -80t-35 -86q-8 -40 20 -66t74 -26q38 0 78 16q4 2 10 2q6 -2 6 -18v-116q0 -16 -14 -22q-36 -16 -86 -16z" />
<glyph unicode="&#x106;" horiz-adv-x="1250" d="M790 -26q-168 0 -302 57t-228 156t-145 231t-51 282q0 146 50 278t144 231t229 158t303 59q96 0 188 -23t164 -59q16 -8 16 -20v-302q0 -14 -8 -14q-6 0 -10 4q-58 60 -146 92t-188 32q-108 0 -189 -35t-136 -95t-83 -139t-28 -167t28 -167t83 -139t136 -95t187 -35 q100 0 189 32t147 92q4 4 10 4q8 0 8 -14v-302q0 -12 -16 -20q-72 -36 -164 -59t-188 -23zM762 1768q10 12 15 16t17 4h260q20 0 20 -4t-12 -16l-254 -248q-8 -8 -16 -14t-22 -6h-176q-14 0 -14 4q0 6 8 16z" />
<glyph unicode="&#x107;" horiz-adv-x="828" d="M748 22q-22 -12 -51 -20t-61 -13t-63 -8t-57 -3q-100 0 -185 36t-148 98t-99 147t-36 185q0 98 36 183t99 146t148 96t185 35q56 0 119 -10t107 -30q10 -4 13 -8t3 -12v-212q0 -16 -10 -16q-4 0 -10 4q-36 28 -83 44t-111 16q-112 0 -174 -66t-62 -170t60 -173t176 -69 q68 0 116 19t86 49q2 2 8 2q10 0 10 -14v-216q0 -8 -3 -12t-13 -8zM506 1280q10 12 15 16t17 4h260q20 0 20 -4t-12 -16l-254 -248q-8 -8 -16 -14t-22 -6h-176q-14 0 -14 4q0 6 8 16z" />
<glyph unicode="&#x108;" horiz-adv-x="1250" d="M790 -26q-168 0 -302 57t-228 156t-145 231t-51 282q0 146 50 278t144 231t229 158t303 59q96 0 188 -23t164 -59q16 -8 16 -20v-302q0 -14 -8 -14q-6 0 -10 4q-58 60 -146 92t-188 32q-108 0 -189 -35t-136 -95t-83 -139t-28 -167t28 -167t83 -139t136 -95t187 -35 q100 0 189 32t147 92q4 4 10 4q8 0 8 -14v-302q0 -12 -16 -20q-72 -36 -164 -59t-188 -23zM580 1768q10 12 18 16t20 4h212q22 0 38 -20l216 -248q6 -8 6 -14t-12 -6h-184q-14 0 -20 6l-14 14l-120 128q-4 4 -12 4t-12 -4l-116 -128l-14 -14t-20 -6h-188q-12 0 -12 6t6 14z " />
<glyph unicode="&#x109;" horiz-adv-x="828" d="M748 22q-22 -12 -51 -20t-61 -13t-63 -8t-57 -3q-100 0 -185 36t-148 98t-99 147t-36 185q0 98 36 183t99 146t148 96t185 35q56 0 119 -10t107 -30q10 -4 13 -8t3 -12v-212q0 -16 -10 -16q-4 0 -10 4q-36 28 -83 44t-111 16q-112 0 -174 -66t-62 -170t60 -173t176 -69 q68 0 116 19t86 49q2 2 8 2q10 0 10 -14v-216q0 -8 -3 -12t-13 -8zM318 1280q10 12 18 16t20 4h212q22 0 38 -20l216 -248q6 -8 6 -14t-12 -6h-184q-14 0 -20 6l-14 14l-120 128q-4 4 -12 4t-12 -4l-116 -128l-14 -14t-20 -6h-188q-12 0 -12 6t6 14z" />
<glyph unicode="&#x10a;" horiz-adv-x="1250" d="M790 -26q-168 0 -302 57t-228 156t-145 231t-51 282q0 146 50 278t144 231t229 158t303 59q96 0 188 -23t164 -59q16 -8 16 -20v-302q0 -14 -8 -14q-6 0 -10 4q-58 60 -146 92t-188 32q-108 0 -189 -35t-136 -95t-83 -139t-28 -167t28 -167t83 -139t136 -95t187 -35 q100 0 189 32t147 92q4 4 10 4q8 0 8 -14v-302q0 -12 -16 -20q-72 -36 -164 -59t-188 -23zM554 1646q0 66 44 110t110 44t110 -44t44 -110t-44 -110t-110 -44t-110 44t-44 110z" />
<glyph unicode="&#x10b;" horiz-adv-x="828" d="M748 22q-22 -12 -51 -20t-61 -13t-63 -8t-57 -3q-100 0 -185 36t-148 98t-99 147t-36 185q0 98 36 183t99 146t148 96t185 35q56 0 119 -10t107 -30q10 -4 13 -8t3 -12v-212q0 -16 -10 -16q-4 0 -10 4q-36 28 -83 44t-111 16q-112 0 -174 -66t-62 -170t60 -173t176 -69 q68 0 116 19t86 49q2 2 8 2q10 0 10 -14v-216q0 -8 -3 -12t-13 -8zM346 1202q0 66 44 110t110 44t110 -44t44 -110t-44 -110t-110 -44t-110 44t-44 110z" />
<glyph unicode="&#x10c;" horiz-adv-x="1250" d="M790 -26q-168 0 -302 57t-228 156t-145 231t-51 282q0 146 50 278t144 231t229 158t303 59q96 0 188 -23t164 -59q16 -8 16 -20v-302q0 -14 -8 -14q-6 0 -10 4q-58 60 -146 92t-188 32q-108 0 -189 -35t-136 -95t-83 -139t-28 -167t28 -167t83 -139t136 -95t187 -35 q100 0 189 32t147 92q4 4 10 4q8 0 8 -14v-302q0 -12 -16 -20q-72 -36 -164 -59t-188 -23zM898 1520q-16 -20 -38 -20h-212q-24 0 -38 20l-216 248q-6 8 -6 14t12 6h184q14 0 20 -6l14 -14l120 -128q4 -4 12 -4t12 4l116 128l14 14t20 6h188q12 0 12 -6t-6 -14z" />
<glyph unicode="&#x10d;" horiz-adv-x="828" d="M748 22q-22 -12 -51 -20t-61 -13t-63 -8t-57 -3q-100 0 -185 36t-148 98t-99 147t-36 185q0 98 36 183t99 146t148 96t185 35q56 0 119 -10t107 -30q10 -4 13 -8t3 -12v-212q0 -16 -10 -16q-4 0 -10 4q-36 28 -83 44t-111 16q-112 0 -174 -66t-62 -170t60 -173t176 -69 q68 0 116 19t86 49q2 2 8 2q10 0 10 -14v-216q0 -8 -3 -12t-13 -8zM614 1032q-16 -20 -38 -20h-212q-24 0 -38 20l-216 248q-6 8 -6 14t12 6h184q14 0 20 -6l14 -14l120 -128q4 -4 12 -4t12 4l116 128l14 14t20 6h188q12 0 12 -6t-6 -14z" />
<glyph unicode="&#x10e;" horiz-adv-x="1274" d="M528 1400q176 0 304 -54t212 -149t125 -223t41 -274q0 -160 -47 -289t-140 -220t-233 -141t-324 -50h-328q-14 0 -17 3t-3 17v1360q0 14 3 17t17 3h390zM904 700q0 96 -22 177t-68 138t-118 89t-172 32h-94q-14 0 -17 -3t-3 -17v-832q0 -14 3 -17t17 -3h94q98 0 169 32 t118 89t70 138t23 177zM696 1520q-16 -20 -38 -20h-212q-24 0 -38 20l-216 248q-6 8 -6 14t12 6h184q14 0 20 -6l14 -14l120 -128q4 -4 12 -4t12 4l116 128l14 14t20 6h188q12 0 12 -6t-6 -14z" />
<glyph unicode="&#x10f;" horiz-adv-x="1100" d="M752 442q0 48 -15 91t-43 76t-69 52t-91 19q-52 0 -94 -19t-70 -52t-43 -76t-15 -91q0 -50 15 -94t43 -77t70 -52t94 -19q50 0 91 19t69 52t43 77t15 94zM750 1480q0 12 3 16t17 4h218q14 0 17 -4t3 -16v-1460q0 -12 -3 -16t-17 -4h-218q-14 0 -17 4t-3 16v66q0 4 -8 4 q-6 0 -8 -2q-40 -46 -110 -78t-156 -32q-94 0 -170 36t-131 98t-85 147t-30 183t30 182t85 146t131 97t170 35q86 0 156 -31t110 -77q2 -2 8 -2q8 0 8 4v684zM1092 1480q2 12 4 16t16 4h194q26 0 18 -20l-96 -324q-4 -12 -8 -16t-18 -4h-114q-20 0 -20 20z" />
<glyph unicode="&#x110;" horiz-adv-x="1270" d="M500 1400q180 0 315 -50t225 -142t135 -221t45 -287q0 -156 -46 -284t-137 -221t-228 -144t-319 -51h-352q-14 0 -17 3t-3 17v490q0 14 -3 17t-17 3h-82q-14 0 -17 3t-3 17v184q0 14 4 17t16 3h82q14 0 17 3t3 17v606q0 14 3 17t17 3h362zM916 700q0 202 -93 316 t-305 114h-96q-14 0 -17 -3t-3 -17v-336q0 -14 4 -17t16 -3h176q14 0 17 -3t3 -17v-184q0 -14 -3 -17t-17 -3h-176q-14 0 -17 -3t-3 -17v-220q0 -14 3 -17t17 -3h96q204 0 301 112t97 318z" />
<glyph unicode="&#x111;" horiz-adv-x="1100" d="M750 1056q0 14 -3 17t-17 3h-162q-14 0 -17 4t-3 16v124q0 12 3 16t17 4h162q14 0 17 3t3 17v220q0 12 3 16t17 4h218q14 0 17 -4t3 -16v-220q0 -14 3 -17t17 -3h68q14 0 17 -4t3 -16v-124q0 -12 -3 -16t-17 -4h-68q-14 0 -17 -3t-3 -17v-1036q0 -12 -3 -16t-17 -4h-218 q-14 0 -17 4t-3 16v66q0 4 -8 4q-6 0 -8 -2q-40 -46 -110 -78t-156 -32q-94 0 -170 36t-131 98t-85 147t-30 183t30 182t85 146t131 97t170 35q86 0 156 -31t110 -77q2 -2 8 -2q8 0 8 4v260zM752 442q0 48 -15 91t-43 76t-69 52t-91 19q-52 0 -94 -19t-70 -52t-43 -76 t-15 -91q0 -50 15 -94t43 -77t70 -52t94 -19q50 0 91 19t69 52t43 77t15 94z" />
<glyph unicode="&#x112;" horiz-adv-x="1054" d="M118 1380q0 14 3 17t17 3h816q14 0 17 -3t3 -17v-224q0 -14 -3 -17t-17 -3h-524q-14 0 -17 -3t-3 -17v-326q0 -14 3 -17t17 -3h504q14 0 17 -3t3 -17v-220q0 -14 -3 -17t-17 -3h-504q-14 0 -17 -3t-3 -17v-206q0 -14 3 -17t17 -3h534q14 0 17 -3t3 -17v-224q0 -14 -3 -17 t-17 -3h-826q-14 0 -17 3t-3 17v1360zM210 1700q0 14 4 17t16 3h620q14 0 17 -3t3 -17v-112q0 -14 -3 -17t-17 -3h-620q-14 0 -17 3t-3 17v112z" />
<glyph unicode="&#x113;" horiz-adv-x="986" d="M316 330q8 -70 69 -110t173 -40q68 0 136 19t112 53q4 4 12 4t8 -20v-174q0 -12 -20 -26q-18 -12 -49 -23t-68 -19t-78 -12t-77 -4q-110 0 -199 36t-151 98t-95 147t-33 185q0 98 32 182t90 146t139 97t179 35q104 0 185 -35t137 -98t84 -150t28 -193v-32q0 -30 -3 -39 t-19 -9h-570q-14 0 -18 -3t-4 -15zM490 700q-76 0 -126 -42t-58 -112q0 -14 3 -17t17 -3h328q16 0 19 3t1 17q-8 70 -54 112t-130 42zM162 1212q0 14 4 17t16 3h620q14 0 17 -3t3 -17v-112q0 -14 -3 -17t-17 -3h-620q-14 0 -17 3t-3 17v112z" />
<glyph unicode="&#x114;" horiz-adv-x="1054" d="M118 1380q0 14 3 17t17 3h816q14 0 17 -3t3 -17v-224q0 -14 -3 -17t-17 -3h-524q-14 0 -17 -3t-3 -17v-326q0 -14 3 -17t17 -3h504q14 0 17 -3t3 -17v-220q0 -14 -3 -17t-17 -3h-504q-14 0 -17 -3t-3 -17v-206q0 -14 3 -17t17 -3h534q14 0 17 -3t3 -17v-224q0 -14 -3 -17 t-17 -3h-826q-14 0 -17 3t-3 17v1360zM546 1646q54 0 88 27t46 95q4 20 26 20h146q16 0 12 -20q-24 -154 -110 -216t-208 -62t-208 62t-110 216q-6 20 12 20h146q22 0 26 -20q12 -68 48 -95t86 -27z" />
<glyph unicode="&#x115;" horiz-adv-x="986" d="M316 330q8 -70 69 -110t173 -40q68 0 136 19t112 53q4 4 12 4t8 -20v-174q0 -12 -20 -26q-18 -12 -49 -23t-68 -19t-78 -12t-77 -4q-110 0 -199 36t-151 98t-95 147t-33 185q0 98 32 182t90 146t139 97t179 35q104 0 185 -35t137 -98t84 -150t28 -193v-32q0 -30 -3 -39 t-19 -9h-570q-14 0 -18 -3t-4 -15zM490 700q-76 0 -126 -42t-58 -112q0 -14 3 -17t17 -3h328q16 0 19 3t1 17q-8 70 -54 112t-130 42zM500 1160q54 0 88 27t46 95q4 20 26 20h146q16 0 12 -20q-24 -154 -110 -216t-208 -62t-208 62t-110 216q-6 20 12 20h146q22 0 26 -20 q12 -68 48 -95t86 -27z" />
<glyph unicode="&#x116;" horiz-adv-x="1054" d="M118 1380q0 14 3 17t17 3h816q14 0 17 -3t3 -17v-224q0 -14 -3 -17t-17 -3h-524q-14 0 -17 -3t-3 -17v-326q0 -14 3 -17t17 -3h504q14 0 17 -3t3 -17v-220q0 -14 -3 -17t-17 -3h-504q-14 0 -17 -3t-3 -17v-206q0 -14 3 -17t17 -3h534q14 0 17 -3t3 -17v-224q0 -14 -3 -17 t-17 -3h-826q-14 0 -17 3t-3 17v1360zM390 1646q0 66 44 110t110 44t110 -44t44 -110t-44 -110t-110 -44t-110 44t-44 110z" />
<glyph unicode="&#x117;" horiz-adv-x="986" d="M316 330q8 -70 69 -110t173 -40q68 0 136 19t112 53q4 4 12 4t8 -20v-174q0 -12 -20 -26q-18 -12 -49 -23t-68 -19t-78 -12t-77 -4q-110 0 -199 36t-151 98t-95 147t-33 185q0 98 32 182t90 146t139 97t179 35q104 0 185 -35t137 -98t84 -150t28 -193v-32q0 -30 -3 -39 t-19 -9h-570q-14 0 -18 -3t-4 -15zM490 700q-76 0 -126 -42t-58 -112q0 -14 3 -17t17 -3h328q16 0 19 3t1 17q-8 70 -54 112t-130 42zM346 1202q0 66 44 110t110 44t110 -44t44 -110t-44 -110t-110 -44t-110 44t-44 110z" />
<glyph unicode="&#x118;" horiz-adv-x="1054" d="M118 1380q0 14 3 17t17 3h816q14 0 17 -3t3 -17v-224q0 -14 -3 -17t-17 -3h-524q-14 0 -17 -3t-3 -17v-326q0 -14 3 -17t17 -3h504q14 0 17 -3t3 -17v-220q0 -14 -3 -17t-17 -3h-504q-14 0 -17 -3t-3 -17v-206q0 -14 3 -17t17 -3h534q14 0 17 -3t3 -17v-224q0 -14 -3 -17 t-17 -3h-826q-14 0 -17 3t-3 17v1360zM884 -402q-54 0 -103 14t-86 41t-60 68t-23 93q0 64 31 119t85 107l162 -30q-34 -42 -59 -80t-35 -86q-8 -40 20 -66t74 -26q38 0 78 16q4 2 10 2q6 -2 6 -18v-116q0 -16 -14 -22q-36 -16 -86 -16z" />
<glyph unicode="&#x119;" horiz-adv-x="986" d="M316 330q8 -70 69 -110t173 -40q68 0 136 19t112 53q4 4 12 4t8 -20v-174q0 -12 -20 -26q-18 -12 -49 -23t-68 -19t-78 -12t-77 -4q-110 0 -199 36t-151 98t-95 147t-33 185q0 98 32 182t90 146t139 97t179 35q104 0 185 -35t137 -98t84 -150t28 -193v-32q0 -30 -3 -39 t-19 -9h-570q-14 0 -18 -3t-4 -15zM490 700q-76 0 -126 -42t-58 -112q0 -14 3 -17t17 -3h328q16 0 19 3t1 17q-8 70 -54 112t-130 42zM740 -402q-54 0 -103 14t-86 41t-60 68t-23 93q0 64 31 119t85 107l162 -30q-34 -42 -59 -80t-35 -86q-8 -40 20 -66t74 -26q38 0 78 16 q4 2 10 2q6 -2 6 -18v-116q0 -16 -14 -22q-36 -16 -86 -16z" />
<glyph unicode="&#x11a;" horiz-adv-x="1054" d="M118 1380q0 14 3 17t17 3h816q14 0 17 -3t3 -17v-224q0 -14 -3 -17t-17 -3h-524q-14 0 -17 -3t-3 -17v-326q0 -14 3 -17t17 -3h504q14 0 17 -3t3 -17v-220q0 -14 -3 -17t-17 -3h-504q-14 0 -17 -3t-3 -17v-206q0 -14 3 -17t17 -3h534q14 0 17 -3t3 -17v-224q0 -14 -3 -17 t-17 -3h-826q-14 0 -17 3t-3 17v1360zM674 1520q-16 -20 -38 -20h-212q-24 0 -38 20l-216 248q-6 8 -6 14t12 6h184q14 0 20 -6l14 -14l120 -128q4 -4 12 -4t12 4l116 128l14 14t20 6h188q12 0 12 -6t-6 -14z" />
<glyph unicode="&#x11b;" horiz-adv-x="986" d="M316 330q8 -70 69 -110t173 -40q68 0 136 19t112 53q4 4 12 4t8 -20v-174q0 -12 -20 -26q-18 -12 -49 -23t-68 -19t-78 -12t-77 -4q-110 0 -199 36t-151 98t-95 147t-33 185q0 98 32 182t90 146t139 97t179 35q104 0 185 -35t137 -98t84 -150t28 -193v-32q0 -30 -3 -39 t-19 -9h-570q-14 0 -18 -3t-4 -15zM490 700q-76 0 -126 -42t-58 -112q0 -14 3 -17t17 -3h328q16 0 19 3t1 17q-8 70 -54 112t-130 42zM640 1032q-16 -20 -38 -20h-212q-24 0 -38 20l-216 248q-6 8 -6 14t12 6h184q14 0 20 -6l14 -14l120 -128q4 -4 12 -4t12 4l116 128l14 14 t20 6h188q12 0 12 -6t-6 -14z" />
<glyph unicode="&#x11c;" horiz-adv-x="1326" d="M810 1152q-112 0 -195 -37t-137 -100t-81 -146t-27 -175q0 -94 28 -178t82 -147t135 -99t187 -36q42 0 86 5t66 15q20 8 20 26v238q0 14 -3 17t-17 3h-208q-14 0 -17 3t-3 17v210q0 14 3 17t17 3h474q14 0 17 -5t3 -15v-680q0 -12 -12 -20q-34 -24 -83 -41t-105 -29 t-115 -18t-113 -6q-176 0 -315 57t-235 155t-147 229t-51 279q0 150 51 283t147 233t231 158t303 58q102 0 194 -21t166 -61q16 -8 16 -20v-282q0 -12 -10 -12q-4 0 -8 2q-66 56 -153 88t-191 32zM580 1768q10 12 18 16t20 4h212q22 0 38 -20l216 -248q6 -8 6 -14t-12 -6 h-184q-14 0 -20 6l-14 14l-120 128q-4 4 -12 4t-12 -4l-116 -128l-14 -14t-20 -6h-188q-12 0 -12 6t6 14z" />
<glyph unicode="&#x11d;" horiz-adv-x="1094" d="M314 444q0 -50 15 -95t42 -78t67 -52t92 -19t93 19t70 52t44 78t15 95q0 48 -15 91t-44 76t-70 52t-93 19t-92 -19t-67 -52t-42 -76t-15 -91zM242 -380q-18 8 -18 24v188q0 20 8 20q4 0 7 -2t7 -4q34 -28 101 -53t155 -25q120 0 184 56t64 196v66q0 4 -8 4q-6 0 -8 -2 q-40 -46 -109 -78t-155 -32q-94 0 -170 38t-131 102t-85 148t-30 178t30 177t85 146t131 100t170 37q86 0 155 -32t109 -78q2 -2 8 -2q8 0 8 4v66q0 12 3 16t17 4h216q14 0 17 -4t3 -16v-830q0 -234 -121 -353t-359 -119q-84 0 -164 18t-120 42zM446 1280q10 12 18 16t20 4 h212q22 0 38 -20l216 -248q6 -8 6 -14t-12 -6h-184q-14 0 -20 6l-14 14l-120 128q-4 4 -12 4t-12 -4l-116 -128l-14 -14t-20 -6h-188q-12 0 -12 6t6 14z" />
<glyph unicode="&#x11e;" horiz-adv-x="1326" d="M810 1152q-112 0 -195 -37t-137 -100t-81 -146t-27 -175q0 -94 28 -178t82 -147t135 -99t187 -36q42 0 86 5t66 15q20 8 20 26v238q0 14 -3 17t-17 3h-208q-14 0 -17 3t-3 17v210q0 14 3 17t17 3h474q14 0 17 -5t3 -15v-680q0 -12 -12 -20q-34 -24 -83 -41t-105 -29 t-115 -18t-113 -6q-176 0 -315 57t-235 155t-147 229t-51 279q0 150 51 283t147 233t231 158t303 58q102 0 194 -21t166 -61q16 -8 16 -20v-282q0 -12 -10 -12q-4 0 -8 2q-66 56 -153 88t-191 32zM728 1646q54 0 88 27t46 95q4 20 26 20h146q16 0 12 -20q-24 -154 -110 -216 t-208 -62t-208 62t-110 216q-6 20 12 20h146q22 0 26 -20q12 -68 48 -95t86 -27z" />
<glyph unicode="&#x11f;" horiz-adv-x="1094" d="M314 444q0 -50 15 -95t42 -78t67 -52t92 -19t93 19t70 52t44 78t15 95q0 48 -15 91t-44 76t-70 52t-93 19t-92 -19t-67 -52t-42 -76t-15 -91zM242 -380q-18 8 -18 24v188q0 20 8 20q4 0 7 -2t7 -4q34 -28 101 -53t155 -25q120 0 184 56t64 196v66q0 4 -8 4q-6 0 -8 -2 q-40 -46 -109 -78t-155 -32q-94 0 -170 38t-131 102t-85 148t-30 178t30 177t85 146t131 100t170 37q86 0 155 -32t109 -78q2 -2 8 -2q8 0 8 4v66q0 12 3 16t17 4h216q14 0 17 -4t3 -16v-830q0 -234 -121 -353t-359 -119q-84 0 -164 18t-120 42zM568 1160q54 0 88 27t46 95 q4 20 26 20h146q16 0 12 -20q-24 -154 -110 -216t-208 -62t-208 62t-110 216q-6 20 12 20h146q22 0 26 -20q12 -68 48 -95t86 -27z" />
<glyph unicode="&#x120;" horiz-adv-x="1326" d="M810 1152q-112 0 -195 -37t-137 -100t-81 -146t-27 -175q0 -94 28 -178t82 -147t135 -99t187 -36q42 0 86 5t66 15q20 8 20 26v238q0 14 -3 17t-17 3h-208q-14 0 -17 3t-3 17v210q0 14 3 17t17 3h474q14 0 17 -5t3 -15v-680q0 -12 -12 -20q-34 -24 -83 -41t-105 -29 t-115 -18t-113 -6q-176 0 -315 57t-235 155t-147 229t-51 279q0 150 51 283t147 233t231 158t303 58q102 0 194 -21t166 -61q16 -8 16 -20v-282q0 -12 -10 -12q-4 0 -8 2q-66 56 -153 88t-191 32zM572 1646q0 66 44 110t110 44t110 -44t44 -110t-44 -110t-110 -44t-110 44 t-44 110z" />
<glyph unicode="&#x121;" horiz-adv-x="1094" d="M314 444q0 -50 15 -95t42 -78t67 -52t92 -19t93 19t70 52t44 78t15 95q0 48 -15 91t-44 76t-70 52t-93 19t-92 -19t-67 -52t-42 -76t-15 -91zM242 -380q-18 8 -18 24v188q0 20 8 20q4 0 7 -2t7 -4q34 -28 101 -53t155 -25q120 0 184 56t64 196v66q0 4 -8 4q-6 0 -8 -2 q-40 -46 -109 -78t-155 -32q-94 0 -170 38t-131 102t-85 148t-30 178t30 177t85 146t131 100t170 37q86 0 155 -32t109 -78q2 -2 8 -2q8 0 8 4v66q0 12 3 16t17 4h216q14 0 17 -4t3 -16v-830q0 -234 -121 -353t-359 -119q-84 0 -164 18t-120 42zM402 1202q0 66 44 110 t110 44t110 -44t44 -110t-44 -110t-110 -44t-110 44t-44 110z" />
<glyph unicode="&#x122;" horiz-adv-x="1326" d="M810 1152q-112 0 -195 -37t-137 -100t-81 -146t-27 -175q0 -94 28 -178t82 -147t135 -99t187 -36q42 0 86 5t66 15q20 8 20 26v238q0 14 -3 17t-17 3h-208q-14 0 -17 3t-3 17v210q0 14 3 17t17 3h474q14 0 17 -5t3 -15v-680q0 -12 -12 -20q-34 -24 -83 -41t-105 -29 t-115 -18t-113 -6q-176 0 -315 57t-235 155t-147 229t-51 279q0 150 51 283t147 233t231 158t303 58q102 0 194 -21t166 -61q16 -8 16 -20v-282q0 -12 -10 -12q-4 0 -8 2q-66 56 -153 88t-191 32zM620 -104q2 12 4 16t16 4h194q26 0 18 -20l-96 -324q-4 -12 -8 -16t-18 -4 h-114q-20 0 -20 20z" />
<glyph unicode="&#x123;" horiz-adv-x="1094" d="M314 444q0 -50 15 -95t42 -78t67 -52t92 -19t93 19t70 52t44 78t15 95q0 48 -15 91t-44 76t-70 52t-93 19t-92 -19t-67 -52t-42 -76t-15 -91zM242 -380q-18 8 -18 24v188q0 20 8 20q4 0 7 -2t7 -4q34 -28 101 -53t155 -25q120 0 184 56t64 196v66q0 4 -8 4q-6 0 -8 -2 q-40 -46 -109 -78t-155 -32q-94 0 -170 38t-131 102t-85 148t-30 178t30 177t85 146t131 100t170 37q86 0 155 -32t109 -78q2 -2 8 -2q8 0 8 4v66q0 12 3 16t17 4h216q14 0 17 -4t3 -16v-830q0 -234 -121 -353t-359 -119q-84 0 -164 18t-120 42zM654 1032q-2 -12 -4 -16 t-16 -4h-194q-26 0 -18 20l96 324q4 12 8 16t18 4h114q20 0 20 -20z" />
<glyph unicode="&#x124;" horiz-adv-x="1240" d="M1122 20q0 -14 -3 -17t-17 -3h-252q-14 0 -17 3t-3 17v464q0 14 -3 17t-17 3h-380q-14 0 -17 -3t-3 -17v-464q0 -14 -3 -17t-17 -3h-252q-14 0 -17 3t-3 17v1360q0 14 3 17t17 3h252q14 0 17 -3t3 -17v-596q0 -14 3 -17t17 -3h380q14 0 17 3t3 17v596q0 14 3 17t17 3h252 q14 0 17 -3t3 -17v-1360zM472 1768q10 12 18 16t20 4h212q22 0 38 -20l216 -248q6 -8 6 -14t-12 -6h-184q-14 0 -20 6l-14 14l-120 128q-4 4 -12 4t-12 -4l-116 -128l-14 -14t-20 -6h-188q-12 0 -12 6t6 14z" />
<glyph unicode="&#x125;" horiz-adv-x="1038" d="M938 20q0 -12 -3 -16t-17 -4h-218q-14 0 -17 4t-3 16v494q0 80 -34 122t-110 42q-90 0 -137 -62t-47 -164v-432q0 -12 -3 -16t-17 -4h-218q-14 0 -17 4t-3 16v1360q0 12 3 16t17 4h218q14 0 17 -4t3 -16v-594q0 -4 8 -4q6 0 8 2q64 58 130 89t148 31q80 0 136 -26t90 -71 t50 -107t16 -132v-548zM372 1768q10 12 18 16t20 4h212q22 0 38 -20l216 -248q6 -8 6 -14t-12 -6h-184q-14 0 -20 6l-14 14l-120 128q-4 4 -12 4t-12 -4l-116 -128l-14 -14t-20 -6h-188q-12 0 -12 6t6 14z" />
<glyph unicode="&#x126;" horiz-adv-x="1240" d="M122 1380q0 14 3 17t17 3h248q14 0 17 -3t3 -17v-210q0 -14 3 -17t17 -3h380q14 0 17 3t3 17v210q0 14 3 17t17 3h248q14 0 17 -3t3 -17v-220q0 -10 20 -10h82q12 0 16 -3t4 -17v-140q0 -14 -3 -17t-17 -3h-82q-14 0 -17 -3t-3 -17v-930q0 -14 -3 -17t-17 -3h-248 q-14 0 -17 3t-3 17v456q0 14 -3 17t-17 3h-380q-14 0 -17 -3t-3 -17v-456q0 -14 -3 -17t-17 -3h-248q-14 0 -17 3t-3 17v930q0 14 -3 17t-17 3h-82q-14 0 -17 3t-3 17v140q0 14 4 17t16 3h82q18 0 20 10v10v210zM430 970q-20 0 -20 -12v-194q0 -14 3 -17t17 -3h380 q14 0 17 3t3 17v194q-2 12 -20 12h-380z" />
<glyph unicode="&#x127;" horiz-adv-x="1038" d="M938 20q0 -12 -3 -16t-17 -4h-218q-14 0 -17 4t-3 16v494q0 80 -34 122t-110 42q-90 0 -137 -62t-47 -164v-432q0 -12 -3 -16t-17 -4h-218q-14 0 -17 4t-3 16v1036q0 14 -3 17t-17 3h-54q-14 0 -17 4t-3 16v124q0 12 3 16t17 4h54q14 0 17 3t3 17v220q0 12 3 16t17 4h218 q14 0 17 -4t3 -16v-220q0 -14 3 -17t17 -3h218q14 0 17 -4t3 -16v-124q0 -12 -3 -16t-17 -4h-218q-14 0 -17 -3t-3 -17v-270q0 -4 8 -4q6 0 8 2q64 58 130 89t148 31q80 0 136 -26t90 -71t50 -107t16 -132v-548z" />
<glyph unicode="&#x128;" horiz-adv-x="528" d="M118 1380q0 14 3 17t17 3h252q14 0 17 -3t3 -17v-1360q0 -14 -3 -17t-17 -3h-252q-14 0 -17 3t-3 17v1360zM610 1692q0 -80 -57 -137t-147 -57q-64 0 -102 20t-64 45t-48 45t-54 20q-28 0 -48 -19t-20 -53v-12q0 -12 -3 -16t-17 -4h-114q-14 0 -17 4t-3 16v48q0 40 17 75 t45 62t67 43t83 16q62 0 99 -20t62 -45t46 -45t53 -20q28 0 48 18t20 52v14q0 12 3 16t17 4h114q14 0 17 -4t3 -16v-50z" />
<glyph unicode="&#x129;" horiz-adv-x="446" d="M94 862q0 12 3 16t17 4h218q14 0 17 -4t3 -16v-842q0 -12 -3 -16t-17 -4h-218q-14 0 -17 4t-3 16v842zM530 1204q0 -80 -43 -137t-133 -57q-64 0 -96 20t-51 45t-36 45t-49 20q-28 0 -48 -19t-20 -53v-12q0 -12 -3 -16t-17 -4h-98q-14 0 -17 4t-3 16v48q0 80 47 138 t137 58q62 0 94 -20t50 -45t33 -45t47 -20q28 0 48 18t20 52v14q0 12 3 16t17 4h98q14 0 17 -4t3 -16v-50z" />
<glyph unicode="&#x12a;" horiz-adv-x="528" d="M118 1380q0 14 3 17t17 3h252q14 0 17 -3t3 -17v-1360q0 -14 -3 -17t-17 -3h-252q-14 0 -17 3t-3 17v1360zM-66 1700q0 14 4 17t16 3h620q14 0 17 -3t3 -17v-112q0 -14 -3 -17t-17 -3h-620q-14 0 -17 3t-3 17v112z" />
<glyph unicode="&#x12b;" horiz-adv-x="446" d="M94 862q0 12 3 16t17 4h218q14 0 17 -4t3 -16v-842q0 -12 -3 -16t-17 -4h-218q-14 0 -17 4t-3 16v842zM-32 1212q0 14 4 17t16 3h468q14 0 17 -3t3 -17v-112q0 -14 -3 -17t-17 -3h-468q-14 0 -17 3t-3 17v112z" />
<glyph unicode="&#x12c;" horiz-adv-x="528" d="M118 1380q0 14 3 17t17 3h252q14 0 17 -3t3 -17v-1360q0 -14 -3 -17t-17 -3h-252q-14 0 -17 3t-3 17v1360zM264 1628q54 0 88 27t46 95q4 20 26 20h146q16 0 12 -20q-24 -154 -110 -216t-208 -62t-208 62t-110 216q-6 20 12 20h146q22 0 26 -20q12 -68 48 -95t86 -27z " />
<glyph unicode="&#x12d;" horiz-adv-x="446" d="M94 862q0 12 3 16t17 4h218q14 0 17 -4t3 -16v-842q0 -12 -3 -16t-17 -4h-218q-14 0 -17 4t-3 16v842zM222 1160q54 0 88 27t46 95q4 20 26 20h146q16 0 12 -20q-24 -154 -110 -216t-208 -62t-208 62t-110 216q-6 20 12 20h146q22 0 26 -20q12 -68 48 -95t86 -27z" />
<glyph unicode="&#x12e;" horiz-adv-x="528" d="M290 -402q-54 0 -103 14t-86 41t-60 68t-23 93q0 60 27 111t73 99v1356q0 14 3 17t17 3h252q14 0 17 -3t3 -17v-1360q0 -14 -3 -17t-17 -3h-104q-32 -38 -54 -74t-30 -82q-8 -40 20 -66t74 -26q38 0 78 16q4 2 10 2q6 -2 6 -18v-116q0 -16 -14 -22q-36 -16 -86 -16z" />
<glyph unicode="&#x12f;" horiz-adv-x="448" d="M94 862q0 12 3 16t17 4h218q14 0 17 -4t3 -16v-842q0 -12 -3 -16t-17 -4h-218q-14 0 -17 4t-3 16v842zM70 1202q0 66 44 110t110 44t110 -44t44 -110t-44 -110t-110 -44t-110 44t-44 110zM270 -402q-54 0 -103 14t-86 41t-60 68t-23 93q0 64 31 119t85 107l162 -30 q-34 -42 -59 -80t-35 -86q-8 -40 20 -66t74 -26q38 0 78 16q4 2 10 2q6 -2 6 -18v-116q0 -16 -14 -22q-36 -16 -86 -16z" />
<glyph unicode="&#x130;" horiz-adv-x="528" d="M118 1380q0 14 3 17t17 3h252q14 0 17 -3t3 -17v-1360q0 -14 -3 -17t-17 -3h-252q-14 0 -17 3t-3 17v1360zM114 1646q0 66 44 110t110 44t110 -44t44 -110t-44 -110t-110 -44t-110 44t-44 110z" />
<glyph unicode="&#x131;" horiz-adv-x="446" d="M94 862q0 12 3 16t17 4h218q14 0 17 -4t3 -16v-842q0 -12 -3 -16t-17 -4h-218q-14 0 -17 4t-3 16v842z" />
<glyph unicode="&#x132;" horiz-adv-x="1180" d="M118 1380q0 14 3 17t17 3h252q14 0 17 -3t3 -17v-1360q0 -14 -3 -17t-17 -3h-252q-14 0 -17 3t-3 17v1360zM726 -22q-56 0 -102 5t-66 9q-12 4 -16 7t-4 17v214q0 20 20 16q14 -4 39 -8t57 -4q56 0 77 33t21 103v1012q0 12 3 15t15 3h256q12 0 15 -3t3 -15v-1084 q0 -162 -82 -241t-236 -79z" />
<glyph unicode="&#x133;" horiz-adv-x="910" d="M94 862q0 12 3 16t17 4h218q14 0 17 -4t3 -16v-842q0 -12 -3 -16t-17 -4h-218q-14 0 -17 4t-3 16v842zM70 1202q0 66 44 110t110 44t110 -44t44 -110t-44 -110t-110 -44t-110 44t-44 110zM820 -122q0 -154 -70 -236t-224 -82q-22 0 -44 1t-38 3q-20 2 -38 4q-12 4 -16 7 t-4 17v172q0 18 8 18q4 0 12 -2q26 -6 52 -6q58 0 80 33t22 103v952q0 12 3 16t17 4h220q14 0 17 -4t3 -16v-984zM536 1202q0 66 44 110t110 44t110 -44t44 -110t-44 -110t-110 -44t-110 44t-44 110z" />
<glyph unicode="&#x134;" horiz-adv-x="686" d="M232 -22q-56 0 -102 5t-66 9q-12 4 -16 7t-4 17v214q0 20 20 16q14 -4 39 -8t57 -4q56 0 77 33t21 103v1012q0 12 3 15t15 3h256q12 0 15 -3t3 -15v-1084q0 -162 -82 -241t-236 -79zM270 1768q10 12 18 16t20 4h212q22 0 38 -20l216 -248q6 -8 6 -14t-12 -6h-184 q-14 0 -20 6l-14 14l-120 128q-4 4 -12 4t-12 -4l-116 -128l-14 -14t-20 -6h-188q-12 0 -12 6t6 14z" />
<glyph unicode="&#x135;" horiz-adv-x="444" d="M354 -122q0 -154 -70 -236t-224 -82q-22 0 -44 1t-38 3q-20 2 -38 4q-12 4 -16 7t-4 17v172q0 18 8 18q4 0 12 -2q26 -6 52 -6q58 0 80 33t22 103v952q0 12 3 16t17 4h220q14 0 17 -4t3 -16v-984zM74 1282q10 12 18 16t20 4h212q22 0 38 -20l156 -250q6 -8 6 -14t-12 -6 h-164q-14 0 -20 6l-14 14l-80 130q-4 4 -12 4t-12 -4l-76 -130l-14 -14t-20 -6h-168q-12 0 -12 6t6 14z" />
<glyph unicode="&#x136;" horiz-adv-x="1204" d="M406 20q0 -14 -3 -17t-17 -3h-248q-14 0 -17 3t-3 17v1360q0 14 3 17t17 3h248q14 0 17 -3t3 -17v-534q0 -14 12 -14t18 10l364 538q10 12 14 16t18 4h302q16 0 16 -6q0 -2 -8 -14l-434 -620q-4 -4 -4 -10t4 -10l472 -720q10 -14 10 -16q0 -4 -18 -4h-304q-14 0 -17 3 t-15 17l-398 612q-6 8 -16 8q-16 0 -16 -14v-606zM494 -104q2 12 4 16t16 4h194q26 0 18 -20l-96 -324q-4 -12 -8 -16t-18 -4h-114q-20 0 -20 20z" />
<glyph unicode="&#x137;" horiz-adv-x="966" d="M346 572q0 -14 12 -14t18 10l226 294q10 12 14 16t18 4h266q16 0 16 -6q0 -2 -8 -14l-300 -368q-4 -4 -4 -10t4 -10l324 -454q10 -14 10 -16q0 -4 -18 -4h-264q-14 0 -17 3t-15 17l-250 370q-6 8 -16 8q-16 0 -16 -14v-364q0 -12 -3 -16t-17 -4h-216q-14 0 -17 4t-3 16 v1460q0 12 3 16t17 4h216q14 0 17 -4t3 -16v-908zM370 -104q2 12 4 16t16 4h194q26 0 18 -20l-96 -324q-4 -12 -8 -16t-18 -4h-114q-20 0 -20 20z" />
<glyph unicode="&#x138;" horiz-adv-x="986" d="M346 548q0 -14 12 -14t18 10l246 318q10 12 14 16t18 4h266q16 0 16 -6q0 -2 -8 -14l-320 -378q-4 -4 -4 -10t4 -10l344 -444q10 -14 10 -16q0 -4 -18 -4h-264q-14 0 -17 3t-15 17l-270 346q-6 8 -16 8q-16 0 -16 -14v-340q0 -12 -3 -16t-17 -4h-216q-14 0 -17 4t-3 16 v840q0 12 3 16t17 4h216q14 0 17 -4t3 -16v-312z" />
<glyph unicode="&#x139;" horiz-adv-x="950" d="M118 1380q0 14 3 17t17 3h252q14 0 17 -3t3 -17v-1096q0 -14 3 -17t17 -3h456q14 0 17 -3t3 -17v-224q0 -14 -3 -17t-17 -3h-748q-14 0 -17 3t-3 17v1360zM410 1768q10 12 15 16t17 4h260q20 0 20 -4t-12 -16l-254 -248q-8 -8 -16 -14t-22 -6h-176q-14 0 -14 4q0 6 8 16z " />
<glyph unicode="&#x13a;" horiz-adv-x="446" d="M267 1768q10 12 15 16t17 4h260q20 0 20 -4t-12 -16l-254 -248q-8 -8 -16 -14t-22 -6h-176q-14 0 -14 4q0 6 8 16zM94 1380q0 12 3 16t17 4h218q14 0 17 -4t3 -16v-1360q0 -12 -3 -16t-17 -4h-218q-14 0 -17 4t-3 16v1360z" />
<glyph unicode="&#x13b;" horiz-adv-x="950" d="M118 1380q0 14 3 17t17 3h252q14 0 17 -3t3 -17v-1096q0 -14 3 -17t17 -3h456q14 0 17 -3t3 -17v-224q0 -14 -3 -17t-17 -3h-748q-14 0 -17 3t-3 17v1360zM368 -104q2 12 4 16t16 4h194q26 0 18 -20l-96 -324q-4 -12 -8 -16t-18 -4h-114q-20 0 -20 20z" />
<glyph unicode="&#x13c;" horiz-adv-x="446" d="M94 1480q0 12 3 16t17 4h218q14 0 17 -4t3 -16v-1460q0 -12 -3 -16t-17 -4h-218q-14 0 -17 4t-3 16v1460zM116 -104q2 12 4 16t16 4h194q26 0 18 -20l-96 -324q-4 -12 -8 -16t-18 -4h-114q-20 0 -20 20z" />
<glyph unicode="&#x13d;" horiz-adv-x="950" d="M118 1380q0 14 3 17t17 3h252q14 0 17 -3t3 -17v-1096q0 -14 3 -17t17 -3h456q14 0 17 -3t3 -17v-224q0 -14 -3 -17t-17 -3h-748q-14 0 -17 3t-3 17v1360zM614 1520q-16 -20 -38 -20h-212q-24 0 -38 20l-216 248q-6 8 -6 14t12 6h184q14 0 20 -6l14 -14l120 -128 q4 -4 12 -4t12 4l116 128l14 14t20 6h188q12 0 12 -6t-6 -14z" />
<glyph unicode="&#x13e;" horiz-adv-x="446" d="M94 1480q0 12 3 16t17 4h218q14 0 17 -4t3 -16v-1460q0 -12 -3 -16t-17 -4h-218q-14 0 -17 4t-3 16v1460zM438 1480q2 12 4 16t16 4h194q26 0 18 -20l-96 -324q-4 -12 -8 -16t-18 -4h-114q-20 0 -20 20z" />
<glyph unicode="&#x13f;" horiz-adv-x="1030" d="M118 1380q0 14 3 17t17 3h252q14 0 17 -3t3 -17v-1096q0 -14 3 -17t17 -3h456q14 0 17 -3t3 -17v-224q0 -14 -3 -17t-17 -3h-748q-14 0 -17 3t-3 17v1360zM794 590q-64 0 -110 43t-46 113q0 64 46 110t110 46q66 0 111 -46t45 -110q0 -70 -45 -113t-111 -43z" />
<glyph unicode="&#x140;" horiz-adv-x="942" d="M94 1480q0 12 3 16t17 4h218q14 0 17 -4t3 -16v-1460q0 -12 -3 -16t-17 -4h-218q-14 0 -17 4t-3 16v1460zM692 506q-64 0 -110 43t-46 113q0 64 46 110t110 46q66 0 111 -46t45 -110q0 -70 -45 -113t-111 -43z" />
<glyph unicode="&#x141;" horiz-adv-x="950" d="M118 420l-98 -84q-8 -4 -10 -4q-10 0 -10 16v200q0 14 4 18t16 14l98 84v716q0 14 3 17t17 3h252q14 0 17 -3t3 -17v-530l172 142q8 6 14 6t6 -14v-206q0 -14 -4 -20t-16 -16l-172 -142v-316q0 -14 3 -17t17 -3h456q14 0 17 -3t3 -17v-224q0 -14 -3 -17t-17 -3h-748 q-14 0 -17 3t-3 17v400z" />
<glyph unicode="&#x142;" horiz-adv-x="500" d="M30 582q0 14 4 18t16 14l70 58v808q0 14 3 17t17 3h220q14 0 17 -3t3 -17v-652l98 82q8 6 14 6t6 -14v-204q0 -12 -3 -18t-17 -16l-98 -82v-562q0 -14 -3 -17t-17 -3h-220q-14 0 -17 3t-3 17v412l-70 -58q-8 -4 -10 -4q-10 0 -10 16v196z" />
<glyph unicode="&#x143;" horiz-adv-x="1222" d="M428 724q-6 6 -14 6q-16 0 -16 -12v-698q0 -14 -3 -17t-17 -3h-246q-14 0 -17 3t-3 17v1400q0 14 10 14q4 0 8 -1t12 -9l652 -750q6 -6 14 -6q16 0 16 12v700q0 14 3 17t17 3h246q14 0 17 -3t3 -17v-1400q0 -14 -10 -14t-18 10zM612 1768q10 12 15 16t17 4h260 q20 0 20 -4t-12 -16l-254 -248q-8 -8 -16 -14t-22 -6h-176q-14 0 -14 4q0 6 8 16z" />
<glyph unicode="&#x144;" horiz-adv-x="1026" d="M938 20q0 -12 -3 -16t-17 -4h-218q-14 0 -17 4t-3 16v494q0 80 -34 122t-110 42q-90 0 -137 -62t-47 -164v-432q0 -12 -3 -16t-17 -4h-218q-14 0 -17 4t-3 16v842q0 12 3 16t17 4h218q14 0 17 -4t3 -16v-80q0 -4 8 -4q6 0 8 2q64 58 130 91t148 33q80 0 136 -26t90 -71 t50 -107t16 -132v-548zM508 1280q10 12 15 16t17 4h260q20 0 20 -4t-12 -16l-254 -248q-8 -8 -16 -14t-22 -6h-176q-14 0 -14 4q0 6 8 16z" />
<glyph unicode="&#x145;" horiz-adv-x="1222" d="M428 724q-6 6 -14 6q-16 0 -16 -12v-698q0 -14 -3 -17t-17 -3h-246q-14 0 -17 3t-3 17v1400q0 14 10 14q4 0 8 -1t12 -9l652 -750q6 -6 14 -6q16 0 16 12v700q0 14 3 17t17 3h246q14 0 17 -3t3 -17v-1400q0 -14 -10 -14t-18 10zM538 -104q2 12 4 16t16 4h194q26 0 18 -20 l-96 -324q-4 -12 -8 -16t-18 -4h-114q-20 0 -20 20z" />
<glyph unicode="&#x146;" horiz-adv-x="1026" d="M938 20q0 -12 -3 -16t-17 -4h-218q-14 0 -17 4t-3 16v494q0 80 -34 122t-110 42q-90 0 -137 -62t-47 -164v-432q0 -12 -3 -16t-17 -4h-218q-14 0 -17 4t-3 16v842q0 12 3 16t17 4h218q14 0 17 -4t3 -16v-80q0 -4 8 -4q6 0 8 2q64 58 130 91t148 33q80 0 136 -26t90 -71 t50 -107t16 -132v-548zM400 -104q2 12 4 16t16 4h194q26 0 18 -20l-96 -324q-4 -12 -8 -16t-18 -4h-114q-20 0 -20 20z" />
<glyph unicode="&#x147;" horiz-adv-x="1222" d="M428 724q-6 6 -14 6q-16 0 -16 -12v-698q0 -14 -3 -17t-17 -3h-246q-14 0 -17 3t-3 17v1400q0 14 10 14q4 0 8 -1t12 -9l652 -750q6 -6 14 -6q16 0 16 12v700q0 14 3 17t17 3h246q14 0 17 -3t3 -17v-1400q0 -14 -10 -14t-18 10zM760 1520q-16 -20 -38 -20h-212 q-24 0 -38 20l-216 248q-6 8 -6 14t12 6h184q14 0 20 -6l14 -14l120 -128q4 -4 12 -4t12 4l116 128l14 14t20 6h188q12 0 12 -6t-6 -14z" />
<glyph unicode="&#x148;" horiz-adv-x="1026" d="M938 20q0 -12 -3 -16t-17 -4h-218q-14 0 -17 4t-3 16v494q0 80 -34 122t-110 42q-90 0 -137 -62t-47 -164v-432q0 -12 -3 -16t-17 -4h-218q-14 0 -17 4t-3 16v842q0 12 3 16t17 4h218q14 0 17 -4t3 -16v-80q0 -4 8 -4q6 0 8 2q64 58 130 91t148 33q80 0 136 -26t90 -71 t50 -107t16 -132v-548zM660 1032q-16 -20 -38 -20h-212q-24 0 -38 20l-216 248q-6 8 -6 14t12 6h184q14 0 20 -6l14 -14l120 -128q4 -4 12 -4t12 4l116 128l14 14t20 6h188q12 0 12 -6t-6 -14z" />
<glyph unicode="&#x149;" horiz-adv-x="1026" d="M938 20q0 -12 -3 -16t-17 -4h-218q-14 0 -17 4t-3 16v494q0 80 -34 122t-110 42q-90 0 -137 -62t-47 -164v-432q0 -12 -3 -16t-17 -4h-218q-14 0 -17 4t-3 16v842q0 12 3 16t17 4h218q14 0 17 -4t3 -16v-80q0 -4 8 -4q6 0 8 2q64 58 130 91t148 33q80 0 136 -26t90 -71 t50 -107t16 -132v-548zM-42 1460q2 12 4 16t16 4h194q26 0 18 -20l-96 -324q-4 -12 -8 -16t-18 -4h-114q-20 0 -20 20z" />
<glyph unicode="&#x14a;" horiz-adv-x="1222" d="M1110 20q0 -162 -86 -238t-236 -76q-52 0 -87 3t-55 7q-12 4 -16 7t-4 17v214q0 20 20 16q14 -4 30 -6t32 -2q116 0 116 136v172l-396 454q-6 6 -14 6q-16 0 -16 -12v-698q0 -14 -3 -17t-17 -3h-246q-14 0 -17 3t-3 17v1400q0 14 10 14q4 0 8 -1t12 -9l652 -750 q6 -6 14 -6q16 0 16 12v700q0 14 3 17t17 3h246q14 0 17 -3t3 -17v-1360z" />
<glyph unicode="&#x14b;" horiz-adv-x="1026" d="M938 -122q0 -154 -69 -236t-223 -82q-22 0 -44 1t-38 3q-20 2 -38 4q-12 4 -16 7t-4 17v172q0 18 8 18q4 0 12 -2q26 -6 52 -6q58 0 80 33t22 103v604q0 80 -34 122t-110 42q-90 0 -137 -62t-47 -164v-432q0 -12 -3 -16t-17 -4h-218q-14 0 -17 4t-3 16v842q0 12 3 16 t17 4h218q14 0 17 -4t3 -16v-80q0 -4 8 -4q6 0 8 2q64 58 130 91t148 33q80 0 136 -26t91 -71t50 -107t15 -132v-690z" />
<glyph unicode="&#x14c;" horiz-adv-x="1540" d="M1476 700q0 -148 -55 -280t-150 -231t-224 -157t-277 -58t-277 58t-224 157t-150 231t-55 280t55 280t150 231t224 157t277 58t277 -58t224 -157t150 -231t55 -280zM370 700q0 -90 29 -169t82 -138t126 -94t163 -35t163 35t126 94t82 138t29 169t-29 169t-82 138t-126 94 t-163 35t-163 -35t-126 -94t-82 -138t-29 -169zM440 1700q0 14 4 17t16 3h620q14 0 17 -3t3 -17v-112q0 -14 -3 -17t-17 -3h-620q-14 0 -17 3t-3 17v112z" />
<glyph unicode="&#x14d;" horiz-adv-x="1068" d="M56 444q0 100 37 184t102 146t152 96t187 34t187 -34t152 -96t102 -146t37 -184t-37 -185t-102 -148t-152 -98t-187 -35t-187 35t-152 98t-102 148t-37 185zM316 444q0 -50 15 -94t43 -77t68 -52t92 -19t92 19t68 52t43 77t15 94q0 48 -15 91t-43 75t-68 51t-92 19 t-92 -19t-68 -51t-43 -75t-15 -91zM204 1212q0 14 4 17t16 3h620q14 0 17 -3t3 -17v-112q0 -14 -3 -17t-17 -3h-620q-14 0 -17 3t-3 17v112z" />
<glyph unicode="&#x14e;" horiz-adv-x="1540" d="M1476 700q0 -148 -55 -280t-150 -231t-224 -157t-277 -58t-277 58t-224 157t-150 231t-55 280t55 280t150 231t224 157t277 58t277 -58t224 -157t150 -231t55 -280zM370 700q0 -90 29 -169t82 -138t126 -94t163 -35t163 35t126 94t82 138t29 169t-29 169t-82 138t-126 94 t-163 35t-163 -35t-126 -94t-82 -138t-29 -169zM770 1628q54 0 88 27t46 95q4 20 26 20h146q16 0 12 -20q-24 -154 -110 -216t-208 -62t-208 62t-110 216q-6 20 12 20h146q22 0 26 -20q12 -68 48 -95t86 -27z" />
<glyph unicode="&#x14f;" horiz-adv-x="1068" d="M56 444q0 100 37 184t102 146t152 96t187 34t187 -34t152 -96t102 -146t37 -184t-37 -185t-102 -148t-152 -98t-187 -35t-187 35t-152 98t-102 148t-37 185zM316 444q0 -50 15 -94t43 -77t68 -52t92 -19t92 19t68 52t43 77t15 94q0 48 -15 91t-43 75t-68 51t-92 19 t-92 -19t-68 -51t-43 -75t-15 -91zM534 1160q54 0 88 27t46 95q4 20 26 20h146q16 0 12 -20q-24 -154 -110 -216t-208 -62t-208 62t-110 216q-6 20 12 20h146q22 0 26 -20q12 -68 48 -95t86 -27z" />
<glyph unicode="&#x150;" horiz-adv-x="1540" d="M1476 700q0 -148 -55 -280t-150 -231t-224 -157t-277 -58t-277 58t-224 157t-150 231t-55 280t55 280t150 231t224 157t277 58t277 -58t224 -157t150 -231t55 -280zM370 700q0 -90 29 -169t82 -138t126 -94t163 -35t163 35t126 94t82 138t29 169t-29 169t-82 138t-126 94 t-163 35t-163 -35t-126 -94t-82 -138t-29 -169zM640 1768q10 12 15 16t17 4h260q20 0 20 -4t-12 -16q-64 -64 -127 -124t-127 -124q-8 -8 -16 -14t-22 -6h-176q-14 0 -14 4q0 6 8 16zM1036 1768q10 12 15 16t17 4h260q20 0 20 -4t-12 -16q-64 -64 -127 -124t-127 -124 q-8 -8 -16 -14t-22 -6h-176q-14 0 -14 4q0 6 8 16z" />
<glyph unicode="&#x151;" horiz-adv-x="1068" d="M56 444q0 100 37 184t102 146t152 96t187 34t187 -34t152 -96t102 -146t37 -184t-37 -185t-102 -148t-152 -98t-187 -35t-187 35t-152 98t-102 148t-37 185zM316 444q0 -50 15 -94t43 -77t68 -52t92 -19t92 19t68 52t43 77t15 94q0 48 -15 91t-43 75t-68 51t-92 19 t-92 -19t-68 -51t-43 -75t-15 -91zM404 1280q10 12 15 16t17 4h260q20 0 20 -4t-12 -16q-64 -64 -127 -124t-127 -124q-8 -8 -16 -14t-22 -6h-176q-14 0 -14 4q0 6 8 16zM800 1280q10 12 15 16t17 4h260q20 0 20 -4t-12 -16q-64 -64 -127 -124t-127 -124q-8 -8 -16 -14 t-22 -6h-176q-14 0 -14 4q0 6 8 16z" />
<glyph unicode="&#x152;" horiz-adv-x="1636" d="M1536 1400q14 0 17 -3t3 -17v-224q0 -14 -3 -17t-17 -3h-470q-14 0 -17 -3t-3 -17v-326q0 -14 3 -17t17 -3h454q14 0 17 -3t3 -17v-220q0 -14 -3 -17t-17 -3h-454q-14 0 -17 -3t-3 -17v-206q0 -14 3 -17t17 -3h480q14 0 17 -3t3 -17v-224q0 -14 -3 -17t-17 -3h-794 q-156 0 -283 54t-217 148t-139 222t-49 276t47 276t135 222t214 148t284 54h792zM738 264q14 0 17 3t3 17v832q0 14 -3 17t-17 3h-12q-88 0 -155 -33t-113 -91t-70 -138t-24 -174t24 -174t70 -138t113 -91t155 -33h12z" />
<glyph unicode="&#x153;" horiz-adv-x="1666" d="M1000 328q10 -70 73 -113t169 -43q64 0 135 19t115 53q6 6 12 6q8 0 8 -20v-164q0 -16 -26 -31t-64 -27t-82 -19t-80 -9h-48t-48 2q-86 8 -151 38t-117 76q-10 10 -17 18t-15 18q-8 -10 -16 -18l-18 -18q-60 -52 -134 -85t-172 -33t-183 36t-148 99t-100 147t-37 182 t37 182t100 146t148 97t183 35q94 0 169 -32t133 -84q18 -16 34 -34q6 10 14 18l16 16q56 52 126 84t166 32q104 0 184 -35t134 -98t82 -151t28 -192v-16v-44q0 -12 -3 -16t-17 -4h-568q-14 0 -18 -3t-4 -15zM304 442q0 -50 15 -94t44 -77t69 -52t92 -19t93 19t69 52t43 77 t15 94q0 48 -15 92t-44 76t-70 51t-91 19q-52 0 -92 -19t-69 -52t-44 -76t-15 -91zM1182 700q-76 0 -130 -45t-64 -115q0 -14 3 -17t17 -3h344q16 0 19 3t1 17q-10 70 -58 115t-132 45z" />
<glyph unicode="&#x154;" horiz-adv-x="1178" d="M406 20q0 -14 -3 -17t-17 -3h-250q-14 0 -18 3t-4 17v1360q0 14 3 17t17 3h358q126 0 209 -14t159 -58q86 -48 143 -137t57 -221q0 -158 -81 -266t-217 -148q-8 -2 -8 -10q0 -4 4 -8q102 -132 202 -259t202 -259q10 -14 10 -16q0 -4 -18 -4h-310q-14 0 -19 3t-15 17 l-370 494q-10 16 -22 16q-10 0 -11 -5t-1 -15v-490zM426 1148q-14 0 -17 -3t-3 -17v-352q0 -14 3 -17t17 -3h110q108 0 166 45t58 149q0 92 -55 145t-175 53h-104zM524 1768q10 12 15 16t17 4h260q20 0 20 -4t-12 -16l-254 -248q-8 -8 -16 -14t-22 -6h-176q-14 0 -14 4 q0 6 8 16z" />
<glyph unicode="&#x155;" horiz-adv-x="666" d="M108 0q-14 0 -17 4t-3 16v842q0 12 3 16t17 4h212q14 0 17 -4t3 -16v-104q0 -4 8 -4q6 0 8 2q16 26 42 52t60 47t75 35t87 14q14 0 17 -4t3 -16v-210q0 -22 -12 -22q-6 0 -22 2t-40 2q-114 0 -168 -82t-54 -232v-322q0 -12 -3 -16t-17 -4h-216zM318 1280q10 12 15 16 t17 4h260q20 0 20 -4t-12 -16l-254 -248q-8 -8 -16 -14t-22 -6h-176q-14 0 -14 4q0 6 8 16z" />
<glyph unicode="&#x156;" horiz-adv-x="1178" d="M406 20q0 -14 -3 -17t-17 -3h-250q-14 0 -18 3t-4 17v1360q0 14 3 17t17 3h358q126 0 209 -14t159 -58q86 -48 143 -137t57 -221q0 -158 -81 -266t-217 -148q-8 -2 -8 -10q0 -4 4 -8q102 -132 202 -259t202 -259q10 -14 10 -16q0 -4 -18 -4h-310q-14 0 -19 3t-15 17 l-370 494q-10 16 -22 16q-10 0 -11 -5t-1 -15v-490zM426 1148q-14 0 -17 -3t-3 -17v-352q0 -14 3 -17t17 -3h110q108 0 166 45t58 149q0 92 -55 145t-175 53h-104zM482 -104q2 12 4 16t16 4h194q26 0 18 -20l-96 -324q-4 -12 -8 -16t-18 -4h-114q-20 0 -20 20z" />
<glyph unicode="&#x157;" horiz-adv-x="666" d="M108 0q-14 0 -17 4t-3 16v842q0 12 3 16t17 4h212q14 0 17 -4t3 -16v-104q0 -4 8 -4q6 0 8 2q16 26 42 52t60 47t75 35t87 14q14 0 17 -4t3 -16v-210q0 -22 -12 -22q-6 0 -22 2t-40 2q-114 0 -168 -82t-54 -232v-322q0 -12 -3 -16t-17 -4h-216zM130 -104q2 12 4 16t16 4 h194q26 0 18 -20l-96 -324q-4 -12 -8 -16t-18 -4h-114q-20 0 -20 20z" />
<glyph unicode="&#x158;" horiz-adv-x="1178" d="M406 20q0 -14 -3 -17t-17 -3h-250q-14 0 -18 3t-4 17v1360q0 14 3 17t17 3h358q126 0 209 -14t159 -58q86 -48 143 -137t57 -221q0 -158 -81 -266t-217 -148q-8 -2 -8 -10q0 -4 4 -8q102 -132 202 -259t202 -259q10 -14 10 -16q0 -4 -18 -4h-310q-14 0 -19 3t-15 17 l-370 494q-10 16 -22 16q-10 0 -11 -5t-1 -15v-490zM426 1148q-14 0 -17 -3t-3 -17v-352q0 -14 3 -17t17 -3h110q108 0 166 45t58 149q0 92 -55 145t-175 53h-104zM660 1520q-16 -20 -38 -20h-212q-24 0 -38 20l-216 248q-6 8 -6 14t12 6h184q14 0 20 -6l14 -14l120 -128 q4 -4 12 -4t12 4l116 128l14 14t20 6h188q12 0 12 -6t-6 -14z" />
<glyph unicode="&#x159;" horiz-adv-x="666" d="M108 0q-14 0 -17 4t-3 16v842q0 12 3 16t17 4h212q14 0 17 -4t3 -16v-104q0 -4 8 -4q6 0 8 2q16 26 42 52t60 47t75 35t87 14q14 0 17 -4t3 -16v-210q0 -22 -12 -22q-6 0 -22 2t-40 2q-114 0 -168 -82t-54 -232v-322q0 -12 -3 -16t-17 -4h-216zM480 1032q-16 -20 -38 -20 h-212q-24 0 -38 20l-216 248q-6 8 -6 14t12 6h184q14 0 20 -6l14 -14l120 -128q4 -4 12 -4t12 4l116 128l14 14t20 6h188q12 0 12 -6t-6 -14z" />
<glyph unicode="&#x15a;" horiz-adv-x="1074" d="M286 398q52 -80 110 -121t138 -41q74 0 124 40t50 104t-44 107t-110 79t-144 73t-144 88t-110 124t-44 183q0 82 33 154t92 125t142 83t183 30q64 0 127 -14t120 -39t105 -62t80 -85q6 -10 6 -14q0 -6 -10 -16l-194 -148q-10 -10 -14 -10q-6 0 -14 12q-28 50 -73 83 t-121 33q-70 0 -111 -38t-41 -96t45 -96t112 -72t145 -70t145 -89t112 -130t45 -191q0 -88 -31 -163t-93 -130t-152 -86t-208 -31q-82 0 -156 19t-137 53t-112 78t-83 96q-6 8 -6 16q0 6 10 14l198 152q10 8 16 8t14 -12zM560 1768q10 12 15 16t17 4h260q20 0 20 -4t-12 -16 l-254 -248q-8 -8 -16 -14t-22 -6h-176q-14 0 -14 4q0 6 8 16z" />
<glyph unicode="&#x15b;" horiz-adv-x="812" d="M738 768q4 -6 4 -14t-8 -16l-132 -102q-12 -8 -16 -8t-14 10q-22 24 -59 45t-87 21q-40 0 -68 -17t-28 -51q0 -32 32 -51t79 -35t103 -34t103 -50t79 -84t32 -132q0 -54 -22 -104t-66 -87t-109 -59t-151 -22q-132 0 -216 49t-140 115q-4 6 -4 14t8 16l140 108q8 6 14 6 q10 0 16 -10q34 -42 76 -68t94 -26q46 0 74 18t28 54q0 32 -31 50t-78 34t-102 34t-102 50t-78 84t-31 134q0 54 23 102t66 84t105 57t140 21q100 0 187 -39t139 -97zM400 1280q10 12 15 16t17 4h260q20 0 20 -4t-12 -16l-254 -248q-8 -8 -16 -14t-22 -6h-176q-14 0 -14 4 q0 6 8 16z" />
<glyph unicode="&#x15c;" horiz-adv-x="1074" d="M286 398q52 -80 110 -121t138 -41q74 0 124 40t50 104t-44 107t-110 79t-144 73t-144 88t-110 124t-44 183q0 82 33 154t92 125t142 83t183 30q64 0 127 -14t120 -39t105 -62t80 -85q6 -10 6 -14q0 -6 -10 -16l-194 -148q-10 -10 -14 -10q-6 0 -14 12q-28 50 -73 83 t-121 33q-70 0 -111 -38t-41 -96t45 -96t112 -72t145 -70t145 -89t112 -130t45 -191q0 -88 -31 -163t-93 -130t-152 -86t-208 -31q-82 0 -156 19t-137 53t-112 78t-83 96q-6 8 -6 16q0 6 10 14l198 152q10 8 16 8t14 -12zM412 1768q10 12 18 16t20 4h212q22 0 38 -20 l216 -248q6 -8 6 -14t-12 -6h-184q-14 0 -20 6l-14 14l-120 128q-4 4 -12 4t-12 -4l-116 -128l-14 -14t-20 -6h-188q-12 0 -12 6t6 14z" />
<glyph unicode="&#x15d;" horiz-adv-x="812" d="M738 768q4 -6 4 -14t-8 -16l-132 -102q-12 -8 -16 -8t-14 10q-22 24 -59 45t-87 21q-40 0 -68 -17t-28 -51q0 -32 32 -51t79 -35t103 -34t103 -50t79 -84t32 -132q0 -54 -22 -104t-66 -87t-109 -59t-151 -22q-132 0 -216 49t-140 115q-4 6 -4 14t8 16l140 108q8 6 14 6 q10 0 16 -10q34 -42 76 -68t94 -26q46 0 74 18t28 54q0 32 -31 50t-78 34t-102 34t-102 50t-78 84t-31 134q0 54 23 102t66 84t105 57t140 21q100 0 187 -39t139 -97zM258 1280q10 12 18 16t20 4h212q22 0 38 -20l216 -248q6 -8 6 -14t-12 -6h-184q-14 0 -20 6l-14 14 l-120 128q-4 4 -12 4t-12 -4l-116 -128l-14 -14t-20 -6h-188q-12 0 -12 6t6 14z" />
<glyph unicode="&#x15e;" horiz-adv-x="1074" d="M286 398q52 -80 110 -121t138 -41q74 0 124 40t50 104t-44 107t-110 79t-144 73t-144 88t-110 124t-44 183q0 82 33 154t92 125t142 83t183 30q64 0 127 -14t120 -39t105 -62t80 -85q6 -10 6 -14q0 -6 -10 -16l-194 -148q-10 -10 -14 -10q-6 0 -14 12q-28 50 -73 83 t-121 33q-70 0 -111 -38t-41 -96t45 -96t112 -72t145 -70t145 -89t112 -130t45 -191q0 -88 -31 -163t-93 -130t-152 -86t-208 -31q-82 0 -156 19t-137 53t-112 78t-83 96q-6 8 -6 16q0 6 10 14l198 152q10 8 16 8t14 -12zM432 22q44 0 91 -13t85 -40t62 -66t24 -93 q0 -102 -64 -171t-166 -69q-32 0 -78 9t-74 29q-12 10 -10 24l20 110q4 16 8 16q6 0 10 -4q22 -16 43 -25t51 -9q44 0 67 23t23 61q0 48 -32 70t-72 22q-12 0 -27 -1t-21 -1q-10 0 -13 2t-3 14l20 112h56z" />
<glyph unicode="&#x15f;" horiz-adv-x="812" d="M738 768q4 -6 4 -14t-8 -16l-132 -102q-12 -8 -16 -8t-14 10q-22 24 -59 45t-87 21q-40 0 -68 -17t-28 -51q0 -32 32 -51t79 -35t103 -34t103 -50t79 -84t32 -132q0 -54 -22 -104t-66 -87t-109 -59t-151 -22q-132 0 -216 49t-140 115q-4 6 -4 14t8 16l140 108q8 6 14 6 q10 0 16 -10q34 -42 76 -68t94 -26q46 0 74 18t28 54q0 32 -31 50t-78 34t-102 34t-102 50t-78 84t-31 134q0 54 23 102t66 84t105 57t140 21q100 0 187 -39t139 -97zM286 22q44 0 91 -13t85 -40t62 -66t24 -93q0 -102 -64 -171t-166 -69q-32 0 -78 9t-74 29q-12 10 -10 24 l20 110q4 16 8 16q6 0 10 -4q22 -16 43 -25t51 -9q44 0 67 23t23 61q0 48 -32 70t-72 22q-12 0 -27 -1t-21 -1q-10 0 -13 2t-3 14l20 112h56z" />
<glyph unicode="&#x160;" horiz-adv-x="1074" d="M286 398q52 -80 110 -121t138 -41q74 0 124 40t50 104t-44 107t-110 79t-144 73t-144 88t-110 124t-44 183q0 82 33 154t92 125t142 83t183 30q64 0 127 -14t120 -39t105 -62t80 -85q6 -10 6 -14q0 -6 -10 -16l-194 -148q-10 -10 -14 -10q-6 0 -14 12q-28 50 -73 83 t-121 33q-70 0 -111 -38t-41 -96t45 -96t112 -72t145 -70t145 -89t112 -130t45 -191q0 -88 -31 -163t-93 -130t-152 -86t-208 -31q-82 0 -156 19t-137 53t-112 78t-83 96q-6 8 -6 16q0 6 10 14l198 152q10 8 16 8t14 -12zM694 1520q-16 -20 -38 -20h-212q-24 0 -38 20 l-216 248q-6 8 -6 14t12 6h184q14 0 20 -6l14 -14l120 -128q4 -4 12 -4t12 4l116 128l14 14t20 6h188q12 0 12 -6t-6 -14z" />
<glyph unicode="&#x161;" horiz-adv-x="812" d="M738 768q4 -6 4 -14t-8 -16l-132 -102q-12 -8 -16 -8t-14 10q-22 24 -59 45t-87 21q-40 0 -68 -17t-28 -51q0 -32 32 -51t79 -35t103 -34t103 -50t79 -84t32 -132q0 -54 -22 -104t-66 -87t-109 -59t-151 -22q-132 0 -216 49t-140 115q-4 6 -4 14t8 16l140 108q8 6 14 6 q10 0 16 -10q34 -42 76 -68t94 -26q46 0 74 18t28 54q0 32 -31 50t-78 34t-102 34t-102 50t-78 84t-31 134q0 54 23 102t66 84t105 57t140 21q100 0 187 -39t139 -97zM554 1032q-16 -20 -38 -20h-212q-24 0 -38 20l-216 248q-6 8 -6 14t12 6h184q14 0 20 -6l14 -14l120 -128 q4 -4 12 -4t12 4l116 128l14 14t20 6h188q12 0 12 -6t-6 -14z" />
<glyph unicode="&#x162;" horiz-adv-x="1002" d="M46 1380q0 14 3 17t17 3h870q14 0 17 -3t3 -17v-224q0 -14 -3 -17t-17 -3h-270q-14 0 -17 -3t-3 -17v-1096q0 -14 -3 -17t-17 -3h-252q-14 0 -17 3t-3 17v1096q0 14 -3 17t-17 3h-268q-14 0 -17 3t-3 17v224zM386 -104q2 12 4 16t16 4h194q26 0 18 -20l-96 -324 q-4 -12 -8 -16t-18 -4h-114q-20 0 -20 20z" />
<glyph unicode="&#x163;" horiz-adv-x="602" d="M64 666q-14 0 -17 4t-3 16v176q0 12 3 16t17 4h82q14 0 17 3t3 17v258q0 20 20 32l212 104q4 2 7 4t7 2q10 0 10 -16v-384q0 -14 3 -17t17 -3h122q14 0 17 -4t3 -16v-176q0 -12 -3 -16t-17 -4h-122q-14 0 -17 -3t-3 -17v-626q0 -12 -3 -16t-17 -4h-216q-14 0 -17 4t-3 16 v626q0 14 -3 17t-17 3h-82zM194 -104q2 12 4 16t16 4h194q26 0 18 -20l-96 -324q-4 -12 -8 -16t-18 -4h-114q-20 0 -20 20z" />
<glyph unicode="&#x164;" horiz-adv-x="1002" d="M46 1380q0 14 3 17t17 3h870q14 0 17 -3t3 -17v-224q0 -14 -3 -17t-17 -3h-270q-14 0 -17 -3t-3 -17v-1096q0 -14 -3 -17t-17 -3h-252q-14 0 -17 3t-3 17v1096q0 14 -3 17t-17 3h-268q-14 0 -17 3t-3 17v224zM648 1520q-16 -20 -38 -20h-212q-24 0 -38 20l-216 248 q-6 8 -6 14t12 6h184q14 0 20 -6l14 -14l120 -128q4 -4 12 -4t12 4l116 128l14 14t20 6h188q12 0 12 -6t-6 -14z" />
<glyph unicode="&#x165;" horiz-adv-x="628" d="M64 666q-14 0 -17 4t-3 16v176q0 12 3 16t17 4h82q14 0 17 3t3 17v258q0 20 20 32l212 104q4 2 7 4t7 2q10 0 10 -16v-384q0 -14 3 -17t17 -3h122q14 0 17 -4t3 -16v-176q0 -12 -3 -16t-17 -4h-122q-14 0 -17 -3t-3 -17v-626q0 -12 -3 -16t-17 -4h-216q-14 0 -17 4t-3 16 v626q0 14 -3 17t-17 3h-82zM506 1480q2 12 4 16t16 4h194q26 0 18 -20l-96 -324q-4 -12 -8 -16t-18 -4h-114q-20 0 -20 20z" />
<glyph unicode="&#x166;" horiz-adv-x="1002" d="M336 882q14 0 17 3t3 17v214q0 14 -3 17t-17 3h-270q-14 0 -17 3t-3 17v224q0 14 3 17t17 3h870q14 0 17 -3t3 -17v-224q0 -14 -3 -17t-17 -3h-272q-14 0 -17 -3t-3 -17v-214q0 -14 3 -17t17 -3h232q14 0 17 -3t3 -17v-140q0 -14 -3 -17t-17 -3h-232q-14 0 -17 -3t-3 -17 v-662q0 -14 -3 -17t-17 -3h-248q-14 0 -17 3t-3 17v662q0 14 -3 17t-17 3h-230q-14 0 -17 3t-3 17v140q0 14 4 17t16 3h230z" />
<glyph unicode="&#x167;" horiz-adv-x="602" d="M416 20q0 -12 -3 -16t-17 -4h-216q-14 0 -17 4t-3 16v312h-84q-14 0 -17 3t-3 17v124q0 14 4 17t16 3h84v150q0 14 -3 17t-17 3h-82q-14 0 -17 4t-3 16v176q0 12 3 16t17 4h82q14 0 17 3t3 17v258q0 20 20 32l212 104q4 2 7 4t7 2q10 0 10 -16v-384q0 -14 3 -17t17 -3 h122q14 0 17 -4t3 -16v-176q0 -12 -3 -16t-17 -4h-122q-14 0 -17 -3t-3 -17v-150h120q14 0 17 -3t3 -17v-124q0 -14 -3 -17t-17 -3h-120v-312z" />
<glyph unicode="&#x168;" horiz-adv-x="1266" d="M858 1380q0 14 3 17t17 3h252q14 0 17 -3t3 -17v-948q0 -114 -42 -200t-113 -143t-165 -86t-196 -29t-196 29t-165 86t-113 143t-42 200v948q0 14 3 17t17 3h252q14 0 17 -3t3 -17v-872q0 -68 17 -114t47 -75t71 -42t89 -13q98 0 161 54t63 190v872zM978 1692 q0 -80 -57 -137t-147 -57q-64 0 -102 20t-64 45t-48 45t-54 20q-28 0 -48 -19t-20 -53v-12q0 -12 -3 -16t-17 -4h-114q-14 0 -17 4t-3 16v48q0 40 17 75t45 62t67 43t83 16q62 0 99 -20t62 -45t46 -45t53 -20q28 0 48 18t20 52v14q0 12 3 16t17 4h114q14 0 17 -4t3 -16v-50z " />
<glyph unicode="&#x169;" horiz-adv-x="984" d="M492 -22q-100 0 -174 30t-122 81t-72 121t-24 152v500q0 12 3 16t17 4h218q14 0 17 -4t3 -16v-496q0 -88 36 -126t98 -38t98 38t36 126v496q0 12 3 16t17 4h218q14 0 17 -4t3 -16v-500q0 -82 -24 -152t-72 -121t-122 -81t-174 -30zM838 1204q0 -80 -57 -137t-147 -57 q-64 0 -102 20t-64 45t-48 45t-54 20q-28 0 -48 -19t-20 -53v-12q0 -12 -3 -16t-17 -4h-114q-14 0 -17 4t-3 16v48q0 40 17 75t45 62t67 43t83 16q62 0 99 -20t62 -45t46 -45t53 -20q28 0 48 18t20 52v14q0 12 3 16t17 4h114q14 0 17 -4t3 -16v-50z" />
<glyph unicode="&#x16a;" horiz-adv-x="1266" d="M858 1380q0 14 3 17t17 3h252q14 0 17 -3t3 -17v-948q0 -114 -42 -200t-113 -143t-165 -86t-196 -29t-196 29t-165 86t-113 143t-42 200v948q0 14 3 17t17 3h252q14 0 17 -3t3 -17v-872q0 -68 17 -114t47 -75t71 -42t89 -13q98 0 161 54t63 190v872zM302 1700q0 14 4 17 t16 3h620q14 0 17 -3t3 -17v-112q0 -14 -3 -17t-17 -3h-620q-14 0 -17 3t-3 17v112z" />
<glyph unicode="&#x16b;" horiz-adv-x="984" d="M492 -22q-100 0 -174 30t-122 81t-72 121t-24 152v500q0 12 3 16t17 4h218q14 0 17 -4t3 -16v-496q0 -88 36 -126t98 -38t98 38t36 126v496q0 12 3 16t17 4h218q14 0 17 -4t3 -16v-500q0 -82 -24 -152t-72 -121t-122 -81t-174 -30zM162 1212q0 14 4 17t16 3h620 q14 0 17 -3t3 -17v-112q0 -14 -3 -17t-17 -3h-620q-14 0 -17 3t-3 17v112z" />
<glyph unicode="&#x16c;" horiz-adv-x="1266" d="M858 1380q0 14 3 17t17 3h252q14 0 17 -3t3 -17v-948q0 -114 -42 -200t-113 -143t-165 -86t-196 -29t-196 29t-165 86t-113 143t-42 200v948q0 14 3 17t17 3h252q14 0 17 -3t3 -17v-872q0 -68 17 -114t47 -75t71 -42t89 -13q98 0 161 54t63 190v872zM632 1646q54 0 88 27 t46 95q4 20 26 20h146q16 0 12 -20q-24 -154 -110 -216t-208 -62t-208 62t-110 216q-6 20 12 20h146q22 0 26 -20q12 -68 48 -95t86 -27z" />
<glyph unicode="&#x16d;" horiz-adv-x="984" d="M492 -22q-100 0 -174 30t-122 81t-72 121t-24 152v500q0 12 3 16t17 4h218q14 0 17 -4t3 -16v-496q0 -88 36 -126t98 -38t98 38t36 126v496q0 12 3 16t17 4h218q14 0 17 -4t3 -16v-500q0 -82 -24 -152t-72 -121t-122 -81t-174 -30zM492 1160q54 0 88 27t46 95q4 20 26 20 h146q16 0 12 -20q-24 -154 -110 -216t-208 -62t-208 62t-110 216q-6 20 12 20h146q22 0 26 -20q12 -68 48 -95t86 -27z" />
<glyph unicode="&#x16e;" horiz-adv-x="1266" d="M858 1380q0 14 3 17t17 3h252q14 0 17 -3t3 -17v-948q0 -114 -42 -200t-113 -143t-165 -86t-196 -29t-196 29t-165 86t-113 143t-42 200v948q0 14 3 17t17 3h252q14 0 17 -3t3 -17v-872q0 -68 17 -114t47 -75t71 -42t89 -13q98 0 161 54t63 190v872zM632 1610q32 0 54 22 t22 56q0 32 -21 54t-55 22t-55 -22t-21 -56t22 -55t54 -21zM632 1496q-76 0 -133 51t-57 139q0 80 54 136t136 56q40 0 75 -15t60 -41t40 -61t15 -73q0 -40 -15 -74t-41 -61t-61 -42t-73 -15z" />
<glyph unicode="&#x16f;" horiz-adv-x="984" d="M492 -22q-100 0 -174 30t-122 81t-72 121t-24 152v500q0 12 3 16t17 4h218q14 0 17 -4t3 -16v-496q0 -88 36 -126t98 -38t98 38t36 126v496q0 12 3 16t17 4h218q14 0 17 -4t3 -16v-500q0 -82 -24 -152t-72 -121t-122 -81t-174 -30zM492 1122q32 0 54 22t22 56 q0 32 -21 54t-55 22t-55 -22t-21 -56t22 -55t54 -21zM492 1008q-76 0 -133 51t-57 139q0 80 54 136t136 56q40 0 75 -15t60 -41t40 -61t15 -73q0 -40 -15 -74t-41 -61t-61 -42t-73 -15z" />
<glyph unicode="&#x170;" horiz-adv-x="1266" d="M858 1380q0 14 3 17t17 3h252q14 0 17 -3t3 -17v-948q0 -114 -42 -200t-113 -143t-165 -86t-196 -29t-196 29t-165 86t-113 143t-42 200v948q0 14 3 17t17 3h252q14 0 17 -3t3 -17v-872q0 -68 17 -114t47 -75t71 -42t89 -13q98 0 161 54t63 190v872zM492 1768 q10 12 15 16t17 4h260q20 0 20 -4t-12 -16q-64 -64 -127 -124t-127 -124q-8 -8 -16 -14t-22 -6h-176q-14 0 -14 4q0 6 8 16zM888 1768q10 12 15 16t17 4h260q20 0 20 -4t-12 -16q-64 -64 -127 -124t-127 -124q-8 -8 -16 -14t-22 -6h-176q-14 0 -14 4q0 6 8 16z" />
<glyph unicode="&#x171;" horiz-adv-x="984" d="M492 -22q-100 0 -174 30t-122 81t-72 121t-24 152v500q0 12 3 16t17 4h218q14 0 17 -4t3 -16v-496q0 -88 36 -126t98 -38t98 38t36 126v496q0 12 3 16t17 4h218q14 0 17 -4t3 -16v-500q0 -82 -24 -152t-72 -121t-122 -81t-174 -30zM330 1280q10 12 15 16t17 4h260 q20 0 20 -4t-12 -16q-64 -64 -127 -124t-127 -124q-8 -8 -16 -14t-22 -6h-176q-14 0 -14 4q0 6 8 16zM726 1280q10 12 15 16t17 4h260q20 0 20 -4t-12 -16q-64 -64 -127 -124t-127 -124q-8 -8 -16 -14t-22 -6h-176q-14 0 -14 4q0 6 8 16z" />
<glyph unicode="&#x172;" horiz-adv-x="1266" d="M858 1380q0 14 3 17t17 3h252q14 0 17 -3t3 -17v-948q0 -114 -42 -200t-113 -143t-165 -86t-196 -29t-196 29t-165 86t-113 143t-42 200v948q0 14 3 17t17 3h252q14 0 17 -3t3 -17v-872q0 -68 17 -114t47 -75t71 -42t89 -13q98 0 161 54t63 190v872zM842 -402 q-54 0 -103 14t-86 41t-60 68t-23 93q0 64 31 119t85 107l162 -30q-34 -42 -59 -80t-35 -86q-8 -40 20 -66t74 -26q38 0 78 16q4 2 10 2q6 -2 6 -18v-116q0 -16 -14 -22q-36 -16 -86 -16z" />
<glyph unicode="&#x173;" horiz-adv-x="984" d="M492 -22q-100 0 -174 30t-122 81t-72 121t-24 152v500q0 12 3 16t17 4h218q14 0 17 -4t3 -16v-496q0 -88 36 -126t98 -38t98 38t36 126v496q0 12 3 16t17 4h218q14 0 17 -4t3 -16v-500q0 -82 -24 -152t-72 -121t-122 -81t-174 -30zM666 -402q-54 0 -103 14t-86 41t-60 68 t-23 93q0 64 31 119t85 107l162 -30q-34 -42 -59 -80t-35 -86q-8 -40 20 -66t74 -26q38 0 78 16q4 2 10 2q6 -2 6 -18v-116q0 -16 -14 -22q-36 -16 -86 -16z" />
<glyph unicode="&#x174;" horiz-adv-x="1814" d="M920 768q-4 6 -12 6t-10 -6l-300 -794q-2 -4 -9 -6t-11 -2t-10 2t-8 6l-542 1406q-4 8 -4 14t12 6h276q16 0 24 -20l252 -726q2 -6 12 -6q6 0 10 6l286 760q8 20 26 20t26 -20l288 -760q2 -6 10 -6q6 0 10 6l256 726q8 20 24 20h272q12 0 12 -6t-4 -14l-548 -1406 q-2 -4 -8 -6t-10 -2t-11 2t-9 6zM758 1768q10 12 18 16t20 4h212q22 0 38 -20l216 -248q6 -8 6 -14t-12 -6h-184q-14 0 -20 6l-14 14l-120 128q-4 4 -12 4t-12 -4l-116 -128l-14 -14t-20 -6h-188q-12 0 -12 6t6 14z" />
<glyph unicode="&#x175;" horiz-adv-x="1296" d="M448 -18q-6 -18 -24 -18q-14 0 -22 18l-408 880l-4 12q0 8 18 8h228q12 0 16 -4t10 -16l164 -388q2 -6 12 -6q8 0 12 6l178 410q8 20 20 20t20 -20l180 -410q2 -6 12 -6q8 0 12 6l162 388q6 12 10 16t16 4h228q18 0 18 -8l-4 -12l-404 -880q-4 -10 -8 -14t-14 -4 q-16 0 -24 18l-190 436q-4 6 -12 6q-10 0 -12 -6zM500 1280q10 12 18 16t20 4h212q22 0 38 -20l216 -248q6 -8 6 -14t-12 -6h-184q-14 0 -20 6l-14 14l-120 128q-4 4 -12 4t-12 -4l-116 -128l-14 -14t-20 -6h-188q-12 0 -12 6t6 14z" />
<glyph unicode="&#x176;" horiz-adv-x="1192" d="M450 644l-438 736q-4 8 -4 12q0 8 12 8h292q16 0 26 -20l250 -432q2 -6 10 -6q6 0 10 6l252 432q8 14 12 17t14 3h286q12 0 12 -8q0 -4 -4 -12l-438 -736v-624q0 -14 -3 -17t-17 -3h-252q-14 0 -17 3t-3 17v624zM448 1768q10 12 18 16t20 4h212q22 0 38 -20l216 -248 q6 -8 6 -14t-12 -6h-184q-14 0 -20 6l-14 14l-120 128q-4 4 -12 4t-12 -4l-116 -128l-14 -14t-20 -6h-188q-12 0 -12 6t6 14z" />
<glyph unicode="&#x177;" horiz-adv-x="958" d="M470 348q2 -6 8 -6q4 0 8 6l208 514q6 12 10 16t16 4h230q18 0 18 -8l-4 -12q-136 -322 -270 -642t-270 -642q-6 -12 -10 -16t-16 -4h-228q-18 0 -18 8l4 12l182 442q4 10 4 18t-4 18l-334 806l-4 12q0 8 18 8h224q12 0 16 -4t10 -16zM330 1280q10 12 18 16t20 4h212 q22 0 38 -20l216 -248q6 -8 6 -14t-12 -6h-184q-14 0 -20 6l-14 14l-120 128q-4 4 -12 4t-12 -4l-116 -128l-14 -14t-20 -6h-188q-12 0 -12 6t6 14z" />
<glyph unicode="&#x178;" horiz-adv-x="1192" d="M450 644l-438 736q-4 8 -4 12q0 8 12 8h292q16 0 26 -20l250 -432q2 -6 10 -6q6 0 10 6l252 432q8 14 12 17t14 3h286q12 0 12 -8q0 -4 -4 -12l-438 -736v-624q0 -14 -3 -17t-17 -3h-252q-14 0 -17 3t-3 17v624zM798 1532q-56 0 -97 39t-41 101q0 60 40 101t98 41 q60 0 99 -42t39 -98q0 -58 -40 -100t-98 -42zM394 1532q-56 0 -97 39t-41 101q0 60 39 101t99 41t99 -42t39 -98q0 -58 -40 -100t-98 -42z" />
<glyph unicode="&#x179;" horiz-adv-x="1014" d="M464 294q-4 -8 -4 -18q0 -12 12 -12h442q14 0 17 -3t3 -17v-224q0 -14 -3 -17t-17 -3h-874q-14 0 -14 10q0 4 4 12l520 1084q6 12 6 20q0 10 -14 10h-436q-14 0 -17 3t-3 17v224q0 14 3 17t17 3h862q14 0 14 -8q0 -4 -4 -12zM536 1768q10 12 15 16t17 4h260q20 0 20 -4 t-12 -16l-254 -248q-8 -8 -16 -14t-22 -6h-176q-14 0 -14 4q0 6 8 16z" />
<glyph unicode="&#x17a;" horiz-adv-x="756" d="M400 246q-6 -12 -6 -18q0 -12 12 -12h278q14 0 17 -3t3 -17v-176q0 -14 -3 -17t-17 -3h-648q-14 0 -14 10q0 4 4 12l330 614q6 12 6 20q0 10 -12 10h-268q-14 0 -17 3t-3 17v176q0 14 3 17t17 3h638q14 0 14 -8q0 -4 -4 -12zM392 1280q10 12 15 16t17 4h260q20 0 20 -4 t-12 -16l-254 -248q-8 -8 -16 -14t-22 -6h-176q-14 0 -14 4q0 6 8 16z" />
<glyph unicode="&#x17b;" horiz-adv-x="1014" d="M464 294q-4 -8 -4 -18q0 -12 12 -12h442q14 0 17 -3t3 -17v-224q0 -14 -3 -17t-17 -3h-874q-14 0 -14 10q0 4 4 12l520 1084q6 12 6 20q0 10 -14 10h-436q-14 0 -17 3t-3 17v224q0 14 3 17t17 3h862q14 0 14 -8q0 -4 -4 -12zM366 1646q0 66 44 110t110 44t110 -44 t44 -110t-44 -110t-110 -44t-110 44t-44 110z" />
<glyph unicode="&#x17c;" horiz-adv-x="756" d="M400 246q-6 -12 -6 -18q0 -12 12 -12h278q14 0 17 -3t3 -17v-176q0 -14 -3 -17t-17 -3h-648q-14 0 -14 10q0 4 4 12l330 614q6 12 6 20q0 10 -12 10h-268q-14 0 -17 3t-3 17v176q0 14 3 17t17 3h638q14 0 14 -8q0 -4 -4 -12zM244 1202q0 66 44 110t110 44t110 -44 t44 -110t-44 -110t-110 -44t-110 44t-44 110z" />
<glyph unicode="&#x17d;" horiz-adv-x="1014" d="M464 294q-4 -8 -4 -18q0 -12 12 -12h442q14 0 17 -3t3 -17v-224q0 -14 -3 -17t-17 -3h-874q-14 0 -14 10q0 4 4 12l520 1084q6 12 6 20q0 10 -14 10h-436q-14 0 -17 3t-3 17v224q0 14 3 17t17 3h862q14 0 14 -8q0 -4 -4 -12zM666 1520q-16 -20 -38 -20h-212q-24 0 -38 20 l-216 248q-6 8 -6 14t12 6h184q14 0 20 -6l14 -14l120 -128q4 -4 12 -4t12 4l116 128l14 14t20 6h188q12 0 12 -6t-6 -14z" />
<glyph unicode="&#x17e;" horiz-adv-x="756" d="M400 246q-6 -12 -6 -18q0 -12 12 -12h278q14 0 17 -3t3 -17v-176q0 -14 -3 -17t-17 -3h-648q-14 0 -14 10q0 4 4 12l330 614q6 12 6 20q0 10 -12 10h-268q-14 0 -17 3t-3 17v176q0 14 3 17t17 3h638q14 0 14 -8q0 -4 -4 -12zM526 1032q-16 -20 -38 -20h-212q-24 0 -38 20 l-216 248q-6 8 -6 14t12 6h184q14 0 20 -6l14 -14l120 -128q4 -4 12 -4t12 4l116 128l14 14t20 6h188q12 0 12 -6t-6 -14z" />
<glyph unicode="&#x17f;" horiz-adv-x="464" d="M350 20q0 -12 -3 -16t-17 -4h-216q-14 0 -17 4t-3 16v1184q0 160 72 242t228 82q22 0 42 -2t36 -4q20 -2 38 -4q12 -4 16 -7t4 -17v-174q0 -22 -20 -16q-16 4 -30 6t-26 2q-104 0 -104 -136v-1156z" />
<glyph unicode="&#x180;" horiz-adv-x="1100" d="M92 1480q0 12 3 16t17 4h218q14 0 17 -4t3 -16v-236q2 -4 18 -4h162q14 0 17 -4t3 -16v-124q0 -12 -3 -16t-17 -4h-162q-16 0 -18 -6v-274q0 -4 8 -4q6 0 8 2q40 46 109 78t155 32q92 0 169 -35t132 -97t85 -146t30 -182t-30 -183t-85 -148t-132 -99t-169 -36 q-86 0 -155 32t-109 78q-2 2 -8 2q-8 0 -8 -4v-66q0 -12 -3 -16t-17 -4h-218q-14 0 -17 4t-3 16v1044q-2 12 -20 12h-68q-14 0 -17 4t-3 16v124q0 12 3 16t17 4h68q18 0 20 10v10v220zM786 444q0 48 -15 91t-43 76t-69 52t-93 19t-93 -19t-70 -52t-44 -76t-15 -91 q0 -50 15 -95t44 -78t70 -52t93 -19t93 19t69 52t43 78t15 95z" />
<glyph unicode="&#x18f;" horiz-adv-x="1458" d="M1068 858q-12 64 -42 116t-79 89t-118 57t-161 20q-138 0 -247 -36t-169 -96q-4 -4 -9 -7t-11 -3q-12 0 -12 32v260q0 12 5 16t21 16q30 22 76 41t103 33t118 22t121 8q186 0 323 -57t227 -155t135 -231t45 -285q0 -150 -47 -281t-134 -230t-208 -156t-271 -57 q-160 0 -285 59t-210 158t-130 230t-45 277v98q0 22 4 28t26 6h940q22 0 28 4t6 24zM732 260q76 0 136 25t103 66t69 95t36 112q0 22 -5 27t-27 5h-618q-24 0 -29 -5t-3 -27q8 -64 36 -118t71 -94t102 -63t129 -23z" />
<glyph unicode="&#x192;" horiz-adv-x="720" d="M326 46q-14 -76 -39 -141t-65 -112t-96 -74t-132 -27q-52 0 -82 6q-18 4 -34 8q-12 4 -15 8t-1 14l20 156q2 26 24 20q6 -2 14 -4q16 -4 32 -4q44 0 78 32t50 122l92 532q4 14 1 17t-17 3h-108q-14 0 -17 4t-3 16v136q0 12 3 16t17 4h134q14 0 16 3t6 17l50 268 q14 76 39 141t65 112t96 74t132 27q24 0 45 -2t37 -6q18 -4 34 -6q12 -4 15 -8t1 -14l-20 -156q-4 -22 -14 -22q-6 0 -10 2q-6 2 -14 4q-16 4 -32 4q-44 0 -78 -32t-50 -122l-46 -264q-4 -14 0 -17t18 -3h178q14 0 17 -4t3 -16v-136q0 -12 -3 -16t-17 -4h-204q-14 0 -18 -3 t-6 -17z" />
<glyph unicode="&#x195;" horiz-adv-x="1536" d="M1048 -22q-100 0 -173 30t-121 81t-71 121t-23 152v152q0 80 -28 122t-104 42q-90 0 -133 -62t-43 -164v-432q0 -12 -3 -16t-17 -4h-218q-14 0 -17 4t-3 16v1460q0 12 3 16t17 4h218q14 0 17 -4t3 -16v-694q0 -4 8 -4q6 0 8 2q64 58 127 89t145 31q80 0 134 -26t86 -71 t45 -107t13 -132v-202q0 -88 34 -126t96 -38t96 38t34 126v496q0 12 3 16t17 4h218q14 0 17 -4t3 -16v-500q0 -82 -23 -152t-71 -121t-121 -81t-173 -30z" />
<glyph unicode="&#x1a6;" horiz-adv-x="1138" d="M426 928q-14 0 -17 -3t-3 -17v-352q0 -14 3 -17t17 -3h110q108 0 166 45t58 149q0 92 -55 145t-175 53h-104zM492 1180q126 0 209 -14t159 -58q86 -48 143 -137t57 -221q0 -158 -81 -266t-217 -148q-8 -2 -8 -10q0 -4 4 -8q102 -132 202 -259t202 -259q10 -14 10 -16 q0 -4 -18 -4h-310q-14 0 -19 3t-15 17l-370 494q-10 16 -22 16q-10 0 -11 -5t-1 -15v-270q0 -14 -3 -17t-17 -3h-250q-14 0 -18 3t-4 17v1360q0 14 3 17t17 3h252q14 0 17 -3t3 -17v-180q0 -14 3 -17t17 -3h66z" />
<glyph unicode="&#x1cd;" horiz-adv-x="1212" d="M776 1520q-16 -20 -38 -20h-212q-24 0 -38 20l-216 248q-6 8 -6 14t12 6h184q14 0 20 -6l14 -14l120 -128q4 -4 12 -4t12 4l116 128l14 14t20 6h188q12 0 12 -6t-6 -14zM614 818q-4 6 -12 6q-10 0 -12 -6l-130 -362q-2 -4 -2 -10q0 -8 14 -8h262q16 0 16 6t-2 10z M584 1422q6 12 22 12q14 0 20 -12l584 -1402q2 -4 2 -12t-14 -8h-278q-12 0 -17 4t-9 16l-68 176q-4 14 -9 17t-15 3h-398q-18 0 -26 -20l-66 -176q-8 -20 -24 -20h-272q-16 0 -16 8q0 4 4 12z" />
<glyph unicode="&#x1ce;" horiz-adv-x="960" d="M620 298q0 52 -45 87t-115 35q-72 0 -116 -33t-44 -89q0 -58 44 -91t116 -33q70 0 115 35t45 89zM46 280q0 146 95 227t251 81q74 0 124 -14t88 -42q4 -2 8 -2q8 0 8 16v20q0 76 -41 108t-137 32q-62 0 -117 -16t-99 -40q-12 -6 -16 -6q-10 0 -10 16v164q0 16 16 24 q36 18 104 37t152 19q116 0 178 -16t110 -52q34 -26 56 -59t34 -82t17 -117t5 -160v-398q0 -12 -3 -16t-17 -4h-202q-14 0 -17 4t-3 16v64q0 4 -8 4q-6 0 -8 -2q-48 -56 -110 -81t-154 -25q-66 0 -121 22t-96 62t-64 95t-23 121zM668 1032q-16 -20 -38 -20h-212 q-24 0 -38 20l-216 248q-6 8 -6 14t12 6h184q14 0 20 -6l14 -14l120 -128q4 -4 12 -4t12 4l116 128l14 14t20 6h188q12 0 12 -6t-6 -14z" />
<glyph unicode="&#x1de;" horiz-adv-x="1212" d="M614 818q-4 6 -12 6q-10 0 -12 -6l-130 -362q-2 -4 -2 -10q0 -8 14 -8h262q16 0 16 6t-2 10zM584 1422q6 12 22 12q14 0 20 -12l584 -1402q2 -4 2 -12t-14 -8h-278q-12 0 -17 4t-9 16l-68 176q-4 14 -9 17t-15 3h-398q-18 0 -26 -20l-66 -176q-8 -20 -24 -20h-272 q-16 0 -16 8q0 4 4 12zM276 1970q0 14 4 17t16 3h620q14 0 17 -3t3 -17v-112q0 -14 -3 -17t-17 -3h-620q-14 0 -17 3t-3 17v112zM808 1492q-56 0 -97 39t-41 101q0 60 40 101t98 41q60 0 99 -42t39 -98q0 -58 -40 -100t-98 -42zM404 1492q-56 0 -97 39t-41 101q0 60 39 101 t99 41t99 -42t39 -98q0 -58 -40 -100t-98 -42z" />
<glyph unicode="&#x1df;" horiz-adv-x="960" d="M620 298q0 52 -45 87t-115 35q-72 0 -116 -33t-44 -89q0 -58 44 -91t116 -33q70 0 115 35t45 89zM46 280q0 146 95 227t251 81q74 0 124 -14t88 -42q4 -2 8 -2q8 0 8 16v20q0 76 -41 108t-137 32q-62 0 -117 -16t-99 -40q-12 -6 -16 -6q-10 0 -10 16v164q0 16 16 24 q36 18 104 37t152 19q116 0 178 -16t110 -52q34 -26 56 -59t34 -82t17 -117t5 -160v-398q0 -12 -3 -16t-17 -4h-202q-14 0 -17 4t-3 16v64q0 4 -8 4q-6 0 -8 -2q-48 -56 -110 -81t-154 -25q-66 0 -121 22t-96 62t-64 95t-23 121zM166 1452q0 14 4 17t16 3h620q14 0 17 -3 t3 -17v-112q0 -14 -3 -17t-17 -3h-620q-14 0 -17 3t-3 17v112zM698 974q-56 0 -97 39t-41 101q0 60 40 101t98 41q60 0 99 -42t39 -98q0 -58 -40 -100t-98 -42zM294 974q-56 0 -97 39t-41 101q0 60 39 101t99 41t99 -42t39 -98q0 -58 -40 -100t-98 -42z" />
<glyph unicode="&#x1e0;" horiz-adv-x="1212" d="M614 818q-4 6 -12 6q-10 0 -12 -6l-130 -362q-2 -4 -2 -10q0 -8 14 -8h262q16 0 16 6t-2 10zM584 1422q6 12 22 12q14 0 20 -12l584 -1402q2 -4 2 -12t-14 -8h-278q-12 0 -17 4t-9 16l-68 176q-4 14 -9 17t-15 3h-398q-18 0 -26 -20l-66 -176q-8 -20 -24 -20h-272 q-16 0 -16 8q0 4 4 12zM608 1496q-56 0 -97 39t-41 101q0 60 40 101t98 41q60 0 99 -42t39 -98q0 -58 -40 -100t-98 -42zM276 1970q0 14 4 17t16 3h620q14 0 17 -3t3 -17v-112q0 -14 -3 -17t-17 -3h-620q-14 0 -17 3t-3 17v112z" />
<glyph unicode="&#x1e1;" horiz-adv-x="960" d="M620 298q0 52 -45 87t-115 35q-72 0 -116 -33t-44 -89q0 -58 44 -91t116 -33q70 0 115 35t45 89zM46 280q0 146 95 227t251 81q74 0 124 -14t88 -42q4 -2 8 -2q8 0 8 16v20q0 76 -41 108t-137 32q-62 0 -117 -16t-99 -40q-12 -6 -16 -6q-10 0 -10 16v164q0 16 16 24 q36 18 104 37t152 19q116 0 178 -16t110 -52q34 -26 56 -59t34 -82t17 -117t5 -160v-398q0 -12 -3 -16t-17 -4h-202q-14 0 -17 4t-3 16v64q0 4 -8 4q-6 0 -8 -2q-48 -56 -110 -81t-154 -25q-66 0 -121 22t-96 62t-64 95t-23 121zM498 978q-56 0 -97 39t-41 101q0 60 40 101 t98 41q60 0 99 -42t39 -98q0 -58 -40 -100t-98 -42zM166 1452q0 14 4 17t16 3h620q14 0 17 -3t3 -17v-112q0 -14 -3 -17t-17 -3h-620q-14 0 -17 3t-3 17v112z" />
<glyph unicode="&#x1e2;" horiz-adv-x="1652" d="M760 0q-14 0 -17 3t-3 17v214q0 16 -20 16h-328q-20 0 -26 -20l-96 -210q-4 -14 -9 -17t-17 -3h-260q-16 0 -16 8t2 12l648 1360q10 20 30 20h870q14 0 17 -3t3 -17v-220q0 -14 -3 -17t-17 -3h-478q-14 0 -17 -3t-3 -17v-334q0 -14 3 -17t17 -3h468q14 0 17 -3t3 -17 v-214q0 -14 -3 -17t-17 -3h-468q-14 0 -17 -3t-3 -17v-212q0 -14 3 -17t17 -3h488q14 0 17 -3t3 -17v-220q0 -14 -3 -17t-17 -3h-768zM476 506l-4 -12q0 -8 18 -8h230q14 0 17 3t3 17v528q0 8 -10 8q-4 0 -8 -1t-6 -5zM740 1700q0 14 4 17t16 3h620q14 0 17 -3t3 -17v-112 q0 -14 -3 -17t-17 -3h-620q-14 0 -17 3t-3 17v112z" />
<glyph unicode="&#x1e3;" horiz-adv-x="1520" d="M1042 706q-76 0 -130 -49t-62 -119q0 -14 3 -17t17 -3h336q14 0 18 3t2 17q-8 76 -53 122t-131 46zM724 142q0 4 -8 4q-6 0 -8 -2q-20 -28 -51 -58t-74 -54t-100 -39t-127 -15q-72 0 -130 23t-98 62t-61 93t-21 118q0 138 91 223t247 85q72 0 126 -19t82 -41q4 -2 8 -2 q8 0 8 16v28q0 148 -196 148q-82 0 -131 -22t-71 -38q-6 -6 -8 -6q-14 0 -14 16v160q0 16 27 31t66 26t85 17t86 6q70 0 119 -14t82 -35t53 -46t32 -49q2 -4 8 -4q4 0 8 4q44 56 115 100t179 44t186 -36t129 -102t76 -156t25 -198v-42q0 -12 -3 -16t-17 -4h-560 q-14 0 -18 -3t-4 -15q8 -70 69 -114t169 -44q64 0 134 19t112 53q4 2 6 4t6 2q8 0 8 -20v-164q0 -18 -29 -34t-73 -28t-95 -19t-93 -7q-128 0 -208 44t-144 120zM440 170q84 0 124 45t40 97q0 46 -45 83t-127 37q-66 0 -106 -34t-40 -98q0 -62 41 -96t113 -34zM462 1212 q0 14 4 17t16 3h620q14 0 17 -3t3 -17v-112q0 -14 -3 -17t-17 -3h-620q-14 0 -17 3t-3 17v112z" />
<glyph unicode="&#x1e6;" horiz-adv-x="1326" d="M810 1152q-112 0 -195 -37t-137 -100t-81 -146t-27 -175q0 -94 28 -178t82 -147t135 -99t187 -36q42 0 86 5t66 15q20 8 20 26v238q0 14 -3 17t-17 3h-208q-14 0 -17 3t-3 17v210q0 14 3 17t17 3h474q14 0 17 -5t3 -15v-680q0 -12 -12 -20q-34 -24 -83 -41t-105 -29 t-115 -18t-113 -6q-176 0 -315 57t-235 155t-147 229t-51 279q0 150 51 283t147 233t231 158t303 58q102 0 194 -21t166 -61q16 -8 16 -20v-282q0 -12 -10 -12q-4 0 -8 2q-66 56 -153 88t-191 32zM882 1520q-16 -20 -38 -20h-212q-24 0 -38 20l-216 248q-6 8 -6 14t12 6h184 q14 0 20 -6l14 -14l120 -128q4 -4 12 -4t12 4l116 128l14 14t20 6h188q12 0 12 -6t-6 -14z" />
<glyph unicode="&#x1e7;" horiz-adv-x="1094" d="M314 444q0 -50 15 -95t42 -78t67 -52t92 -19t93 19t70 52t44 78t15 95q0 48 -15 91t-44 76t-70 52t-93 19t-92 -19t-67 -52t-42 -76t-15 -91zM242 -380q-18 8 -18 24v188q0 20 8 20q4 0 7 -2t7 -4q34 -28 101 -53t155 -25q120 0 184 56t64 196v66q0 4 -8 4q-6 0 -8 -2 q-40 -46 -109 -78t-155 -32q-94 0 -170 38t-131 102t-85 148t-30 178t30 177t85 146t131 100t170 37q86 0 155 -32t109 -78q2 -2 8 -2q8 0 8 4v66q0 12 3 16t17 4h216q14 0 17 -4t3 -16v-830q0 -234 -121 -353t-359 -119q-84 0 -164 18t-120 42zM694 1032q-16 -20 -38 -20 h-212q-24 0 -38 20l-216 248q-6 8 -6 14t12 6h184q14 0 20 -6l14 -14l120 -128q4 -4 12 -4t12 4l116 128l14 14t20 6h188q12 0 12 -6t-6 -14z" />
<glyph unicode="&#x1e8;" horiz-adv-x="1204" d="M406 20q0 -14 -3 -17t-17 -3h-248q-14 0 -17 3t-3 17v1360q0 14 3 17t17 3h248q14 0 17 -3t3 -17v-534q0 -14 12 -14t18 10l364 538q10 12 14 16t18 4h302q16 0 16 -6q0 -2 -8 -14l-434 -620q-4 -4 -4 -10t4 -10l472 -720q10 -14 10 -16q0 -4 -18 -4h-304q-14 0 -17 3 t-15 17l-398 612q-6 8 -16 8q-16 0 -16 -14v-606zM750 1520q-16 -20 -38 -20h-212q-24 0 -38 20l-216 248q-6 8 -6 14t12 6h184q14 0 20 -6l14 -14l120 -128q4 -4 12 -4t12 4l116 128l14 14t20 6h188q12 0 12 -6t-6 -14z" />
<glyph unicode="&#x1e9;" horiz-adv-x="966" d="M346 572q0 -8 3.5 -11t8.5 -3q11 0 18 10l226 294q11 12 14.5 16t17.5 4h266q16 0 16 -6q0 -3 -2.5 -6t-5.5 -8l-300 -368q-4 -4 -4 -10t4 -10l324 -454q10 -13 10 -16q0 -4 -18 -4h-264q-7 0 -10.5 0.5t-6.5 2.5t-6 6t-9 11l-250 370q-3 5 -8 6.5t-8 1.5q-16 0 -16 -14 v-364q0 -12 -3 -16t-17 -4h-216q-14 0 -17 4t-3 16v1360q0 12 3 16t17 4h216q14 0 17 -4t3 -16v-808zM626 1520q-16 -20 -38 -20h-212q-24 0 -38 20l-216 248q-6 8 -6 14t12 6h184q14 0 20 -6l14 -14l120 -128q4 -4 12 -4t12 4l116 128l14 14t20 6h188q12 0 12 -6t-6 -14z " />
<glyph unicode="&#x1ea;" horiz-adv-x="1540" d="M1476 700q0 -148 -55 -280t-150 -231t-224 -157t-277 -58t-277 58t-224 157t-150 231t-55 280t55 280t150 231t224 157t277 58t277 -58t224 -157t150 -231t55 -280zM370 700q0 -90 29 -169t82 -138t126 -94t163 -35t163 35t126 94t82 138t29 169t-29 169t-82 138t-126 94 t-163 35t-163 -35t-126 -94t-82 -138t-29 -169zM602 -166q0 56 20 100t54 74t78 45t94 15q22 0 52 -4t46 -14q16 -8 16 -18v-112q0 -4 -1 -13t-11 -9q-4 0 -8 2q-6 2 -24 11t-46 9q-40 0 -67 -23t-27 -63t27 -63t67 -23q28 0 46 9t24 11q4 2 8 2q10 0 11 -9t1 -13v-112 q0 -10 -16 -18q-16 -10 -46 -14t-52 -4q-50 0 -94 15t-78 45t-54 74t-20 100z" />
<glyph unicode="&#x1eb;" horiz-adv-x="1068" d="M56 444q0 100 37 184t102 146t152 96t187 34t187 -34t152 -96t102 -146t37 -184t-37 -185t-102 -148t-152 -98t-187 -35t-187 35t-152 98t-102 148t-37 185zM316 444q0 -50 15 -94t43 -77t68 -52t92 -19t92 19t68 52t43 77t15 94q0 48 -15 91t-43 75t-68 51t-92 19 t-92 -19t-68 -51t-43 -75t-15 -91zM350 -166q0 56 20 100t54 74t78 45t94 15q22 0 52 -4t46 -14q16 -8 16 -18v-112q0 -4 -1 -13t-11 -9q-4 0 -8 2q-6 2 -24 11t-46 9q-40 0 -67 -23t-27 -63t27 -63t67 -23q28 0 46 9t24 11q4 2 8 2q10 0 11 -9t1 -13v-112q0 -10 -16 -18 q-16 -10 -46 -14t-52 -4q-50 0 -94 15t-78 45t-54 74t-20 100z" />
<glyph unicode="&#x1f6;" horiz-adv-x="1758" d="M1232 -22q-100 0 -179 30t-134 81t-84 121t-29 152v122q0 14 -3 17t-17 3h-356q-14 0 -17 -3t-3 -17v-464q0 -14 -3 -17t-17 -3h-252q-14 0 -17 3t-3 17v1360q0 14 3 17t17 3h252q14 0 17 -3t3 -17v-596q0 -14 3 -17t17 -3h356q14 0 17 3t3 17v596q0 14 3 17t17 3h252 q14 0 17 -3t3 -17v-984q0 -88 36 -126t98 -38t98 38t36 126v466q0 12 3 16t17 4h252q14 0 17 -4t3 -16v-500q0 -82 -29 -152t-84 -121t-134 -81t-179 -30z" />
<glyph unicode="&#x1fe;" horiz-adv-x="1540" d="M1476 700q0 -148 -55 -280t-150 -231t-224 -157t-277 -58q-114 0 -216 34t-188 96l-126 -140q-4 -6 -10 -6t-14 6l-122 108q-6 6 -6 12t6 12l128 144q-76 96 -117 212t-41 248q0 148 55 280t150 231t224 157t277 58q114 0 216 -34t188 -96l126 140q2 6 10 6q4 0 14 -6 l122 -108q6 -6 6 -12t-6 -12l-130 -146q76 -96 118 -212t42 -246zM370 700q0 -124 56 -230h4q4 0 10 6l530 588q6 6 6 8q0 4 -6 10q-44 26 -94 40t-106 14q-90 0 -163 -35t-126 -94t-82 -138t-29 -169zM564 326q0 -4 2 -6q90 -56 204 -56q90 0 163 35t126 94t82 138t29 169 q0 126 -56 228q-2 2 -4 2q-4 0 -10 -6l-530 -590q-6 -6 -6 -8zM804 1768q10 12 15 16t17 4h260q20 0 20 -4t-12 -16l-254 -248q-8 -8 -16 -14t-22 -6h-176q-14 0 -14 4q0 6 8 16z" />
<glyph unicode="&#x1ff;" horiz-adv-x="1068" d="M56 442q0 98 38 182t103 146t153 97t188 35q80 0 153 -23t131 -65l72 76q6 6 12 6q2 0 12 -6l64 -66q6 -6 6 -12t-6 -12l-70 -70q46 -60 73 -132t27 -156q0 -98 -37 -182t-102 -147t-152 -99t-187 -36q-84 0 -156 24t-132 66l-74 -76q-6 -6 -12 -6q-4 0 -12 6l-66 64 q-6 6 -6 12t6 12l74 74q-46 60 -73 132t-27 156zM764 442q0 64 -26 114l-334 -320q28 -16 59 -26t71 -10q54 0 97 19t73 52t45 77t15 94zM304 442q0 -58 26 -114l332 316q-52 36 -122 36q-56 0 -100 -19t-74 -52t-46 -76t-16 -91zM614 1280q10 12 15 16t17 4h260q20 0 20 -4 t-12 -16l-254 -248q-8 -8 -16 -14t-22 -6h-176q-14 0 -14 4q0 6 8 16z" />
<glyph unicode="&#x218;" horiz-adv-x="1074" d="M286 398q52 -80 110 -121t138 -41q74 0 124 40t50 104t-44 107t-110 79t-144 73t-144 88t-110 124t-44 183q0 82 33 154t92 125t142 83t183 30q64 0 127 -14t120 -39t105 -62t80 -85q6 -10 6 -14q0 -6 -10 -16l-194 -148q-10 -10 -14 -10q-6 0 -14 12q-28 50 -73 83 t-121 33q-70 0 -111 -38t-41 -96t45 -96t112 -72t145 -70t145 -89t112 -130t45 -191q0 -88 -31 -163t-93 -130t-152 -86t-208 -31q-82 0 -156 19t-137 53t-112 78t-83 96q-6 8 -6 16q0 6 10 14l198 152q10 8 16 8t14 -12zM418 -104q2 12 4 16t16 4h194q26 0 18 -20l-96 -324 q-4 -12 -8 -16t-18 -4h-114q-20 0 -20 20z" />
<glyph unicode="&#x219;" horiz-adv-x="812" d="M738 768q4 -6 4 -14t-8 -16l-132 -102q-12 -8 -16 -8t-14 10q-22 24 -59 45t-87 21q-40 0 -68 -17t-28 -51q0 -32 32 -51t79 -35t103 -34t103 -50t79 -84t32 -132q0 -54 -22 -104t-66 -87t-109 -59t-151 -22q-132 0 -216 49t-140 115q-4 6 -4 14t8 16l140 108q8 6 14 6 q10 0 16 -10q34 -42 76 -68t94 -26q46 0 74 18t28 54q0 32 -31 50t-78 34t-102 34t-102 50t-78 84t-31 134q0 54 23 102t66 84t105 57t140 21q100 0 187 -39t139 -97zM298 -104q2 12 4 16t16 4h194q26 0 18 -20l-96 -324q-4 -12 -8 -16t-18 -4h-114q-20 0 -20 20z" />
<glyph unicode="&#x21a;" horiz-adv-x="1002" d="M46 1380q0 14 3 17t17 3h870q14 0 17 -3t3 -17v-224q0 -14 -3 -17t-17 -3h-270q-14 0 -17 -3t-3 -17v-1096q0 -14 -3 -17t-17 -3h-252q-14 0 -17 3t-3 17v1096q0 14 -3 17t-17 3h-268q-14 0 -17 3t-3 17v224zM386 -104q2 12 4 16t16 4h194q26 0 18 -20l-96 -324 q-4 -12 -8 -16t-18 -4h-114q-20 0 -20 20z" />
<glyph unicode="&#x21b;" horiz-adv-x="602" d="M64 666q-14 0 -17 4t-3 16v176q0 12 3 16t17 4h82q14 0 17 3t3 17v258q0 20 20 32l212 104q4 2 7 4t7 2q10 0 10 -16v-384q0 -14 3 -17t17 -3h122q14 0 17 -4t3 -16v-176q0 -12 -3 -16t-17 -4h-122q-14 0 -17 -3t-3 -17v-626q0 -12 -3 -16t-17 -4h-216q-14 0 -17 4t-3 16 v626q0 14 -3 17t-17 3h-82zM194 -104q2 12 4 16t16 4h194q26 0 18 -20l-96 -324q-4 -12 -8 -16t-18 -4h-114q-20 0 -20 20z" />
<glyph unicode="&#x22a;" horiz-adv-x="1540" d="M1476 700q0 -148 -55 -280t-150 -231t-224 -157t-277 -58t-277 58t-224 157t-150 231t-55 280t55 280t150 231t224 157t277 58t277 -58t224 -157t150 -231t55 -280zM370 700q0 -90 29 -169t82 -138t126 -94t163 -35t163 35t126 94t82 138t29 169t-29 169t-82 138t-126 94 t-163 35t-163 -35t-126 -94t-82 -138t-29 -169zM439 1970q0 14 4 17t16 3h620q14 0 17 -3t3 -17v-112q0 -14 -3 -17t-17 -3h-620q-14 0 -17 3t-3 17v112zM971 1492q-56 0 -97 39t-41 101q0 60 40 101t98 41q60 0 99 -42t39 -98q0 -58 -40 -100t-98 -42zM567 1492 q-56 0 -97 39t-41 101q0 60 39 101t99 41t99 -42t39 -98q0 -58 -40 -100t-98 -42z" />
<glyph unicode="&#x22b;" horiz-adv-x="1068" d="M56 444q0 100 37 184t102 146t152 96t187 34t187 -34t152 -96t102 -146t37 -184t-37 -185t-102 -148t-152 -98t-187 -35t-187 35t-152 98t-102 148t-37 185zM316 444q0 -50 15 -94t43 -77t68 -52t92 -19t92 19t68 52t43 77t15 94q0 48 -15 91t-43 75t-68 51t-92 19 t-92 -19t-68 -51t-43 -75t-15 -91zM204 1452q0 14 4 17t16 3h620q14 0 17 -3t3 -17v-112q0 -14 -3 -17t-17 -3h-620q-14 0 -17 3t-3 17v112zM736 974q-56 0 -97 39t-41 101q0 60 40 101t98 41q60 0 99 -42t39 -98q0 -58 -40 -100t-98 -42zM332 974q-56 0 -97 39t-41 101 q0 60 39 101t99 41t99 -42t39 -98q0 -58 -40 -100t-98 -42z" />
<glyph unicode="&#x22c;" horiz-adv-x="1540" d="M1476 700q0 -148 -55 -280t-150 -231t-224 -157t-277 -58t-277 58t-224 157t-150 231t-55 280t55 280t150 231t224 157t277 58t277 -58t224 -157t150 -231t55 -280zM370 700q0 -90 29 -169t82 -138t126 -94t163 -35t163 35t126 94t82 138t29 169t-29 169t-82 138t-126 94 t-163 35t-163 -35t-126 -94t-82 -138t-29 -169zM1116 1688q0 -80 -57 -137t-147 -57q-64 0 -102 20t-64 45t-48 45t-54 20q-28 0 -48 -19t-20 -53v-12q0 -12 -3 -16t-17 -4h-114q-14 0 -17 4t-3 16v48q0 40 17 75t45 62t67 43t83 16q62 0 99 -20t62 -45t46 -45t53 -20 q28 0 48 18t20 52v14q0 12 3 16t17 4h114q14 0 17 -4t3 -16v-50zM440 1970q0 14 4 17t16 3h620q14 0 17 -3t3 -17v-112q0 -14 -3 -17t-17 -3h-620q-14 0 -17 3t-3 17v112z" />
<glyph unicode="&#x22d;" horiz-adv-x="1068" d="M56 444q0 100 37 184t102 146t152 96t187 34t187 -34t152 -96t102 -146t37 -184t-37 -185t-102 -148t-152 -98t-187 -35t-187 35t-152 98t-102 148t-37 185zM316 444q0 -50 15 -94t43 -77t68 -52t92 -19t92 19t68 52t43 77t15 94q0 48 -15 91t-43 75t-68 51t-92 19 t-92 -19t-68 -51t-43 -75t-15 -91zM880 1170q0 -80 -57 -137t-147 -57q-64 0 -102 20t-64 45t-48 45t-54 20q-28 0 -48 -19t-20 -53v-12q0 -12 -3 -16t-17 -4h-114q-14 0 -17 4t-3 16v48q0 40 17 75t45 62t67 43t83 16q62 0 99 -20t62 -45t46 -45t53 -20q28 0 48 18t20 52 v14q0 12 3 16t17 4h114q14 0 17 -4t3 -16v-50zM204 1452q0 14 4 17t16 3h620q14 0 17 -3t3 -17v-112q0 -14 -3 -17t-17 -3h-620q-14 0 -17 3t-3 17v112z" />
<glyph unicode="&#x22e;" horiz-adv-x="1540" d="M1476 700q0 -148 -55 -280t-150 -231t-224 -157t-277 -58t-277 58t-224 157t-150 231t-55 280t55 280t150 231t224 157t277 58t277 -58t224 -157t150 -231t55 -280zM370 700q0 -90 29 -169t82 -138t126 -94t163 -35t163 35t126 94t82 138t29 169t-29 169t-82 138t-126 94 t-163 35t-163 -35t-126 -94t-82 -138t-29 -169zM616 1692q0 66 44 110t110 44t110 -44t44 -110t-44 -110t-110 -44t-110 44t-44 110z" />
<glyph unicode="&#x22f;" horiz-adv-x="1068" d="M56 444q0 100 37 184t102 146t152 96t187 34t187 -34t152 -96t102 -146t37 -184t-37 -185t-102 -148t-152 -98t-187 -35t-187 35t-152 98t-102 148t-37 185zM316 444q0 -50 15 -94t43 -77t68 -52t92 -19t92 19t68 52t43 77t15 94q0 48 -15 91t-43 75t-68 51t-92 19 t-92 -19t-68 -51t-43 -75t-15 -91zM380 1202q0 66 44 110t110 44t110 -44t44 -110t-44 -110t-110 -44t-110 44t-44 110z" />
<glyph unicode="&#x230;" horiz-adv-x="1540" d="M1476 700q0 -148 -55 -280t-150 -231t-224 -157t-277 -58t-277 58t-224 157t-150 231t-55 280t55 280t150 231t224 157t277 58t277 -58t224 -157t150 -231t55 -280zM370 700q0 -90 29 -169t82 -138t126 -94t163 -35t163 35t126 94t82 138t29 169t-29 169t-82 138t-126 94 t-163 35t-163 -35t-126 -94t-82 -138t-29 -169zM771 1496q-56 0 -97 39t-41 101q0 60 40 101t98 41q60 0 99 -42t39 -98q0 -58 -40 -100t-98 -42zM439 1970q0 14 4 17t16 3h620q14 0 17 -3t3 -17v-112q0 -14 -3 -17t-17 -3h-620q-14 0 -17 3t-3 17v112z" />
<glyph unicode="&#x231;" horiz-adv-x="1068" d="M56 444q0 100 37 184t102 146t152 96t187 34t187 -34t152 -96t102 -146t37 -184t-37 -185t-102 -148t-152 -98t-187 -35t-187 35t-152 98t-102 148t-37 185zM316 444q0 -50 15 -94t43 -77t68 -52t92 -19t92 19t68 52t43 77t15 94q0 48 -15 91t-43 75t-68 51t-92 19 t-92 -19t-68 -51t-43 -75t-15 -91zM536 978q-56 0 -97 39t-41 101q0 60 40 101t98 41q60 0 99 -42t39 -98q0 -58 -40 -100t-98 -42zM204 1452q0 14 4 17t16 3h620q14 0 17 -3t3 -17v-112q0 -14 -3 -17t-17 -3h-620q-14 0 -17 3t-3 17v112z" />
<glyph unicode="&#x232;" horiz-adv-x="1192" d="M450 644l-438 736q-4 8 -4 12q0 8 12 8h292q16 0 26 -20l250 -432q2 -6 10 -6q6 0 10 6l252 432q8 14 12 17t14 3h286q12 0 12 -8q0 -4 -4 -12l-438 -736v-624q0 -14 -3 -17t-17 -3h-252q-14 0 -17 3t-3 17v624zM266 1730q0 14 4 17t16 3h620q14 0 17 -3t3 -17v-112 q0 -14 -3 -17t-17 -3h-620q-14 0 -17 3t-3 17v112z" />
<glyph unicode="&#x233;" horiz-adv-x="958" d="M470 348q2 -6 8 -6q4 0 8 6l208 514q6 12 10 16t16 4h230q18 0 18 -8l-4 -12q-136 -322 -270 -642t-270 -642q-6 -12 -10 -16t-16 -4h-228q-18 0 -18 8l4 12l182 442q4 10 4 18t-4 18l-334 806l-4 12q0 8 18 8h224q12 0 16 -4t10 -16zM148 1212q0 14 4 17t16 3h620 q14 0 17 -3t3 -17v-112q0 -14 -3 -17t-17 -3h-620q-14 0 -17 3t-3 17v112z" />
<glyph unicode="&#x237;" horiz-adv-x="444" d="M354 -122q0 -154 -70 -236t-224 -82q-22 0 -44 1t-38 3q-20 2 -38 4q-12 4 -16 7t-4 17v172q0 18 8 18q4 0 12 -2q26 -6 52 -6q58 0 80 33t22 103v952q0 12 3 16t17 4h220q14 0 17 -4t3 -16v-984z" />
<glyph unicode="&#x243;" horiz-adv-x="1140" d="M118 1380q0 14 3 17t17 3h376q60 0 107 -3t85 -10t69 -18t59 -27q84 -46 124 -124t40 -176q0 -100 -43 -164t-101 -98q-8 -6 -8 -12t8 -10q40 -16 81 -46t74 -74t53 -103t20 -133q0 -110 -38 -187t-106 -125t-165 -69t-213 -21h-422q-14 0 -17 3t-3 17v296q0 14 -3 17 t-17 3h-82q-14 0 -17 3t-3 17v138q0 14 4 17t16 3h82q14 0 17 3t3 17v846zM584 238q90 0 144 49t54 137q0 102 -56 144t-172 42h-130q-14 0 -17 -3t-3 -17v-64q0 -12 20 -12h136q14 0 17 -3t3 -17v-138q0 -14 -3 -17t-17 -3h-136q-20 0 -20 -12v-66q0 -14 3 -17t17 -3h160z M404 860q0 -14 3 -17t17 -3h98q82 0 134 34t52 122q0 82 -50 119t-136 37h-98q-14 0 -17 -3t-3 -17v-272z" />
<glyph unicode="&#x259;" horiz-adv-x="986" d="M670 552q-8 70 -69 110t-173 40q-68 0 -136 -19t-112 -53q-4 -4 -12 -4t-8 20v174q0 12 20 26q18 12 49 23t68 19t78 12t77 4q110 0 199 -36t151 -98t95 -148t33 -184t-32 -182t-90 -146t-139 -97t-179 -35q-106 0 -186 35t-136 98t-84 150t-28 193v32q0 30 3 39t19 9 h570q14 0 18 3t4 15zM496 182q76 0 126 42t58 112q0 14 -3 17t-17 3h-328q-16 0 -19 -3t-1 -17q8 -70 54 -112t130 -42z" />
<glyph unicode="&#x280;" horiz-adv-x="916" d="M434 514q76 0 102 34t26 80t-33 72t-105 26h-58q-14 0 -17 -3t-3 -17v-172q0 -14 3 -17t17 -3h68zM346 20q0 -14 -3 -17t-17 -3h-212q-14 0 -19 3t-5 17v906q0 14 3 17t17 3h334q76 0 145 -14t121 -47t82 -90t30 -141q0 -106 -45 -179t-147 -105q-8 -2 -8 -8q0 -4 4 -8 l270 -334q10 -14 10 -16q0 -4 -18 -4h-284q-14 0 -17 3t-15 17l-202 288q-10 12 -16 12q-8 0 -8 -18v-282z" />
<glyph unicode="&#x2c6;" horiz-adv-x="1000" d="M352 1280q10 12 18 16t20 4h212q22 0 38 -20l216 -248q6 -8 6 -14t-12 -6h-184q-14 0 -20 6l-14 14l-120 128q-4 4 -12 4t-12 -4l-116 -128l-14 -14t-20 -6h-188q-12 0 -12 6t6 14z" />
<glyph unicode="&#x2c7;" horiz-adv-x="1000" d="M648 1032q-16 -20 -38 -20h-212q-24 0 -38 20l-216 248q-6 8 -6 14t12 6h184q14 0 20 -6l14 -14l120 -128q4 -4 12 -4t12 4l116 128l14 14t20 6h188q12 0 12 -6t-6 -14z" />
<glyph unicode="&#x2d8;" horiz-adv-x="1000" d="M500 1160q54 0 88 27t46 95q4 20 26 20h146q16 0 12 -20q-24 -154 -110 -216t-208 -62t-208 62t-110 216q-6 20 12 20h146q22 0 26 -20q12 -68 48 -95t86 -27z" />
<glyph unicode="&#x2d9;" horiz-adv-x="1000" d="M346 1202q0 66 44 110t110 44t110 -44t44 -110t-44 -110t-110 -44t-110 44t-44 110z" />
<glyph unicode="&#x2da;" horiz-adv-x="1000" d="M500 1122q32 0 54 22t22 56q0 32 -21 54t-55 22t-55 -22t-21 -56t22 -55t54 -21zM500 1008q-76 0 -133 51t-57 139q0 80 54 136t136 56q40 0 75 -15t60 -41t40 -61t15 -73q0 -40 -15 -74t-41 -61t-61 -42t-73 -15z" />
<glyph unicode="&#x2db;" horiz-adv-x="1000" d="M586 -402q-54 0 -103 14t-86 41t-60 68t-23 93q0 64 31 119t85 107l162 -30q-34 -42 -59 -80t-35 -86q-8 -40 20 -66t74 -26q38 0 78 16q4 2 10 2q6 -2 6 -18v-116q0 -16 -14 -22q-36 -16 -86 -16z" />
<glyph unicode="&#x2dc;" horiz-adv-x="1000" d="M846 1204q0 -80 -57 -137t-147 -57q-64 0 -102 20t-64 45t-48 45t-54 20q-28 0 -48 -19t-20 -53v-12q0 -12 -3 -16t-17 -4h-114q-14 0 -17 4t-3 16v48q0 40 17 75t45 62t67 43t83 16q62 0 99 -20t62 -45t46 -45t53 -20q28 0 48 18t20 52v14q0 12 3 16t17 4h114 q14 0 17 -4t3 -16v-50z" />
<glyph unicode="&#x2dd;" horiz-adv-x="1000" d="M324 1280q10 12 15 16t17 4h260q20 0 20 -4t-12 -16q-64 -64 -127 -124t-127 -124q-8 -8 -16 -14t-22 -6h-176q-14 0 -14 4q0 6 8 16zM720 1280q10 12 15 16t17 4h260q20 0 20 -4t-12 -16q-64 -64 -127 -124t-127 -124q-8 -8 -16 -14t-22 -6h-176q-14 0 -14 4q0 6 8 16z " />
<glyph unicode="&#x300;" horiz-adv-x="2" d="M-414 1032q8 -10 8 -16q0 -4 -14 -4h-176q-14 0 -22 6t-16 14l-254 248q-12 12 -12 16t20 4h260q12 0 17 -4t15 -16z" />
<glyph unicode="&#x301;" horiz-adv-x="2" d="M-492 1280q10 12 15 16t17 4h260q20 0 20 -4t-12 -16l-254 -248q-8 -8 -16 -14t-22 -6h-176q-14 0 -14 4q0 6 8 16z" />
<glyph unicode="&#x302;" horiz-adv-x="2" d="M-688 1280q10 12 18 16t20 4h212q22 0 38 -20l216 -248q6 -8 6 -14t-12 -6h-184q-14 0 -20 6l-14 14l-120 128q-4 4 -12 4t-12 -4l-116 -128l-14 -14t-20 -6h-188q-12 0 -12 6t6 14z" />
<glyph unicode="&#x303;" horiz-adv-x="2" d="M-194 1204q0 -80 -57 -137t-147 -57q-64 0 -102 20t-64 45t-48 45t-54 20q-28 0 -48 -19t-20 -53v-12q0 -12 -3 -16t-17 -4h-114q-14 0 -17 4t-3 16v48q0 40 17 75t45 62t67 43t83 16q62 0 99 -20t62 -45t46 -45t53 -20q28 0 48 18t20 52v14q0 12 3 16t17 4h114 q14 0 17 -4t3 -16v-50z" />
<glyph unicode="&#x304;" horiz-adv-x="2" d="M-860 1212q0 14 4 17t16 3h620q14 0 17 -3t3 -17v-112q0 -14 -3 -17t-17 -3h-620q-14 0 -17 3t-3 17v112z" />
<glyph unicode="&#x306;" horiz-adv-x="2" d="M-540 1160q54 0 88 27t46 95q4 20 26 20h146q16 0 12 -20q-24 -154 -110 -216t-208 -62t-208 62t-110 216q-6 20 12 20h146q22 0 26 -20q12 -68 48 -95t86 -27z" />
<glyph unicode="&#x307;" horiz-adv-x="2" d="M-550 1034q-64 0 -110 43t-46 113q0 64 46 110t110 46q66 0 111 -46t45 -110q0 -70 -45 -113t-111 -43z" />
<glyph unicode="&#x308;" horiz-adv-x="2" d="M-342 1044q-56 0 -97 39t-41 101q0 60 40 101t98 41q60 0 99 -42t39 -98q0 -58 -40 -100t-98 -42zM-746 1044q-56 0 -97 39t-41 101q0 60 39 101t99 41t99 -42t39 -98q0 -58 -40 -100t-98 -42z" />
<glyph unicode="&#x30a;" horiz-adv-x="2" d="M-518 1122q32 0 54 22t22 56q0 32 -21 54t-55 22t-55 -22t-21 -56t22 -55t54 -21zM-518 1008q-76 0 -133 51t-57 139q0 80 54 136t136 56q40 0 75 -15t60 -41t40 -61t15 -73q0 -40 -15 -74t-41 -61t-61 -42t-73 -15z" />
<glyph unicode="&#x30b;" horiz-adv-x="2" d="M-676 1280q10 12 15 16t17 4h260q20 0 20 -4t-12 -16q-64 -64 -127 -124t-127 -124q-8 -8 -16 -14t-22 -6h-176q-14 0 -14 4q0 6 8 16zM-280 1280q10 12 15 16t17 4h260q20 0 20 -4t-12 -16q-64 -64 -127 -124t-127 -124q-8 -8 -16 -14t-22 -6h-176q-14 0 -14 4q0 6 8 16 z" />
<glyph unicode="&#x30c;" horiz-adv-x="2" d="M-392 1032q-16 -20 -38 -20h-212q-24 0 -38 20l-216 248q-6 8 -6 14t12 6h184q14 0 20 -6l14 -14l120 -128q4 -4 12 -4t12 4l116 128l14 14t20 6h188q12 0 12 -6t-6 -14z" />
<glyph unicode="&#x312;" horiz-adv-x="2" d="M-427.976 1031.99q-2 -12 -4 -16q-2 -3.99902 -15.999 -3.99902h-193.988q-25.998 0 -17.999 19.999l95.9941 323.979q4 11.999 8 15.999t17.999 4h113.993q19.998 0 19.998 -19.999z" />
<glyph unicode="&#x313;" horiz-adv-x="2" d="M-562 1356q2 12 4 16t16 4h194q26 0 18 -20l-96 -324q-4 -12 -8 -16t-18 -4h-114q-20 0 -20 20z" />
<glyph unicode="&#x323;" horiz-adv-x="0" d="M-660 -282q0 66 44 110t110 44t110 -44t44 -110t-44 -110t-110 -44t-110 44t-44 110z" />
<glyph unicode="&#x326;" horiz-adv-x="2" d="M-602 -104q2 12 4 16t16 4h194q26 0 18 -20l-96 -324q-4 -12 -8 -16t-18 -4h-114q-20 0 -20 20z" />
<glyph unicode="&#x327;" horiz-adv-x="2" d="M-566 22q44 0 91 -13t85 -40t62 -66t24 -93q0 -102 -64 -171t-166 -69q-32 0 -78 9t-74 29q-12 10 -10 24l20 110q4 16 8 16q6 0 10 -4q22 -16 43 -25t51 -9q44 0 67 23t23 61q0 48 -32 70t-72 22q-12 0 -27 -1t-21 -1q-10 0 -13 2t-3 14l20 112h56z" />
<glyph unicode="&#x328;" horiz-adv-x="2" d="M-414 -402q-54 0 -103 14t-86 41t-60 68t-23 93q0 64 31 119t85 107l162 -30q-34 -42 -59 -80t-35 -86q-8 -40 20 -66t74 -26q38 0 78 16q4 2 10 2q6 -2 6 -18v-116q0 -16 -14 -22q-36 -16 -86 -16z" />
<glyph unicode="&#x3c0;" horiz-adv-x="1136" d="M968 652q-14 0 -17 -3t-3 -17v-612q0 -12 -3 -16t-17 -4h-208q-14 0 -17 4t-3 16v612q0 14 -3 17t-17 3h-222q-14 0 -17 -3t-3 -17v-612q0 -12 -3 -16t-17 -4h-210q-14 0 -17 4t-3 16v612q0 14 -3 17t-17 3h-102q-14 0 -17 4t-3 16v190q0 12 3 16t17 4h1006q14 0 17 -4 t3 -16v-190q0 -12 -3 -16t-17 -4h-104z" />
<glyph unicode="&#x1e0c;" horiz-adv-x="1274" d="M528 1400q176 0 304 -54t212 -149t125 -223t41 -274q0 -160 -47 -289t-140 -220t-233 -141t-324 -50h-328q-14 0 -17 3t-3 17v1360q0 14 3 17t17 3h390zM904 700q0 96 -22 177t-68 138t-118 89t-172 32h-94q-14 0 -17 -3t-3 -17v-832q0 -14 3 -17t17 -3h94q98 0 169 32 t118 89t70 138t23 177zM346 -282q0 66 44 110t110 44t110 -44t44 -110t-44 -110t-110 -44t-110 44t-44 110z" />
<glyph unicode="&#x1e0d;" horiz-adv-x="1100" d="M752 442q0 48 -15 91t-43 76t-69 52t-91 19q-52 0 -94 -19t-70 -52t-43 -76t-15 -91q0 -50 15 -94t43 -77t70 -52t94 -19q50 0 91 19t69 52t43 77t15 94zM750 1480q0 12 3 16t17 4h218q14 0 17 -4t3 -16v-1460q0 -12 -3 -16t-17 -4h-218q-14 0 -17 4t-3 16v66q0 4 -8 4 q-6 0 -8 -2q-40 -46 -110 -78t-156 -32q-94 0 -170 36t-131 98t-85 147t-30 183t30 182t85 146t131 97t170 35q86 0 156 -31t110 -77q2 -2 8 -2q8 0 8 4v684zM386 -282q0 66 44 110t110 44t110 -44t44 -110t-44 -110t-110 -44t-110 44t-44 110z" />
<glyph unicode="&#x1e10;" horiz-adv-x="1274" d="M528 1400q176 0 304 -54t212 -149t125 -223t41 -274q0 -160 -47 -289t-140 -220t-233 -141t-324 -50h-328q-14 0 -17 3t-3 17v1360q0 14 3 17t17 3h390zM904 700q0 96 -22 177t-68 138t-118 89t-172 32h-94q-14 0 -17 -3t-3 -17v-832q0 -14 3 -17t17 -3h94q98 0 169 32 t118 89t70 138t23 177zM400 -104q2 12 4 16t16 4h194q26 0 18 -20l-96 -324q-4 -12 -8 -16t-18 -4h-114q-20 0 -20 20z" />
<glyph unicode="&#x1e11;" horiz-adv-x="1100" d="M752 442q0 48 -15 91t-43 76t-69 52t-91 19q-52 0 -94 -19t-70 -52t-43 -76t-15 -91q0 -50 15 -94t43 -77t70 -52t94 -19q50 0 91 19t69 52t43 77t15 94zM750 1480q0 12 3 16t17 4h218q14 0 17 -4t3 -16v-1460q0 -12 -3 -16t-17 -4h-218q-14 0 -17 4t-3 16v66q0 4 -8 4 q-6 0 -8 -2q-40 -46 -110 -78t-156 -32q-94 0 -170 36t-131 98t-85 147t-30 183t30 182t85 146t131 97t170 35q86 0 156 -31t110 -77q2 -2 8 -2q8 0 8 4v684zM424 -104q2 12 4 16t16 4h194q26 0 18 -20l-96 -324q-4 -12 -8 -16t-18 -4h-114q-20 0 -20 20z" />
<glyph unicode="&#x1e16;" horiz-adv-x="1054" d="M118 1380q0 14 3 17t17 3h816q14 0 17 -3t3 -17v-224q0 -14 -3 -17t-17 -3h-524q-14 0 -17 -3t-3 -17v-326q0 -14 3 -17t17 -3h504q14 0 17 -3t3 -17v-220q0 -14 -3 -17t-17 -3h-504q-14 0 -17 -3t-3 -17v-206q0 -14 3 -17t17 -3h534q14 0 17 -3t3 -17v-224q0 -14 -3 -17 t-17 -3h-826q-14 0 -17 3t-3 17v1360zM207 1638q0 14 4 17t16 3h620q14 0 17 -3t3 -17v-112q0 -14 -3 -17t-17 -3h-620q-14 0 -17 3t-3 17v112zM581 1998q10 12 15 16t17 4h260q20 0 20 -4t-12 -16l-254 -248q-8 -8 -16 -14t-22 -6h-176q-14 0 -14 4q0 6 8 16z" />
<glyph unicode="&#x1e17;" horiz-adv-x="986" d="M316 330q8 -70 69 -110t173 -40q68 0 136 19t112 53q4 4 12 4t8 -20v-174q0 -12 -20 -26q-18 -12 -49 -23t-68 -19t-78 -12t-77 -4q-110 0 -199 36t-151 98t-95 147t-33 185q0 98 32 182t90 146t139 97t179 35q104 0 185 -35t137 -98t84 -150t28 -193v-32q0 -30 -3 -39 t-19 -9h-570q-14 0 -18 -3t-4 -15zM490 700q-76 0 -126 -42t-58 -112q0 -14 3 -17t17 -3h328q16 0 19 3t1 17q-8 70 -54 112t-130 42zM161 1120q0 14 4 17t16 3h620q14 0 17 -3t3 -17v-112q0 -14 -3 -17t-17 -3h-620q-14 0 -17 3t-3 17v112zM535 1480q10 12 15 16t17 4h260 q20 0 20 -4t-12 -16l-254 -248q-8 -8 -16 -14t-22 -6h-176q-14 0 -14 4q0 6 8 16z" />
<glyph unicode="&#x1e24;" horiz-adv-x="1240" d="M1122 20q0 -14 -3 -17t-17 -3h-252q-14 0 -17 3t-3 17v464q0 14 -3 17t-17 3h-380q-14 0 -17 -3t-3 -17v-464q0 -14 -3 -17t-17 -3h-252q-14 0 -17 3t-3 17v1360q0 14 3 17t17 3h252q14 0 17 -3t3 -17v-596q0 -14 3 -17t17 -3h380q14 0 17 3t3 17v596q0 14 3 17t17 3h252 q14 0 17 -3t3 -17v-1360zM466 -282q0 66 44 110t110 44t110 -44t44 -110t-44 -110t-110 -44t-110 44t-44 110z" />
<glyph unicode="&#x1e25;" horiz-adv-x="1038" d="M938 20q0 -12 -3 -16t-17 -4h-218q-14 0 -17 4t-3 16v494q0 80 -34 122t-110 42q-90 0 -137 -62t-47 -164v-432q0 -12 -3 -16t-17 -4h-218q-14 0 -17 4t-3 16v1460q0 12 3 16t17 4h218q14 0 17 -4t3 -16v-694q0 -4 8 -4q6 0 8 2q64 58 130 89t148 31q80 0 136 -26t90 -71 t50 -107t16 -132v-548zM356 -282q0 66 44 110t110 44t110 -44t44 -110t-44 -110t-110 -44t-110 44t-44 110z" />
<glyph unicode="&#x1e36;" horiz-adv-x="950" d="M118 1380q0 14 3 17t17 3h252q14 0 17 -3t3 -17v-1096q0 -14 3 -17t17 -3h456q14 0 17 -3t3 -17v-224q0 -14 -3 -17t-17 -3h-748q-14 0 -17 3t-3 17v1360zM325 -282q0 66 44 110t110 44t110 -44t44 -110t-44 -110t-110 -44t-110 44t-44 110z" />
<glyph unicode="&#x1e37;" horiz-adv-x="446" d="M94 1480q0 12 3 16t17 4h218q14 0 17 -4t3 -16v-1460q0 -12 -3 -16t-17 -4h-218q-14 0 -17 4t-3 16v1460zM68 -282q0 66 44 110t110 44t110 -44t44 -110t-44 -110t-110 -44t-110 44t-44 110z" />
<glyph unicode="&#x1e38;" horiz-adv-x="950" d="M118 1380q0 14 3 17t17 3h252q14 0 17 -3t3 -17v-1096q0 -14 3 -17t17 -3h456q14 0 17 -3t3 -17v-224q0 -14 -3 -17t-17 -3h-748q-14 0 -17 3t-3 17v1360zM144 1700q0 14 4 17t16 3h620q14 0 17 -3t3 -17v-112q0 -14 -3 -17t-17 -3h-620q-14 0 -17 3t-3 17v112zM325 -282 q0 66 44 110t110 44t110 -44t44 -110t-44 -110t-110 -44t-110 44t-44 110z" />
<glyph unicode="&#x1e39;" horiz-adv-x="446" d="M-108 1700q0 14 4 17t16 3h620q14 0 17 -3t3 -17v-112q0 -14 -3 -17t-17 -3h-620q-14 0 -17 3t-3 17v112zM68 -282q0 66 44 110t110 44t110 -44t44 -110t-44 -110t-110 -44t-110 44t-44 110zM94 1380q0 12 3 16t17 4h218q14 0 17 -4t3 -16v-1360q0 -12 -3 -16t-17 -4 h-218q-14 0 -17 4t-3 16v1360z" />
<glyph unicode="&#x1e42;" horiz-adv-x="1536" d="M788 270q-8 -10 -20 -10t-20 10l-322 394q-6 6 -14 6q-16 0 -16 -12v-638q0 -14 -3 -17t-17 -3h-238q-14 0 -17 3t-3 17v1400q0 14 14 14q4 0 8 -1t10 -9l606 -738q8 -8 12 -8q6 0 12 8l606 738q8 8 12 9t8 1q12 0 12 -14v-1400q0 -14 -3 -17t-17 -3h-238q-14 0 -17 3 t-3 17v638q0 12 -16 12q-8 0 -14 -6zM615 -282q0 66 44 110t110 44t110 -44t44 -110t-44 -110t-110 -44t-110 44t-44 110z" />
<glyph unicode="&#x1e43;" horiz-adv-x="1564" d="M870 752q2 -4 8 -4t8 2q24 28 53 56t63 50t76 35t92 13q84 0 142 -25t94 -70t51 -107t15 -136v-546q0 -12 -3 -16t-17 -4h-216q-14 0 -17 4t-3 16v492q0 80 -30 122t-104 42q-78 0 -125 -52t-47 -144v-460q0 -12 -3 -16t-17 -4h-216q-14 0 -17 4t-3 16v492q0 80 -30 122 t-104 42q-78 0 -124 -52t-46 -144v-460q0 -12 -3 -16t-17 -4h-216q-14 0 -17 4t-3 16v842q0 12 3 16t17 4h216q14 0 17 -4t3 -16v-80q0 -4 8 -4q6 0 8 2q50 54 107 89t141 35q112 0 169 -43t87 -109zM628 -282q0 66 44 110t110 44t110 -44t44 -110t-44 -110t-110 -44 t-110 44t-44 110z" />
<glyph unicode="&#x1e44;" horiz-adv-x="1222" d="M428 724q-6 6 -14 6q-16 0 -16 -12v-698q0 -14 -3 -17t-17 -3h-246q-14 0 -17 3t-3 17v1400q0 14 10 14q4 0 8 -1t12 -9l652 -750q6 -6 14 -6q16 0 16 12v700q0 14 3 17t17 3h246q14 0 17 -3t3 -17v-1400q0 -14 -10 -14t-18 10zM448 1646q0 66 44 110t110 44t110 -44 t44 -110t-44 -110t-110 -44t-110 44t-44 110z" />
<glyph unicode="&#x1e45;" horiz-adv-x="1026" d="M938 20q0 -12 -3 -16t-17 -4h-218q-14 0 -17 4t-3 16v494q0 80 -34 122t-110 42q-90 0 -137 -62t-47 -164v-432q0 -12 -3 -16t-17 -4h-218q-14 0 -17 4t-3 16v842q0 12 3 16t17 4h218q14 0 17 -4t3 -16v-80q0 -4 8 -4q6 0 8 2q64 58 130 91t148 33q80 0 136 -26t90 -71 t50 -107t16 -132v-548zM358 1202q0 66 44 110t110 44t110 -44t44 -110t-44 -110t-110 -44t-110 44t-44 110z" />
<glyph unicode="&#x1e46;" horiz-adv-x="1222" d="M428 724q-6 6 -14 6q-16 0 -16 -12v-698q0 -14 -3 -17t-17 -3h-246q-14 0 -17 3t-3 17v1400q0 14 10 14q4 0 8 -1t12 -9l652 -750q6 -6 14 -6q16 0 16 12v700q0 14 3 17t17 3h246q14 0 17 -3t3 -17v-1400q0 -14 -10 -14t-18 10zM458 -282q0 66 44 110t110 44t110 -44 t44 -110t-44 -110t-110 -44t-110 44t-44 110z" />
<glyph unicode="&#x1e47;" horiz-adv-x="1026" d="M938 20q0 -12 -3 -16t-17 -4h-218q-14 0 -17 4t-3 16v494q0 80 -34 122t-110 42q-90 0 -137 -62t-47 -164v-432q0 -12 -3 -16t-17 -4h-218q-14 0 -17 4t-3 16v842q0 12 3 16t17 4h218q14 0 17 -4t3 -16v-80q0 -4 8 -4q6 0 8 2q64 58 130 91t148 33q80 0 136 -26t90 -71 t50 -107t16 -132v-548zM357 -282q0 66 44 110t110 44t110 -44t44 -110t-44 -110t-110 -44t-110 44t-44 110z" />
<glyph unicode="&#x1e52;" horiz-adv-x="1540" d="M1476 700q0 -148 -55 -280t-150 -231t-224 -157t-277 -58t-277 58t-224 157t-150 231t-55 280t55 280t150 231t224 157t277 58t277 -58t224 -157t150 -231t55 -280zM370 700q0 -90 29 -169t82 -138t126 -94t163 -35t163 35t126 94t82 138t29 169t-29 169t-82 138t-126 94 t-163 35t-163 -35t-126 -94t-82 -138t-29 -169zM439 1638q0 14 4 17t16 3h620q14 0 17 -3t3 -17v-112q0 -14 -3 -17t-17 -3h-620q-14 0 -17 3t-3 17v112zM813 1998q10 12 15 16t17 4h260q20 0 20 -4t-12 -16l-254 -248q-8 -8 -16 -14t-22 -6h-176q-14 0 -14 4q0 6 8 16z" />
<glyph unicode="&#x1e53;" horiz-adv-x="1068" d="M56 444q0 100 37 184t102 146t152 96t187 34t187 -34t152 -96t102 -146t37 -184t-37 -185t-102 -148t-152 -98t-187 -35t-187 35t-152 98t-102 148t-37 185zM316 444q0 -50 15 -94t43 -77t68 -52t92 -19t92 19t68 52t43 77t15 94q0 48 -15 91t-43 75t-68 51t-92 19 t-92 -19t-68 -51t-43 -75t-15 -91zM204 1120q0 14 4 17t16 3h620q14 0 17 -3t3 -17v-112q0 -14 -3 -17t-17 -3h-620q-14 0 -17 3t-3 17v112zM578 1480q10 12 15 16t17 4h260q20 0 20 -4t-12 -16l-254 -248q-8 -8 -16 -14t-22 -6h-176q-14 0 -14 4q0 6 8 16z" />
<glyph unicode="&#x1e5a;" horiz-adv-x="1178" d="M406 20q0 -14 -3 -17t-17 -3h-250q-14 0 -18 3t-4 17v1360q0 14 3 17t17 3h358q126 0 209 -14t159 -58q86 -48 143 -137t57 -221q0 -158 -81 -266t-217 -148q-8 -2 -8 -10q0 -4 4 -8q102 -132 202 -259t202 -259q10 -14 10 -16q0 -4 -18 -4h-310q-14 0 -19 3t-15 17 l-370 494q-10 16 -22 16q-10 0 -11 -5t-1 -15v-490zM426 1148q-14 0 -17 -3t-3 -17v-352q0 -14 3 -17t17 -3h110q108 0 166 45t58 149q0 92 -55 145t-175 53h-104zM418 -282q0 66 44 110t110 44t110 -44t44 -110t-44 -110t-110 -44t-110 44t-44 110z" />
<glyph unicode="&#x1e5b;" horiz-adv-x="666" d="M108 0q-14 0 -17 4t-3 16v842q0 12 3 16t17 4h212q14 0 17 -4t3 -16v-104q0 -4 8 -4q6 0 8 2q16 26 42 52t60 47t75 35t87 14q14 0 17 -4t3 -16v-210q0 -22 -12 -22q-6 0 -22 2t-40 2q-114 0 -168 -82t-54 -232v-322q0 -12 -3 -16t-17 -4h-216zM72 -282q0 66 44 110 t110 44t110 -44t44 -110t-44 -110t-110 -44t-110 44t-44 110z" />
<glyph unicode="&#x1e5c;" horiz-adv-x="1178" d="M406 20q0 -14 -3 -17t-17 -3h-250q-14 0 -18 3t-4 17v1360q0 14 3 17t17 3h358q126 0 209 -14t159 -58q86 -48 143 -137t57 -221q0 -158 -81 -266t-217 -148q-8 -2 -8 -10q0 -4 4 -8q102 -132 202 -259t202 -259q10 -14 10 -16q0 -4 -18 -4h-310q-14 0 -19 3t-15 17 l-370 494q-10 16 -22 16q-10 0 -11 -5t-1 -15v-490zM426 1148q-14 0 -17 -3t-3 -17v-352q0 -14 3 -17t17 -3h110q108 0 166 45t58 149q0 92 -55 145t-175 53h-104zM164 1700q0 14 4 17t16 3h620q14 0 17 -3t3 -17v-112q0 -14 -3 -17t-17 -3h-620q-14 0 -17 3t-3 17v112z M418 -282q0 66 44 110t110 44t110 -44t44 -110t-44 -110t-110 -44t-110 44t-44 110z" />
<glyph unicode="&#x1e5d;" horiz-adv-x="666" d="M108 0q-14 0 -17 4t-3 16v842q0 12 3 16t17 4h212q14 0 17 -4t3 -16v-104q0 -4 8 -4q6 0 8 2q16 26 42 52t60 47t75 35t87 14q14 0 17 -4t3 -16v-210q0 -22 -12 -22q-6 0 -22 2t-40 2q-114 0 -168 -82t-54 -232v-322q0 -12 -3 -16t-17 -4h-216zM2 1212q0 14 4 17t16 3 h620q14 0 17 -3t3 -17v-112q0 -14 -3 -17t-17 -3h-620q-14 0 -17 3t-3 17v112zM72 -282q0 66 44 110t110 44t110 -44t44 -110t-44 -110t-110 -44t-110 44t-44 110z" />
<glyph unicode="&#x1e6c;" horiz-adv-x="1002" d="M46 1380q0 14 3 17t17 3h870q14 0 17 -3t3 -17v-224q0 -14 -3 -17t-17 -3h-270q-14 0 -17 -3t-3 -17v-1096q0 -14 -3 -17t-17 -3h-252q-14 0 -17 3t-3 17v1096q0 14 -3 17t-17 3h-268q-14 0 -17 3t-3 17v224zM346 -282q0 66 44 110t110 44t110 -44t44 -110t-44 -110 t-110 -44t-110 44t-44 110z" />
<glyph unicode="&#x1e6d;" horiz-adv-x="602" d="M58 666q-14 0 -17 4t-3 16v176q0 12 3 16t17 4h82q14 0 17 3t3 17v258q0 20 20 32l212 104q4 2 7 4t7 2q10 0 10 -16v-384q0 -14 3 -17t17 -3h122q14 0 17 -4t3 -16v-176q0 -12 -3 -16t-17 -4h-122q-14 0 -17 -3t-3 -17v-626q0 -12 -3 -16t-17 -4h-216q-14 0 -17 4t-3 16 v626q0 14 -3 17t-17 3h-82zM140 -282q0 66 44 110t110 44t110 -44t44 -110t-44 -110t-110 -44t-110 44t-44 110z" />
<glyph unicode="&#x1e80;" horiz-adv-x="1814" d="M920 768q-4 6 -12 6t-10 -6l-300 -794q-2 -4 -9 -6t-11 -2t-10 2t-8 6l-542 1406q-4 8 -4 14t12 6h276q16 0 24 -20l252 -726q2 -6 12 -6q6 0 10 6l286 760q8 20 26 20t26 -20l288 -760q2 -6 10 -6q6 0 10 6l256 726q8 20 24 20h272q12 0 12 -6t-4 -14l-548 -1406 q-2 -4 -8 -6t-10 -2t-11 2t-9 6zM1082 1520q8 -10 8 -16q0 -4 -14 -4h-176q-14 0 -22 6t-16 14l-254 248q-12 12 -12 16t20 4h260q12 0 17 -4t15 -16z" />
<glyph unicode="&#x1e81;" horiz-adv-x="1296" d="M448 -18q-6 -18 -24 -18q-14 0 -22 18l-408 880l-4 12q0 8 18 8h228q12 0 16 -4t10 -16l164 -388q2 -6 12 -6q8 0 12 6l178 410q8 20 20 20t20 -20l180 -410q2 -6 12 -6q8 0 12 6l162 388q6 12 10 16t16 4h228q18 0 18 -8l-4 -12l-404 -880q-4 -10 -8 -14t-14 -4 q-16 0 -24 18l-190 436q-4 6 -12 6q-10 0 -12 -6zM802 1032q8 -10 8 -16q0 -4 -14 -4h-176q-14 0 -22 6t-16 14l-254 248q-12 12 -12 16t20 4h260q12 0 17 -4t15 -16z" />
<glyph unicode="&#x1e82;" horiz-adv-x="1814" d="M920 768q-4 6 -12 6t-10 -6l-300 -794q-2 -4 -9 -6t-11 -2t-10 2t-8 6l-542 1406q-4 8 -4 14t12 6h276q16 0 24 -20l252 -726q2 -6 12 -6q6 0 10 6l286 760q8 20 26 20t26 -20l288 -760q2 -6 10 -6q6 0 10 6l256 726q8 20 24 20h272q12 0 12 -6t-4 -14l-548 -1406 q-2 -4 -8 -6t-10 -2t-11 2t-9 6zM902 1768q10 12 15 16t17 4h260q20 0 20 -4t-12 -16l-254 -248q-8 -8 -16 -14t-22 -6h-176q-14 0 -14 4q0 6 8 16z" />
<glyph unicode="&#x1e83;" horiz-adv-x="1296" d="M448 -18q-6 -18 -24 -18q-14 0 -22 18l-408 880l-4 12q0 8 18 8h228q12 0 16 -4t10 -16l164 -388q2 -6 12 -6q8 0 12 6l178 410q8 20 20 20t20 -20l180 -410q2 -6 12 -6q8 0 12 6l162 388q6 12 10 16t16 4h228q18 0 18 -8l-4 -12l-404 -880q-4 -10 -8 -14t-14 -4 q-16 0 -24 18l-190 436q-4 6 -12 6q-10 0 -12 -6zM662 1280q10 12 15 16t17 4h260q20 0 20 -4t-12 -16l-254 -248q-8 -8 -16 -14t-22 -6h-176q-14 0 -14 4q0 6 8 16z" />
<glyph unicode="&#x1e84;" horiz-adv-x="1814" d="M920 768q-4 6 -12 6t-10 -6l-300 -794q-2 -4 -9 -6t-11 -2t-10 2t-8 6l-542 1406q-4 8 -4 14t12 6h276q16 0 24 -20l252 -726q2 -6 12 -6q6 0 10 6l286 760q8 20 26 20t26 -20l288 -760q2 -6 10 -6q6 0 10 6l256 726q8 20 24 20h272q12 0 12 -6t-4 -14l-548 -1406 q-2 -4 -8 -6t-10 -2t-11 2t-9 6zM1108 1562q-56 0 -97 39t-41 101q0 60 40 101t98 41q60 0 99 -42t39 -98q0 -58 -40 -100t-98 -42zM704 1562q-56 0 -97 39t-41 101q0 60 39 101t99 41t99 -42t39 -98q0 -58 -40 -100t-98 -42z" />
<glyph unicode="&#x1e85;" horiz-adv-x="1296" d="M448 -18q-6 -18 -24 -18q-14 0 -22 18l-408 880l-4 12q0 8 18 8h228q12 0 16 -4t10 -16l164 -388q2 -6 12 -6q8 0 12 6l178 410q8 20 20 20t20 -20l180 -410q2 -6 12 -6q8 0 12 6l162 388q6 12 10 16t16 4h228q18 0 18 -8l-4 -12l-404 -880q-4 -10 -8 -14t-14 -4 q-16 0 -24 18l-190 436q-4 6 -12 6q-10 0 -12 -6zM850 1044q-56 0 -97 39t-41 101q0 60 40 101t98 41q60 0 99 -42t39 -98q0 -58 -40 -100t-98 -42zM446 1044q-56 0 -97 39t-41 101q0 60 39 101t99 41t99 -42t39 -98q0 -58 -40 -100t-98 -42z" />
<glyph unicode="&#x1e9e;" horiz-adv-x="1332" d="M612 -26q-14 0 -17 3t-3 17v220q0 14 3 17t17 3h114q132 0 195 60t63 166q0 102 -74 157t-190 55h-118q-8 0 -8 10q0 4 6 14l222 420q4 8 4 12q0 10 -10 14q-22 8 -47 16t-75 8q-54 0 -105 -14t-92 -49t-65 -95t-24 -152v-836q0 -14 -3 -17t-17 -3h-250q-14 0 -17 3 t-3 17v920q0 114 39 204t113 153t178 96t234 33q174 0 300 -55t186 -133v-6l-192 -340q-6 -10 -6 -14q0 -10 8 -10q56 -16 112 -46t100 -79t72 -119t28 -164q0 -110 -43 -200t-119 -153t-178 -98t-218 -35h-120z" />
<glyph unicode="&#x1ef2;" horiz-adv-x="1192" d="M450 644l-438 736q-4 8 -4 12q0 8 12 8h292q16 0 26 -20l250 -432q2 -6 10 -6q6 0 10 6l252 432q8 14 12 17t14 3h286q12 0 12 -8q0 -4 -4 -12l-438 -736v-624q0 -14 -3 -17t-17 -3h-252q-14 0 -17 3t-3 17v624zM780 1520q8 -10 8 -16q0 -4 -14 -4h-176q-14 0 -22 6 t-16 14l-254 248q-12 12 -12 16t20 4h260q12 0 17 -4t15 -16z" />
<glyph unicode="&#x1ef3;" horiz-adv-x="958" d="M470 348q2 -6 8 -6q4 0 8 6l208 514q6 12 10 16t16 4h230q18 0 18 -8l-4 -12q-136 -322 -270 -642t-270 -642q-6 -12 -10 -16t-16 -4h-228q-18 0 -18 8l4 12l182 442q4 10 4 18t-4 18l-334 806l-4 12q0 8 18 8h224q12 0 16 -4t10 -16zM664 1032q8 -10 8 -16q0 -4 -14 -4 h-176q-14 0 -22 6t-16 14l-254 248q-12 12 -12 16t20 4h260q12 0 17 -4t15 -16z" />
<glyph unicode="&#x2002;" horiz-adv-x="888" />
<glyph unicode="&#x2003;" horiz-adv-x="1776" />
<glyph unicode="&#x2004;" horiz-adv-x="592" />
<glyph unicode="&#x2005;" horiz-adv-x="444" />
<glyph unicode="&#x2006;" horiz-adv-x="250" />
<glyph unicode="&#x2008;" horiz-adv-x="500" />
<glyph unicode="&#x2009;" horiz-adv-x="296" />
<glyph unicode="&#x200a;" horiz-adv-x="148" />
<glyph unicode="&#x200b;" horiz-adv-x="0" />
<glyph unicode="&#x2010;" horiz-adv-x="612" d="M98 618q0 14 4 17t16 3h376q14 0 17 -3t3 -17v-156q0 -14 -3 -17t-17 -3h-376q-14 0 -17 3t-3 17v156z" />
<glyph unicode="&#x2011;" horiz-adv-x="612" d="M98 618q0 14 4 17t16 3h376q14 0 17 -3t3 -17v-156q0 -14 -3 -17t-17 -3h-376q-14 0 -17 3t-3 17v156z" />
<glyph unicode="&#x2012;" horiz-adv-x="1040" d="M40 578q0 14 4 17t16 3h920q14 0 17 -3t3 -17v-132q0 -14 -3 -17t-17 -3h-920q-14 0 -17 3t-3 17v132z" />
<glyph unicode="&#x2013;" horiz-adv-x="976" d="M28 578q0 14 4 17t16 3h880q14 0 17 -3t3 -17v-132q0 -14 -3 -17t-17 -3h-880q-14 0 -17 3t-3 17v132z" />
<glyph unicode="&#x2014;" horiz-adv-x="1628" d="M148 578q0 14 4 17t16 3h1292q14 0 17 -3t3 -17v-132q0 -14 -3 -17t-17 -3h-1292q-14 0 -17 3t-3 17v132z" />
<glyph unicode="&#x2016;" horiz-adv-x="784" d="M126 1480q0 12 3 16t17 4h132q14 0 17 -4t3 -16v-1960q0 -12 -3 -16t-17 -4h-132q-14 0 -17 4t-3 16v1960zM486 1480q0 12 3 16t17 4h132q14 0 17 -4t3 -16v-1960q0 -12 -3 -16t-17 -4h-132q-14 0 -17 4t-3 16v1960z" />
<glyph unicode="&#x2018;" horiz-adv-x="440" d="M336 944q-2 -12 -5 -16t-17 -4h-212q-26 0 -18 20l130 436q4 12 8 16t18 4h104q12 0 14 -4t2 -16z" />
<glyph unicode="&#x2019;" horiz-adv-x="440" d="M104 1380q2 12 5 16t17 4h212q26 0 18 -20l-130 -436q-4 -12 -8 -16t-18 -4h-104q-12 0 -14 4t-2 16z" />
<glyph unicode="&#x201a;" horiz-adv-x="440" d="M104 192q2 12 5 16t17 4h212q26 0 18 -20l-130 -436q-4 -12 -8 -16t-18 -4h-104q-12 0 -14 4t-2 16z" />
<glyph unicode="&#x201c;" horiz-adv-x="790" d="M336 944q-2 -12 -5 -16t-17 -4h-212q-26 0 -18 20l130 436q4 12 8 16t18 4h104q12 0 14 -4t2 -16zM686 944q-2 -12 -5 -16t-17 -4h-212q-26 0 -18 20l130 436q4 12 8 16t18 4h104q12 0 14 -4t2 -16z" />
<glyph unicode="&#x201d;" horiz-adv-x="790" d="M104 1380q2 12 5 16t17 4h212q26 0 18 -20l-130 -436q-4 -12 -8 -16t-18 -4h-104q-12 0 -14 4t-2 16zM454 1380q2 12 5 16t17 4h212q26 0 18 -20l-130 -436q-4 -12 -8 -16t-18 -4h-104q-12 0 -14 4t-2 16z" />
<glyph unicode="&#x201e;" horiz-adv-x="790" d="M104 192q2 12 5 16t17 4h212q26 0 18 -20l-130 -436q-4 -12 -8 -16t-18 -4h-104q-12 0 -14 4t-2 16zM454 192q2 12 5 16t17 4h212q26 0 18 -20l-130 -436q-4 -12 -8 -16t-18 -4h-104q-12 0 -14 4t-2 16z" />
<glyph unicode="&#x2020;" horiz-adv-x="880" d="M520 1094q0 -14 3 -17t17 -3l258 20q14 0 17 -4t3 -16v-146q0 -12 -3 -16t-17 -4l-258 20q-14 0 -17 -3t-3 -17l28 -208v-128l-62 -492q0 -12 -3 -16t-17 -4h-52q-14 0 -17 4t-3 16l-62 492v128l28 208q0 14 -3 17t-17 3l-258 -20q-14 0 -17 4t-3 16v146q0 12 3 16t17 4 l258 -20q14 0 17 3t3 17l-28 286q0 12 3 16t17 4h176q14 0 17 -4t3 -16z" />
<glyph unicode="&#x2021;" horiz-adv-x="880" d="M356 916q0 14 -3 17t-17 3l-254 -20q-14 0 -17 4t-3 16v146q0 12 3 16t17 4l254 -20q14 0 17 3t3 17l-24 278q0 12 3 16t17 4h176q14 0 17 -4t3 -16l-24 -278q0 -14 3 -17t17 -3l254 20q14 0 17 -4t3 -16v-146q0 -12 -3 -16t-17 -4l-254 20q-14 0 -17 -3t-3 -17l24 -170 v-40l-24 -170q0 -14 3 -17t17 -3l254 20q14 0 17 -4t3 -16v-146q0 -12 -3 -16t-17 -4l-254 20q-14 0 -17 -3t-3 -17l24 -278q0 -12 -3 -16t-17 -4h-176q-14 0 -17 4t-3 16l24 278q0 14 -3 17t-17 3l-254 -20q-14 0 -17 4t-3 16v146q0 12 3 16t17 4l254 -20q14 0 17 3t3 17 l-24 170v40z" />
<glyph unicode="&#x2022;" horiz-adv-x="1050" d="M230 638q0 60 23 114t63 95t94 64t116 23t116 -23t93 -64t62 -95t23 -114q0 -62 -23 -116t-62 -95t-93 -64t-116 -23t-116 23t-94 64t-63 95t-23 116z" />
<glyph unicode="&#x2026;" horiz-adv-x="1432" d="M256 -22q-64 0 -110 43t-46 113q0 64 46 110t110 46q66 0 111 -46t45 -110q0 -70 -45 -113t-111 -43zM716 -22q-64 0 -110 43t-46 113q0 64 46 110t110 46q66 0 111 -46t45 -110q0 -70 -45 -113t-111 -43zM1176 -22q-64 0 -110 43t-46 113q0 64 46 110t110 46 q66 0 111 -46t45 -110q0 -70 -45 -113t-111 -43z" />
<glyph unicode="&#x2030;" horiz-adv-x="2526" d="M618 1074q0 35 -11.5 66.5t-32.5 55t-51 37t-67 13.5q-38 0 -69 -13.5t-52.5 -37t-33 -55t-11.5 -66.5t11.5 -66.5t33 -55t52.5 -37t69 -13.5q37 0 67 13.5t51 37t32.5 55t11.5 66.5zM106 1074q0 69 24.5 131t70 109t110.5 74.5t145 27.5q79 0 143 -27.5t109 -74.5 t69.5 -109t24.5 -131t-24.5 -131t-69.5 -109t-109 -74.5t-143 -27.5q-80 0 -145 27.5t-110.5 74.5t-70 109t-24.5 131zM526 20q-9 -14 -14.5 -17t-19.5 -3h-158q-16 0 -16 4q0 5 8 16l892 1360q9 14 14.5 17t19.5 3h158q16 0 16 -4q0 -5 -8 -16zM1452 326q0 35 -11.5 66.5 t-33 55t-52 37t-67.5 13.5q-38 0 -68.5 -13.5t-52 -37t-33.5 -55t-12 -66.5t12 -66.5t33.5 -55t52 -37t68.5 -13.5q37 0 67.5 13.5t52 37t33 55t11.5 66.5zM940 326q0 69 24.5 131t69.5 109t109.5 74.5t144.5 27.5q79 0 143 -27.5t109 -74.5t69.5 -109t24.5 -131t-24.5 -131 t-69.5 -109t-109 -74.5t-143 -27.5q-80 0 -144.5 27.5t-109.5 74.5t-69.5 109t-24.5 131zM2236 326q0 35 -11.5 66.5t-32.5 55t-51.5 37t-68.5 13.5t-68 -13.5t-51.5 -37t-33 -55t-11.5 -66.5t11.5 -66.5t33 -55t51.5 -37t68 -13.5t68.5 13.5t51.5 37t32.5 55t11.5 66.5z M1724 326q0 69 24.5 131t70 109t109.5 74.5t144 27.5q79 0 143.5 -27.5t110 -74.5t70 -109t24.5 -131t-24.5 -131t-70 -109t-110 -74.5t-143.5 -27.5q-80 0 -144 27.5t-109.5 74.5t-70 109t-24.5 131z" />
<glyph unicode="&#x2032;" horiz-adv-x="494" d="M70 968q-12 0 -12.5 4.5t2.5 15.5l114 392q3 12 8.5 16t19.5 4h220q22 0 12 -20l-184 -392q-6 -12 -11 -16t-19 -4h-150z" />
<glyph unicode="&#x2033;" horiz-adv-x="850" d="M70 968q-12 0 -12.5 4.5t2.5 15.5l114 392q3 12 8.5 16t19.5 4h220q22 0 12 -20l-184 -392q-6 -12 -11 -16t-19 -4h-150zM426 968q-12 0 -12.5 4.5t2.5 15.5l114 392q3 12 8.5 16t19.5 4h220q22 0 12 -20l-184 -392q-6 -12 -11 -16t-19 -4h-150z" />
<glyph unicode="&#x2039;" horiz-adv-x="600" d="M100 432q-4 8 -4 12t4 12l238 416q6 12 14 12q5 0 14 -6l136 -78q12 -6 12 -14q0 -4 -4 -12l-186 -314q-5 -8 -5.5 -12.5t-0.5 -9.5q0 -8 6 -20l186 -312q3 -5 4.5 -7t1.5 -5q0 -6 -14 -14l-136 -78q-9 -6 -14 -6q-8 0 -14 12z" />
<glyph unicode="&#x203a;" horiz-adv-x="600" d="M262 8q-6 -12 -14 -12q-5 0 -14 6l-136 78q-14 8 -14 14q0 3 1.5 5t4.5 7l186 312q6 12 6 20q0 5 -0.5 9.5t-5.5 12.5l-186 314q-4 8 -4 12q0 8 12 14l136 78q9 6 14 6q8 0 14 -12l238 -416q4 -8 4 -12t-4 -12z" />
<glyph unicode="&#x2042;" horiz-adv-x="1560" d="M260 106q-14 0 -17 4t-3 16l18 148l-6 4l-120 -90q-10 -6 -14 -6q-6 0 -14 14l-64 110q-4 12 -4 14t12 12l140 56v12l-140 58q-12 6 -12 12q0 4 6 14l64 110q6 14 14 14l12 -4l120 -96l6 2l-18 152q0 12 2 16t16 4h128q16 0 19 -3t3 -17l-20 -150l8 -4l122 92q8 6 14 6 t12 -12l62 -110q6 -10 6 -16t-12 -12l-140 -58v-10l140 -56q12 -10 12 -14q0 -6 -6 -14l-62 -108q-8 -14 -14 -14t-14 6l-120 90l-6 -4l18 -148q0 -12 -3 -16t-17 -4h-128v0zM1114 106q-14 0 -17 4t-3 16l18 148l-6 4l-120 -90q-10 -6 -14 -6q-6 0 -14 14l-64 110 q-4 12 -4 14t12 12l140 56v12l-140 58q-12 6 -12 12q0 4 6 14l64 110q6 14 14 14l12 -4l120 -96l6 2l-18 152q0 12 2 16t16 4h128q16 0 19 -3t3 -17l-20 -150l8 -4l122 92q8 6 14 6t12 -12l62 -110q6 -10 6 -16t-12 -12l-140 -58v-10l140 -56q12 -10 12 -14q0 -6 -6 -14 l-62 -108q-8 -14 -14 -14t-14 6l-120 90l-6 -4l18 -148q0 -12 -3 -16t-17 -4h-128v0zM686 846q-14 0 -17 4t-3 16l18 148l-6 4l-120 -90q-10 -6 -14 -6q-6 0 -14 14l-64 110q-4 12 -4 14t12 12l140 56v12l-140 58q-12 6 -12 12q0 4 6 14l64 110q6 14 14 14l12 -4l120 -96 l6 2l-18 152q0 12 2 16t16 4h128q16 0 19 -3t3 -17l-20 -150l8 -4l122 92q8 6 14 6t12 -12l62 -110q6 -10 6 -16t-12 -12l-140 -58v-10l140 -56q12 -10 12 -14q0 -6 -6 -14l-62 -108q-8 -14 -14 -14t-14 6l-120 90l-6 -4l18 -148q0 -12 -3 -16t-17 -4h-128v0z" />
<glyph unicode="&#x2044;" horiz-adv-x="1106" d="M116 62q180 340 359.5 680.5t358.5 681.5q8 14 16 14q2 0 4.5 -1l7.5 -3l120 -62q12 -9 12 -16q0 -4 -4 -12q-180 -341 -360 -681.5t-358 -680.5q-8 -14 -16 -14q-3 0 -5 1t-7 3l-120 62q-12 6 -12 14q0 3 1 6t3 8z" />
<glyph unicode="&#x2070;" d="M658 1266q0 -92 -20.5 -165.5t-58.5 -125t-92 -79.5t-121 -28t-121 28t-92 79.5t-58.5 125t-20.5 165.5t20.5 165.5t58.5 124.5t92 78.5t121 27.5t121 -27.5t92 -78.5t58.5 -124.5t20.5 -165.5zM262 1266q0 -41 6.5 -77t20 -62.5t32.5 -41.5t45 -15q25 0 44.5 15t32 41.5 t19 62.5t6.5 77t-6.5 76.5t-19 61.5t-32 41t-44.5 15q-26 0 -45 -15t-32.5 -41t-20 -61.5t-6.5 -76.5z" />
<glyph unicode="&#x2074;" d="M74 982q-15 0 -20.5 3t-5.5 9q0 5 3.5 11t8.5 11l502 630l8.5 8.5t9.5 3.5t8 -3.5t2 -8.5v-486q0 -14 3 -17t17 -3h52q14 0 17 -3t3 -17v-118q0 -14 -3 -17t-17 -3h-52q-14 0 -17 -3t-3 -17v-60q0 -14 -3 -17t-17 -3h-132q-14 0 -17 3t-3 17v60q0 14 -3 17t-17 3h-324z M434 1288q0 10 -4 10t-10 -6l-110 -148q-3 -5 -5.5 -8t-2.5 -6q0 -6 12 -6h100q14 0 17 3t3 17v144z" />
<glyph unicode="&#x2075;" d="M212 1102q8 -11 19.5 -24t26.5 -24t33 -18.5t39 -7.5q30 0 50.5 8.5t32.5 23.5t17.5 34t5.5 40q0 19 -6.5 36t-21 30.5t-37.5 21.5t-55 8q-48 0 -73.5 -12t-34.5 -18q-3 -2 -5.5 -2h-4.5q-5 0 -9.5 1t-4.5 7l22 426q0 11 5 14.5t17 3.5h358q8 0 13 -6t5 -12v-122 q0 -8 -5 -13t-13 -5h-220q-8 0 -11 -2t-3 -10l-4 -114q0 -8 2 -10t10 -2h2q58 0 107 -17t83.5 -48t54 -73.5t19.5 -93.5q0 -53 -19 -99t-55 -80t-87 -53.5t-115 -19.5q-39 0 -75 7.5t-67.5 19.5t-56.5 28.5t-41 34.5q-3 5 -3.5 6.5t-0.5 3.5t0.5 4.5t3.5 5.5l86 124q4 4 8 4 q5 0 8 -6z" />
<glyph unicode="&#x2076;" d="M398 1386q-3 -3 -1 -4.5t7 -1.5q55 -7 100 -27t77 -52.5t49.5 -76t17.5 -96.5t-20.5 -100t-58 -82t-89 -55.5t-112.5 -20.5q-62 0 -114 20.5t-89.5 55.5t-59 82t-21.5 100q0 37 10 70t28 66t42.5 67.5t53.5 72.5l180 236q5 6 8.5 8t11.5 2h182q8 0 8 -2t-1 -3.5l-3 -4.5z M276 1128q0 -17 7.5 -34.5t20 -31t29 -22t35.5 -8.5t36 8.5t30 22t20.5 31t7.5 34.5q0 19 -6.5 36.5t-18.5 31t-29.5 22t-39.5 8.5q-20 0 -36.5 -8.5t-29 -22t-19.5 -31t-7 -36.5z" />
<glyph unicode="&#x2077;" d="M126 882q-8 0 -10 2.5t-2 5.5q0 8 2 12l264 562q2 5 3 7t1 5q0 16 -14 16h-260q-12 0 -15 3t-3 15v120q0 14 3 17t15 3h518q12 0 12 -8q0 -4 -4 -12l-328 -730q-6 -12 -10.5 -15t-19.5 -3h-152z" />
<glyph unicode="&#x2078;" d="M272 1116q0 -39 25 -65.5t69 -26.5q39 0 66.5 26.5t27.5 65.5q0 41 -23.5 67.5t-70.5 26.5q-45 0 -69.5 -26.5t-24.5 -67.5zM288 1436q0 -39 21 -59.5t59 -20.5q36 0 57 20.5t21 59.5q0 35 -21 55.5t-57 20.5q-38 0 -59 -20.5t-21 -55.5zM368 1662q61 0 108.5 -15.5 t79 -42.5t48 -65t16.5 -83q0 -28 -7.5 -50.5t-20 -41t-29 -33t-33.5 -25.5q-4 -2 -4 -6t4 -6q26 -13 49 -29.5t39.5 -39t26 -50.5t9.5 -63q0 -51 -18 -95t-54 -77t-89.5 -51.5t-124.5 -18.5q-72 0 -126.5 18.5t-90.5 51.5t-54.5 77t-18.5 95q0 35 10 63t26.5 50.5t39 39 t48.5 29.5q4 2 4 6t-4 6q-17 11 -33 25.5t-28 33t-19.5 41t-7.5 50.5q0 45 16.5 83t48.5 65t79.5 42.5t109.5 15.5z" />
<glyph unicode="&#x2079;" d="M318 1140q3 3 1 4.5t-7 1.5q-110 14 -169 82.5t-59 175.5q0 53 20.5 100t58 82t88.5 55.5t113 20.5q61 0 113.5 -20.5t90 -55.5t59 -82t21.5 -100q0 -37 -10.5 -70.5t-28.5 -66.5t-42.5 -67t-52.5 -72l-180 -236q-5 -6 -8.5 -8t-11.5 -2h-190q-8 0 -8 2t1 3.5l3 4.5z M456 1398q0 17 -7.5 34.5t-20 31t-29 22t-35.5 8.5t-36 -8.5t-30 -22t-20.5 -31t-7.5 -34.5q0 -19 6.5 -36.5t18.5 -31t29.5 -22t39.5 -8.5q19 0 36 8.5t29.5 22t19.5 31t7 36.5z" />
<glyph unicode="&#x207a;" d="M450 1362q0 -14 3 -17t17 -3h182q14 0 17 -4t3 -16v-114q0 -12 -3 -16t-17 -4h-182q-14 0 -17 -3t-3 -17v-198q0 -12 -3 -16t-17 -4h-130q-14 0 -17 4t-3 16v198q0 14 -3 17t-17 3h-182q-14 0 -17 4t-3 16v114q0 12 3 16t17 4h182q14 0 17 3t3 17v198q0 12 3 16t17 4h130 q14 0 17 -4t3 -16v-198z" />
<glyph unicode="&#x207b;" d="M648 1342q14 0 17 -4t3 -16v-114q0 -12 -3 -16t-17 -4h-564q-14 0 -17 4t-3 16v114q0 12 3 16t17 4h564z" />
<glyph unicode="&#x207c;" d="M648 1168q14 0 17 -4t3 -16v-114q0 -12 -3 -16t-17 -4h-564q-14 0 -17 4t-3 16v114q0 12 3 16t17 4h564zM648 1516q14 0 17 -4t3 -16v-114q0 -12 -3 -16t-17 -4h-564q-14 0 -17 4t-3 16v114q0 12 3 16t17 4h564z" />
<glyph unicode="&#x207d;" d="M384 1250q0 -77 10 -151t27 -142.5t40.5 -129t50.5 -109.5q2 -2 2 -8q0 -2 -2 -4t-12.5 -6.5t-34.5 -12.5t-67 -21q-2 -2 -5.5 -2h-6.5q-5 0 -7 3t-5 11q-27 57 -55 122.5t-50.5 138t-36.5 150.5t-14 161q0 82 14 160.5t36.5 151t50.5 138t55 122.5q3 8 5 11t7 3h6.5 t5.5 -2q43 -14 67 -21.5t34.5 -12t12.5 -6.5t2 -4q0 -6 -2 -8q-27 -49 -50.5 -109.5t-40.5 -129t-27 -143t-10 -150.5z" />
<glyph unicode="&#x207e;" d="M348 1250q0 76 -10 150.5t-27 143t-40.5 129t-50.5 109.5q-2 2 -2 8q0 2 2 4t12.5 6.5t34.5 12t67 21.5q2 2 5.5 2h6.5q5 0 7 -3t5 -11q27 -57 55 -122.5t50.5 -138t36.5 -151t14 -160.5q0 -83 -14 -161t-36.5 -150.5t-50.5 -138t-55 -122.5q-3 -8 -5 -11t-7 -3h-6.5 t-5.5 2q-43 13 -67 21t-34.5 12.5t-12.5 6.5t-2 4q0 6 2 8q27 49 50.5 109.5t40.5 129t27 142.5t10 151z" />
<glyph unicode="&#x2080;" d="M658 124q0 -92 -20.5 -165.5t-58.5 -125t-92 -79.5t-121 -28t-121 28t-92 79.5t-58.5 125t-20.5 165.5t20.5 165.5t58.5 124.5t92 78.5t121 27.5t121 -27.5t92 -78.5t58.5 -124.5t20.5 -165.5zM262 124q0 -41 6.5 -77t20 -62.5t32.5 -41.5t45 -15q25 0 44.5 15t32 41.5 t19 62.5t6.5 77t-6.5 76.5t-19 61.5t-32 41t-44.5 15q-26 0 -45 -15t-32.5 -41t-20 -61.5t-6.5 -76.5z" />
<glyph unicode="&#x2081;" d="M536 -240q0 -12 -3 -16t-17 -4h-142q-12 0 -16 4t-4 16v514q0 15 -3 20t-17 0l-120 -36q-12 -5 -16 -3.5t-4 15.5v126q0 14 4 18.5t16 9.5l302 100q15 5 17.5 1.5t2.5 -17.5v-748z" />
<glyph unicode="&#x2082;" d="M80 236q-3 59 14.5 111t53.5 90.5t89 60.5t121 22q71 0 125.5 -19t91 -53.5t55 -83t18.5 -106.5q0 -38 -10.5 -74.5t-33 -75t-57 -80.5t-83.5 -90l-24 -24q-3 -5 -5.5 -6.5t-2.5 -3.5q0 -6 12 -6h190q14 0 17 -3t3 -17v-118q0 -14 -3 -17t-17 -3h-534q-6 0 -9 3.5t-3 8.5 q0 6 2.5 9.5t5.5 8.5q29 31 67 70t78.5 81.5t80 87t70 86.5t49.5 80.5t19 68.5q0 47 -24.5 79.5t-75.5 32.5q-28 0 -47.5 -10t-31.5 -26.5t-17.5 -37t-5.5 -42.5q0 -20 -20 -20h-142q-9 0 -12.5 2.5t-3.5 13.5z" />
<glyph unicode="&#x2083;" d="M258 294q0 -14 -3 -17t-15 -3h-126q-14 0 -17 3t-3 17q1 52 19 93.5t52 71t82 45.5t109 16q60 0 108.5 -15.5t82.5 -42.5t52.5 -64t18.5 -80q0 -48 -21 -81.5t-53 -56.5q-6 -6 -6 -10q0 -2 6 -8q50 -29 80 -79.5t30 -112.5q0 -55 -20 -99.5t-57.5 -76t-91.5 -49 t-123 -17.5q-68 0 -121 17.5t-89 49.5t-55 77.5t-19 101.5q0 14 3 17t17 3h132q14 0 17 -3t3 -17q0 -42 27.5 -65t74.5 -23q48 0 76 22t28 66q0 42 -26.5 66t-83.5 24h-52q-14 0 -17 3t-3 17v92q0 14 3 17t17 3h46q42 0 68 21t26 63q0 39 -24 62.5t-62 23.5 q-41 0 -64.5 -18.5t-25.5 -53.5z" />
<glyph unicode="&#x2084;" d="M74 -160q-15 0 -20.5 3t-5.5 9q0 5 3.5 11t8.5 11l502 630l8.5 8.5t9.5 3.5t8 -3.5t2 -8.5v-486q0 -14 3 -17t17 -3h52q14 0 17 -3t3 -17v-118q0 -14 -3 -17t-17 -3h-52q-14 0 -17 -3t-3 -17v-60q0 -14 -3 -17t-17 -3h-132q-14 0 -17 3t-3 17v60q0 14 -3 17t-17 3h-324z M434 146q0 10 -4 10t-10 -6l-110 -148q-3 -5 -5.5 -8t-2.5 -6q0 -6 12 -6h100q14 0 17 3t3 17v144z" />
<glyph unicode="&#x2085;" d="M212 -40q8 -11 19.5 -24t26.5 -24t33 -18.5t39 -7.5q30 0 50.5 8.5t32.5 23.5t17.5 34t5.5 40q0 19 -6.5 36t-21 30.5t-37.5 21.5t-55 8q-48 0 -73.5 -12t-34.5 -18q-3 -2 -5.5 -2h-4.5q-5 0 -9.5 1t-4.5 7l22 426q0 11 5 14.5t17 3.5h358q8 0 13 -6t5 -12v-122 q0 -8 -5 -13t-13 -5h-220q-8 0 -11 -2t-3 -10l-4 -114q0 -8 2 -10t10 -2h2q58 0 107 -17t83.5 -48t54 -73.5t19.5 -93.5q0 -53 -19 -99t-55 -80t-87 -53.5t-115 -19.5q-39 0 -75 7.5t-67.5 19.5t-56.5 28.5t-41 34.5q-3 5 -3.5 6.5t-0.5 3.5t0.5 4.5t3.5 5.5l86 124q4 4 8 4 q5 0 8 -6z" />
<glyph unicode="&#x2086;" d="M398 244q-3 -3 -1 -4.5t7 -1.5q55 -7 100 -27t77 -52.5t49.5 -76t17.5 -96.5t-20.5 -100t-58 -82t-89 -55.5t-112.5 -20.5q-62 0 -114 20.5t-89.5 55.5t-59 82t-21.5 100q0 37 10 70t28 66t42.5 67.5t53.5 72.5l180 236q5 6 8.5 8t11.5 2h182q8 0 8 -2t-1 -3.5l-3 -4.5z M276 -14q0 -17 7.5 -34.5t20 -31t29 -22t35.5 -8.5t36 8.5t30 22t20.5 31t7.5 34.5q0 19 -6.5 36.5t-18.5 31t-29.5 22t-39.5 8.5q-20 0 -36.5 -8.5t-29 -22t-19.5 -31t-7 -36.5z" />
<glyph unicode="&#x2087;" d="M126 -260q-8 0 -10 2.5t-2 5.5q0 8 2 12l264 562q2 5 3 7t1 5q0 16 -14 16h-260q-12 0 -15 3t-3 15v120q0 14 3 17t15 3h518q12 0 12 -8q0 -4 -4 -12l-328 -730q-6 -12 -10.5 -15t-19.5 -3h-152z" />
<glyph unicode="&#x2088;" d="M272 -26q0 -39 25 -65.5t69 -26.5q39 0 66.5 26.5t27.5 65.5q0 41 -23.5 67.5t-70.5 26.5q-45 0 -69.5 -26.5t-24.5 -67.5zM288 294q0 -39 21 -59.5t59 -20.5q36 0 57 20.5t21 59.5q0 35 -21 55.5t-57 20.5q-38 0 -59 -20.5t-21 -55.5zM368 520q61 0 108.5 -15.5 t79 -42.5t48 -65t16.5 -83q0 -28 -7.5 -50.5t-20 -41t-29 -33t-33.5 -25.5q-4 -2 -4 -6t4 -6q26 -13 49 -29.5t39.5 -39t26 -50.5t9.5 -63q0 -51 -18 -95t-54 -77t-89.5 -51.5t-124.5 -18.5q-72 0 -126.5 18.5t-90.5 51.5t-54.5 77t-18.5 95q0 35 10 63t26.5 50.5t39 39 t48.5 29.5q4 2 4 6t-4 6q-17 11 -33 25.5t-28 33t-19.5 41t-7.5 50.5q0 45 16.5 83t48.5 65t79.5 42.5t109.5 15.5z" />
<glyph unicode="&#x2089;" d="M318 -2q3 3 1 4.5t-7 1.5q-110 14 -169 82.5t-59 175.5q0 53 20.5 100t58 82t88.5 55.5t113 20.5q61 0 113.5 -20.5t90 -55.5t59 -82t21.5 -100q0 -37 -10.5 -70.5t-28.5 -66.5t-42.5 -67t-52.5 -72l-180 -236q-5 -6 -8.5 -8t-11.5 -2h-190q-8 0 -8 2t1 3.5l3 4.5z M456 256q0 17 -7.5 34.5t-20 31t-29 22t-35.5 8.5t-36 -8.5t-30 -22t-20.5 -31t-7.5 -34.5q0 -19 6.5 -36.5t18.5 -31t29.5 -22t39.5 -8.5q19 0 36 8.5t29.5 22t19.5 31t7 36.5z" />
<glyph unicode="&#x208a;" d="M450 162q0 -14 3 -17t17 -3h182q14 0 17 -4t3 -16v-114q0 -12 -3 -16t-17 -4h-182q-14 0 -17 -3t-3 -17v-198q0 -12 -3 -16t-17 -4h-130q-14 0 -17 4t-3 16v198q0 14 -3 17t-17 3h-182q-14 0 -17 4t-3 16v114q0 12 3 16t17 4h182q14 0 17 3t3 17v198q0 12 3 16t17 4h130 q14 0 17 -4t3 -16v-198z" />
<glyph unicode="&#x208b;" d="M648 128q14 0 17 -4t3 -16v-114q0 -12 -3 -16t-17 -4h-564q-14 0 -17 4t-3 16v114q0 12 3 16t17 4h564z" />
<glyph unicode="&#x208c;" d="M648 -46q14 0 17 -4t3 -16v-114q0 -12 -3 -16t-17 -4h-564q-14 0 -17 4t-3 16v114q0 12 3 16t17 4h564zM648 302q14 0 17 -4t3 -16v-114q0 -12 -3 -16t-17 -4h-564q-14 0 -17 4t-3 16v114q0 12 3 16t17 4h564z" />
<glyph unicode="&#x208d;" d="M384 50q0 -77 10 -151t27 -142.5t40.5 -129t50.5 -109.5q2 -2 2 -8q0 -2 -2 -4t-12.5 -6.5t-34.5 -12.5t-67 -21q-2 -2 -5.5 -2h-6.5q-5 0 -7 3t-5 11q-27 57 -55 122.5t-50.5 138t-36.5 150.5t-14 161q0 82 14 160.5t36.5 151t50.5 138t55 122.5q3 8 5 11t7 3h6.5 t5.5 -2q43 -14 67 -21.5t34.5 -12t12.5 -6.5t2 -4q0 -6 -2 -8q-27 -49 -50.5 -109.5t-40.5 -129t-27 -143t-10 -150.5z" />
<glyph unicode="&#x208e;" d="M348 50q0 76 -10 150.5t-27 143t-40.5 129t-50.5 109.5q-2 2 -2 8q0 2 2 4t12.5 6.5t34.5 12t67 21.5q2 2 5.5 2h6.5q5 0 7 -3t5 -11q27 -57 55 -122.5t50.5 -138t36.5 -151t14 -160.5q0 -83 -14 -161t-36.5 -150.5t-50.5 -138t-55 -122.5q-3 -8 -5 -11t-7 -3h-6.5 t-5.5 2q-43 13 -67 21t-34.5 12.5t-12.5 6.5t-2 4q0 6 2 8q27 49 50.5 109.5t40.5 129t27 142.5t10 151z" />
<glyph unicode="&#x2090;" d="M458 -38q0 29 -10 55.5t-28.5 46.5t-45 32t-58.5 12q-31 0 -57 -11.5t-45 -31t-29.5 -46t-10.5 -57.5q0 -32 10.5 -59.5t29.5 -47.5t45 -31.5t57 -11.5q32 0 58.5 12t45 32.5t28.5 47.5t10 58zM632 -298q0 -12 -3 -16t-17 -4h-134q-14 0 -17 4t-3 16v40q0 2 -3 3t-5 1h-3 q-3 0 -5 -2q-35 -33 -76.5 -53.5t-97.5 -20.5q-60 0 -109.5 22t-85.5 60.5t-55.5 90.5t-19.5 113q0 58 19.5 111t55.5 93.5t85.5 64t109.5 23.5q56 0 97.5 -20.5t76.5 -53.5q2 -2 5 -2h3q2 0 5 1t3 3v40q0 12 3 16t17 4h134q14 0 17 -4t3 -16v-514z" />
<glyph unicode="&#x2091;" d="M242 34q0 -11 2.5 -13.5t13.5 -2.5h204q14 0 17 4.5t1 15.5q-5 42 -36 62t-82 20q-23 0 -44.5 -6t-38 -17.5t-27 -27.5t-10.5 -35zM402 -192q41 0 73.5 7t55.5 16t37.5 16t19.5 7q8 0 8 -20v-24v-90q0 -8 -2.5 -14.5t-13.5 -9.5q-35 -11 -85.5 -18.5t-104.5 -7.5 q-157 0 -241.5 79t-84.5 219q0 64 21.5 116t62 88.5t98 56t128.5 19.5q68 0 122.5 -19.5t92.5 -56t58.5 -88.5t20.5 -116v-38q0 -12 -3 -16t-17 -4h-380q-15 0 -18.5 -3t-3.5 -15q8 -44 52.5 -64t103.5 -20z" />
<glyph unicode="&#x2092;" d="M366 108q-31 0 -56.5 -11.5t-44 -31.5t-29 -47t-10.5 -58q0 -32 10.5 -60t29 -48.5t44 -32t56.5 -11.5t56.5 11.5t44 32t29 48.5t10.5 60q0 31 -10.5 58t-29 47t-44 31.5t-56.5 11.5zM366 -330q-69 0 -126 21.5t-98 60t-63.5 91.5t-22.5 117q0 61 22.5 114t63.5 91.5 t98 60.5t126 22t126 -22t98 -60.5t63.5 -91.5t22.5 -114q0 -64 -22.5 -117t-63.5 -91.5t-98 -60t-126 -21.5z" />
</font>
</defs>
</svg>
