<svg xmlns="http://www.w3.org/2000/svg" width="80" height="80" viewBox="0 0 80 80">
    <g fill="none" fill-rule="evenodd">
        <path fill="#F29318" d="M45.067 39.005c-.468 0-.94.04-1.405.121l-2.05.355a8.19 8.19 0 0 0-5.327 3.376A8.158 8.158 0 0 0 34.893 49l3.14 18.073a8.23 8.23 0 0 0 8.133 6.827c.467 0 .94-.04 1.404-.121l2.05-.355c4.482-.776 7.496-5.046 6.72-9.519L53.2 45.831a8.231 8.231 0 0 0-8.133-6.826"/>
        <path fill="#FFF" d="M45.067 40.008c3.453 0 6.534 2.49 7.143 5.995l3.14 18.073c.68 3.919-1.975 7.68-5.9 8.36l-2.051.355a7.28 7.28 0 0 1-1.233.106c-3.453 0-6.534-2.49-7.143-5.995l-3.14-18.074c-.68-3.918 1.974-7.68 5.9-8.359l2.05-.355a7.174 7.174 0 0 1 1.234-.106"/>
        <path fill="#F29318" d="M62.414 65.674l.03.206.348 2.952 8.894.867c4.386.77 7.165 4.778 8.491 10.301L51.767 80h-.005l-15.294.002-.003-.002H24.54l2.47-1.011a282.14 282.14 0 0 1 7.265-2.827l.94-.346-.784-6.64a4.177 4.177 0 0 1 3.458-4.606l.207-.03 19.701-2.317a4.183 4.183 0 0 1 4.616 3.452zm-47.69-.667l5.923 6.653-.865 1.736A250.034 250.034 0 0 1 16.313 80H2.057l.779-1.006a232.367 232.367 0 0 1 11.233-13.277l.655-.71zM58.16 28.448a4.61 4.61 0 0 0-.947.098l-2.314.49a4.552 4.552 0 0 0-3.515 5.388l.49 2.316a4.579 4.579 0 0 0 4.457 3.613c.316 0 .634-.033.945-.099l2.314-.488a4.558 4.558 0 0 0 3.52-5.397l-.491-2.316a4.575 4.575 0 0 0-4.458-3.605"/>
        <path fill="#F29318" d="M55.93 7.056l.19.04-3.173 4.865.024.022.01-.014a3.471 3.471 0 0 1 3.535-1.521l.19.04-2.123 3.257a11.478 11.478 0 0 1 1.957 4.12l.088.384 2.302 10.868c1.416 6.681-3.865 10.749-11.174 12.378l-.334.072-9.002 1.9c-7.346 1.55-13.913.088-15.48-6.44l-.068-.3-2.303-10.868c-1.412-6.664 3.3-13.335 10.6-15.036l.32-.07 9.002-1.9c3.853-.813 7.638-.09 10.598 1.727l1.305-2.002a3.472 3.472 0 0 1 3.535-1.522z"/>
        <path fill="#F29318" d="M41.659 14.079c-1.29 0-2.644.146-4.14.447-.185.037-1.309.276-1.56.332-.25.05-1.376.285-1.561.326C23.656 17.56 20.14 25.603 23.335 40.498c1.024 4.773 2.133 7.507 4.945 12.19 3.172 5.28 7.556 7.958 13.03 7.958 1.322 0 2.72-.16 4.154-.478l.064-.015.027-.006.026-.005.063-.012c7.36-1.48 11.745-6.245 12.68-13.783.673-5.417.578-8.366-.421-13.143C55.21 20.335 49.896 14.08 41.659 14.08"/>
        <path fill="#FFF" d="M41.659 15.082c5.76 0 11.18 3.175 14.392 14.735l1.37-.29a3.553 3.553 0 0 1 4.215 2.733l.49 2.317a3.55 3.55 0 0 1-2.744 4.208l-1.66.35c.102 2.121-.042 4.249-.395 7.09-.941 7.585-5.31 11.496-11.55 12.853l-.53.11a18.235 18.235 0 0 1-3.937.455c-4.782 0-9.005-2.204-12.168-7.47-2.707-4.51-3.8-7.103-4.824-11.884-3.674-17.132 2.378-22.227 9.839-24.02l.526-.12 3.035-.64c1.317-.265 2.637-.427 3.94-.427z"/>
        <path fill="#F29318" d="M50.05 47.043a1.5 1.5 0 0 1 .228.877c-.177 3.305-1.894 5.509-5.081 6.525-3.089.986-5.68.48-7.694-1.525a1.5 1.5 0 0 1 .783-2.538 27.342 27.342 0 0 0 4.996-1.456 28.446 28.446 0 0 0 4.701-2.357 1.5 1.5 0 0 1 2.068.474zm-1.536.373a29.445 29.445 0 0 1-4.866 2.44 28.34 28.34 0 0 1-5.179 1.51.5.5 0 0 0-.26.845c1.735 1.729 3.936 2.158 6.684 1.282 2.793-.891 4.232-2.738 4.386-5.627a.5.5 0 0 0-.765-.45zm-1.498-19.321c1.242 0 2.402.545 3.196 1.446a.765.765 0 0 1 .17-.056l1.837-.388a.835.835 0 1 1 .347 1.634l-1.499.317.063.214.052.22.58 2.78a4.258 4.258 0 0 1-3.095 4.99l-.207.049-2.778.577a4.268 4.268 0 0 1-5-3.097l-.05-.206-.228-1.098a.841.841 0 0 1-.193.065l-2.409.508-.052.463.13.633a4.241 4.241 0 0 1-.48 3l-.088 1.17c-.136 2.015-.178 3.783 0 4.387.09.305.512.44.85.5 1.483.262 4.014-.48 4.673-1.368.172-.233.14-.373.08-.491a.501.501 0 1 1 .895-.456c.257.503.197 1.051-.168 1.543-.827 1.116-3.084 1.827-4.806 1.827-.303 0-.59-.022-.848-.068-1.118-.196-1.508-.762-1.639-1.202-.223-.751-.178-2.642-.051-4.59-.43.33-.928.582-1.48.73l-.239.056-2.778.577a4.267 4.267 0 0 1-5.001-3.097l-.048-.205-.58-2.781a4.288 4.288 0 0 1-.06-.364l-1.555.329a.836.836 0 0 1-.347-1.635l1.837-.388a.84.84 0 0 1 .212-.017 4.263 4.263 0 0 1 2.998-2.904l.225-.053 2.779-.577a4.26 4.26 0 0 1 4.992 3.091l.065.285 2.547-.537c.07-.015.14-.02.208-.018l-.02-.095a4.258 4.258 0 0 1 3.103-4.984l.207-.049 2.779-.577c.293-.06.586-.09.874-.09zm-13.88 3.997c-.145 0-.29.01-.433.03l-.215.036-2.778.579a3.137 3.137 0 0 0-1.996 1.354 3.111 3.111 0 0 0-.486 2.154l.036.206.58 2.78a3.161 3.161 0 0 0 3.514 2.477l.216-.037 2.778-.577a3.123 3.123 0 0 0 1.988-1.354l.097-.158.09-.997c.06-.637.119-1.209.168-1.663l-.487-2.33a3.153 3.153 0 0 0-3.073-2.5zm-2.215 4.65l.303 1.43a.836.836 0 0 1-1.638.346l-.303-1.43a.835.835 0 0 1 .646-.99.835.835 0 0 1 .992.644zm16.095-7.533c-.144 0-.288.01-.432.03l-.215.036-2.778.578a3.134 3.134 0 0 0-1.996 1.355 3.109 3.109 0 0 0-.486 2.154l.036.205.58 2.781a3.16 3.16 0 0 0 3.514 2.476l.216-.037 2.778-.577a3.146 3.146 0 0 0 2.468-3.545l-.032-.175-.58-2.78a3.153 3.153 0 0 0-3.073-2.501zm11.363 2.325a3.76 3.76 0 0 1 1.643 2.389c.21.988.02 2-.533 2.849a.559.559 0 0 1-.935-.608c.39-.599.524-1.313.376-2.01a2.654 2.654 0 0 0-1.159-1.687.557.557 0 0 1 .608-.933zM44.723 33.83l.304 1.43a.836.836 0 0 1-.82 1.007.836.836 0 0 1-.818-.662l-.303-1.43a.836.836 0 1 1 1.637-.345zm-10.999-6.924a.501.501 0 1 1-.213.98c-2.192-.475-3.685-.158-5.703 1.21a.5.5 0 1 1-.565-.829c2.252-1.526 4.008-1.895 6.481-1.36zm15.285-.966a.502.502 0 1 1-.6.805c-1.8-1.335-3.29-1.664-5.696-1.248a.502.502 0 0 1-.17-.988c2.683-.464 4.435-.075 6.466 1.43z"/>
        <g transform="translate(26 49.125)">
            <ellipse cx="9" cy="7.875" fill="#9F6EAF" rx="9" ry="7.875"/>
            <path fill="#865596" d="M9 15.75c5.378-.196 8.378-2.82 9-7.875-1.333 2.667-3.667 4.58-7 5.741-3.333 1.16-7-.753-11-5.741.622 5.446 3.622 8.07 9 7.875z"/>
            <path fill="#6C3B7C" d="M8.5 7.875c1.38 0 2.5.895 2.5 2s-1.12 2-2.5 2-2.5-.895-2.5-2 1.12-2 2.5-2zm5.5-3c1.105 0 2 .672 2 1.5s-.895 1.5-2 1.5-2-.672-2-1.5.895-1.5 2-1.5zm-6.5-2c.828 0 1.5.448 1.5 1s-.672 1-1.5 1-1.5-.448-1.5-1 .672-1 1.5-1z"/>
        </g>
        <path fill="#F29318" d="M24.527 52.391c-.936 0-1.883.363-2.668 1.022l-3.819 3.21c-.004.003-.342.299-.543.554a3.893 3.893 0 0 0-.56.95c-1.688 3.08-3.374 6.874-1.576 9.05l2.856 3.457c.815.988 2.098 1.51 3.707 1.51 2.873 0 6.417-1.641 8.293-3.186 2.578-2.12 3.375-4.882 2.13-7.385a1.108 1.108 0 0 0-.352-.412l1.481-1.245c.472-.396.533-1.099.135-1.57a3.73 3.73 0 0 0-2.724-1.308l.095-.08a1.113 1.113 0 0 0 .135-1.569 3.735 3.735 0 0 0-2.87-1.312c-.283 0-.564.03-.839.09a1.11 1.11 0 0 0-.25-.552 3.39 3.39 0 0 0-2.63-1.224"/>
        <path fill="#FFF" d="M24.527 53.505a2.28 2.28 0 0 1 1.778.828l-6.306 5.298.786.951 5.603-4.708a2.891 2.891 0 0 1 1.858-.683c.762 0 1.506.31 2.017.915l-7.777 6.535.763.925 5.634-4.734a2.891 2.891 0 0 1 1.858-.683c.763 0 1.505.31 2.017.915l-7.808 6.56.086.104c.234.282.574.429.917.429.266 0 .532-.088.753-.269l4.642-3.82c1.087 2.188.13 4.41-1.84 6.03-1.721 1.416-5.015 2.932-7.584 2.932-1.173 0-2.196-.317-2.846-1.104l-2.855-3.457c-1.44-1.742.436-5.518 1.722-7.86a2.89 2.89 0 0 1 .42-.733c.026-.045.287-.311.394-.401l3.82-3.21c.59-.496 1.284-.76 1.948-.76"/>
    </g>
</svg>
