<?xml version="1.0" encoding="UTF-8"?>
<svg width="940px" height="300px" viewBox="0 0 940 300" version="1.1" xmlns="http://www.w3.org/2000/svg" xmlns:xlink="http://www.w3.org/1999/xlink">
    <!-- Generator: Sketch 58 (84663) - https://sketch.com -->
    <title>Benefit logos / FInlayson-white</title>
    <desc>Created with Sketch.</desc>
    <defs>
        <path d="M584.409253,143.609419 C587.158,143.574567 589.799943,144.673913 591.714487,146.649218 L589.344502,149.04906 C588.002694,147.613815 586.104919,146.83228 584.142962,146.906979 C581.524439,146.906979 580.406019,148.195783 580.406019,149.689018 C580.406019,151.182253 581.4268,152.03553 585.288011,153.182122 C589.726185,154.524255 592.442348,155.937496 592.442348,159.928344 C592.442348,163.919192 589.939218,166.665678 584.222849,166.665678 C581.157394,166.708053 578.231184,165.38623 576.234136,163.057027 L578.63075,160.719403 C580.125557,162.363546 582.225103,163.326465 584.444758,163.385894 C587.569233,163.385894 589.069335,162.292633 589.069335,160.123887 C589.069335,158.399556 587.764512,157.53739 584.02757,156.417464 C579.296476,155.004224 577.033007,153.822079 577.033007,149.831231 C577.033007,145.840383 580.290627,143.609419 584.409253,143.609419 Z M620.499118,161.529752 C621.30339,162.016176 621.772177,162.908883 621.716545,163.848086 C621.702129,165.236183 620.581892,166.357929 619.195662,166.372364 C617.807938,166.358021 616.685104,165.237619 616.665902,163.848086 C616.610271,162.908883 617.079058,162.016176 617.883329,161.529752 C618.687601,161.043327 619.694847,161.043327 620.499118,161.529752 Z M661.686741,143.253886 C665.681098,143.253886 669.480175,145.209313 669.480175,149.52014 C669.454344,151.453587 668.266125,153.180404 666.471093,153.893186 C668.900535,154.630922 670.527091,156.91701 670.429944,159.457264 C670.429944,163.856974 666.968169,166.310146 661.589101,166.310146 C656.192282,166.310146 652.881404,163.856974 652.881404,159.439487 C652.783138,156.9017 654.405464,154.616433 656.831379,153.875409 C655.050771,153.190712 653.863647,151.492035 653.831173,149.582359 C653.831173,145.271531 657.319578,143.253886 661.686741,143.253886 Z M704.896805,143.244998 C710.701937,143.244998 713.675514,147.973576 713.675514,154.755351 C713.675514,161.537127 710.577668,166.310146 704.799165,166.310146 C699.020662,166.310146 696.020457,161.581568 696.020457,154.799793 C696.020457,148.018017 699.091673,143.244998 704.896805,143.244998 Z M613.576933,143.627195 L613.576933,146.915868 L607.07057,146.915868 L607.07057,165.990167 L603.724187,165.990167 L603.724187,146.915868 L597.200071,146.915868 L597.200071,143.627195 L613.576933,143.627195 Z M646.366164,143.591642 L646.366164,165.963502 L643.002028,165.963502 L643.002028,148.835741 L639.043177,148.835741 L639.043177,146.498117 C641.351027,146.329239 643.232813,145.609287 643.650001,143.591642 L646.366164,143.591642 Z M683.708962,143.23611 C688.333539,143.23611 691.298239,145.218202 691.298239,149.342374 C691.298239,152.799925 689.611733,154.266495 685.679511,156.59523 C681.409987,159.119508 680.193928,160.559414 679.679099,162.710383 L691.529024,162.710383 L691.529024,165.963502 L675.489463,165.963502 L675.489463,165.954614 C675.711372,159.403934 679.679099,156.506347 684.081768,153.875409 C687.117479,152.097749 687.889722,151.102259 687.889722,149.529029 C687.889722,147.751368 686.673662,146.595889 683.611322,146.595889 C681.600297,146.648569 679.680358,147.446718 678.223378,148.835741 L676.084178,146.27591 C678.163384,144.354078 680.879584,143.271201 683.708962,143.23611 Z M570.677542,143.591642 L570.677542,146.844761 L559.635364,146.844761 L559.635364,152.373286 L566.052964,152.373286 L566.052964,155.635293 L559.635364,155.635293 L559.635364,162.701495 L571.174617,162.701495 L571.174617,165.954614 L556.280105,165.954614 L556.280105,143.591642 L570.677542,143.591642 Z M661.64236,155.7064 L661.589101,155.7064 C658.038562,155.7064 656.263292,157.101863 656.263292,159.368381 C656.263292,161.634898 658.207213,163.243681 661.651236,163.243681 C665.095259,163.243681 667.048056,161.714893 667.048056,159.537259 C667.048056,157.17297 665.36155,155.7064 661.64236,155.7064 Z M704.799165,146.498117 C700.902448,146.498117 699.402345,150.053439 699.402345,154.746463 C699.402345,159.439487 700.973459,163.065915 704.8613,163.065915 C708.74914,163.065915 710.25812,159.510594 710.25812,154.808681 C710.25812,150.106769 708.687006,146.498117 704.799165,146.498117 Z M661.64236,146.302575 L661.589101,146.302575 C658.331482,146.302575 657.150927,147.769145 657.150927,149.457922 C657.150927,151.1467 658.84631,152.533275 661.589101,152.533275 C664.331893,152.533275 666.027276,151.226695 666.027276,149.591247 C666.027276,147.955799 664.87335,146.302575 661.64236,146.302575 Z M670.776122,49.2956292 C673.62848,51.430085 675.954447,54.1873378 677.578914,57.3552886 L677.80619,57.810624 L677.996469,58.2549965 C678.856224,60.3390945 679.320426,62.565509 679.36525,64.8199761 L679.368427,65.3034639 L679.368427,84.1111143 C679.36094,85.0678907 679.495557,86.0204651 679.767863,86.9375949 C680.44471,89.2559585 682.003333,91.2156386 684.108397,92.3950133 C685.970265,93.4442667 688.237668,90.8134134 689.171423,88.4312021 L689.238927,88.2530638 L689.238927,52.2643226 L704.852555,52.2643226 L704.852555,88.5019363 C704.856071,89.9108754 704.784595,91.3188034 704.638419,92.7197203 L704.541751,93.5593811 L704.442802,94.2980495 C704.193429,96.0186666 703.814769,97.7179951 703.310048,99.3815597 L703.08603,100.092284 L703.083291,100.123393 L703.08603,100.154502 L702.92003,100.637193 C698.856791,112.155139 689.057179,119.038 678.407564,121.244865 L677.957088,121.33533 L675.072275,118.037769 C682.191106,114.73132 688.013991,109.833865 689.123534,100.883343 C689.14967,100.704306 689.156205,100.523129 689.143136,100.343022 L689.123534,100.163391 L689.084344,99.9791404 C688.688118,98.4033724 686.846586,97.3813516 685.572995,97.3813516 C684.005512,97.3813516 682.324801,98.5718517 680.507702,99.9633454 L680.247186,100.163391 L679.796295,100.526283 C679.340689,100.88001 678.871352,101.209988 678.392029,101.549966 C675.027893,103.976473 674.770479,103.932031 672.595773,102.394355 C671.802493,101.839001 671.051448,101.225923 670.348685,100.560208 L669.932869,100.154502 L669.569595,99.7687753 C668.018268,98.0777448 666.765478,96.1347403 665.864896,94.0229986 L665.663345,93.5327161 L665.669341,93.5060512 L665.663345,93.4793863 L665.452374,92.9051771 C664.841984,91.1751513 664.434629,89.3798859 664.238527,87.5556027 L664.180995,86.9464832 L664.180995,86.8576001 L664.137679,86.4471738 C664.103593,86.0371742 664.095072,85.6290944 664.092942,85.2286941 L664.092232,84.8310669 L664.092232,68.0677263 C664.092232,62.9224567 663.263279,60.504556 660.251178,57.9944926 L660.026864,57.810624 L659.600799,57.4906451 L670.776122,49.2956292 Z M413.841343,42.5316301 L413.841343,61.1081846 L415.616612,61.4814934 C426.052625,63.504935 437.833503,60.0121846 441.57118,57.9027671 L441.730829,57.810624 L441.713076,57.8195123 C441.813675,57.7602569 441.906384,57.7049519 441.993832,57.6456966 L442.121388,57.5528632 L441.952738,57.8195123 L436.999735,65.9078686 C436.500806,66.7705089 435.949434,67.6016487 435.348735,68.3965936 C432.491674,72.161409 427.151187,76.1775009 414.312228,74.7386659 L413.814714,74.6806242 L413.814714,86.9820364 C413.791261,89.1736937 413.906886,91.3646293 414.160891,93.5416044 C414.55219,96.2588329 415.391853,98.4781158 417.10956,100.011703 L417.338624,100.207832 L417.6602,100.453731 C417.987434,100.691731 418.331344,100.905849 418.689266,101.094427 L419.051759,101.274429 L409.332158,113.904708 C404.35293,111.429113 400.696186,107.306676 398.486198,100.674617 L398.334362,100.207832 L398.094601,99.392939 C397.630211,97.7589912 397.256719,96.1004991 396.975846,94.425112 L396.843136,93.586046 L396.742853,92.903951 C396.516476,91.2970335 396.343199,89.5825785 396.218845,87.760586 L396.168533,86.9731481 L396.122425,86.0848115 C396.066537,84.8891701 396.033004,83.648758 396.021827,82.3635751 L396.017635,81.3912934 L396.017635,73.1340594 C389.925008,73.0044383 385.762097,73.7569608 383.520744,75.0730749 L383.333333,75.1872575 L387.194545,68.3343755 L389.333745,64.5390698 C390.696515,61.7311126 393.330992,59.7653485 396.393471,59.2525062 L396.701114,59.2060877 L396.701114,49.1267514 C396.706338,48.5429863 396.835252,47.9679573 397.078226,47.4393567 L397.189313,47.2157661 L397.331844,46.9934358 C398.212315,45.6865492 399.587974,44.7958331 401.138991,44.527843 L401.414455,44.4870569 L413.841343,42.5316301 Z M508.081533,48.9845385 L516.336537,56.7884691 C516.801027,57.209193 517.338421,57.540032 517.921388,57.76512 L518.173941,57.8550655 L518.441832,57.9284623 C519.160935,58.0997215 519.914578,58.0752559 520.623813,57.8550655 C521.124722,57.691354 521.59839,57.4551333 522.029936,57.1543726 L522.28369,56.9662352 L528.559269,52.53986 C530.290157,51.27461 532.383882,49.401 535.424571,51.1040395 L535.660347,51.2421676 L540.719866,54.7441593 C541.745399,55.4367683 542.501415,56.4579617 542.866702,57.635873 L542.938953,57.8906187 L542.940592,57.9395044 L542.938953,57.9883901 L543.011558,58.4636194 C543.116511,59.2254093 543.167611,59.9936314 543.164494,60.7625503 L543.151985,61.3392805 L543.151985,85.6043493 C543.151985,86.0665411 543.205244,86.590951 543.205244,87.0264779 C543.269898,89.3604957 544.150843,91.5939357 545.688425,93.33997 L545.91253,93.586046 L545.885901,93.5682694 C546.43617,94.1148174 547.047904,94.5949244 547.708526,94.999108 L548.042853,95.1948289 L543.347265,100.190056 L537.373483,106.562969 C534.70855,105.135088 532.432481,103.080915 530.73907,100.579773 L530.47656,100.181167 L530.211395,99.7441015 C529.175253,97.9824909 528.434154,96.0628291 528.017546,94.0613982 L527.920172,93.5593811 L527.818804,92.9510737 C527.663176,91.9353163 527.574176,90.9104382 527.552376,89.8830278 L527.547365,89.2663304 L527.547365,67.1522311 C527.547365,64.3879687 526.278047,62.5036483 522.834024,63.4991383 C521.246315,63.9582385 519.439333,65.2956174 517.063508,67.3557022 L516.735973,67.6410878 L516.735973,103.460951 L500.847309,103.460951 L500.847309,68.378817 C500.985788,65.8299382 500.156694,63.3272333 498.533729,61.3693221 L498.31755,61.1170729 L495.343973,57.810624 L495.068806,57.5084217 L508.081533,48.9845385 Z M846.678717,49.0734216 L854.907092,56.8329106 C855.368755,57.2534531 855.903552,57.5843113 856.484095,57.8095092 L856.73562,57.899507 L856.984126,57.9709342 C857.651114,58.1402432 858.349885,58.1402432 859.016873,57.9709342 L859.265379,57.899507 L859.509231,57.8158369 C859.895332,57.6716946 860.261324,57.4785871 860.598257,57.2412961 L860.845369,57.0551182 L867.058813,52.5487483 C868.789701,51.2834983 870.891864,49.4098883 873.924748,51.1129278 L874.159892,51.251056 L879.228287,54.7530476 C880.256388,55.4447469 881.015297,56.4658397 881.383398,57.6445714 L881.45625,57.899507 L881.45625,57.9795018 L881.530437,58.4584084 C881.637503,59.2261511 881.688697,60.0006303 881.683634,60.7757206 L881.669283,61.3570571 L881.669283,85.6221259 C881.669283,85.9361793 881.692953,86.242332 881.708733,86.540584 L881.722541,86.9820364 L881.737099,87.3168203 C881.870813,89.538038 882.738328,91.6520334 884.202568,93.3255205 L884.438703,93.586046 L884.72963,93.8509122 C885.222701,94.2826965 885.756238,94.6658283 886.322815,94.9949741 L886.666667,95.1859406 L881.979955,100.181167 L875.997296,106.554081 C873.317958,105.134418 871.026977,103.083049 869.320542,100.580097 L869.055992,100.181167 L868.791845,99.7438009 C867.75967,97.9811022 867.021246,96.0617052 866.605639,94.0611633 L866.50848,93.5593811 L866.406608,92.9510806 C866.249929,91.9353491 866.158817,90.9105568 866.133841,89.8830844 L866.126797,89.2663304 L866.126797,67.1522311 C866.126797,64.3879687 864.857479,62.5036483 861.413456,63.4991383 C859.825747,63.9582385 858.018764,65.2956174 855.642939,67.3557022 L855.315404,67.6410878 L855.315404,103.549834 L839.435617,103.549834 L839.435617,68.4677 C839.571317,65.919216 838.742449,63.4175119 837.121732,61.4583775 L836.905858,61.205956 L833.932281,57.899507 L833.657114,57.5973047 L846.678717,49.0734216 Z M477.31611,51.3843805 L477.31611,88.5552661 C477.224082,90.0536446 477.310566,91.5569943 477.57327,93.0336241 L477.68004,93.586046 L477.724422,93.5771577 C478.164723,95.3120761 479.401481,96.7286865 481.047941,97.4009874 L481.274961,97.4880112 L479.189019,100.287827 L474.626576,106.40298 C470.847942,106.170268 467.570099,104.04034 465.19773,100.612929 L464.977985,100.287827 L464.943233,100.245969 L464.915851,100.198944 L464.624754,99.7237077 C463.579478,97.9688138 462.777737,96.0795242 462.241651,94.1079672 L462.102049,93.5682694 L461.937087,92.844236 C461.573118,91.1506496 461.355859,89.4287516 461.287732,87.6977371 L461.267672,86.9553715 L461.267672,78.9914515 L461.312054,68.4143702 L461.365312,57.8195123 L461.365312,57.1351129 C461.365312,55.3234675 461.674702,54.0477038 464.476672,53.4378518 L464.738324,53.3842488 L477.31611,51.3843805 Z M629.827845,51.5093009 L630.157952,51.6599179 L642.300797,57.4728685 L642.300797,91.2928636 C642.29143,91.9587665 642.371512,92.6223988 642.538498,93.265998 L642.629221,93.586046 L642.602592,93.5416044 C643.091737,94.8679151 643.999663,95.9951075 645.184627,96.754466 L645.425271,96.9013832 L641.741587,100.163391 L634.747024,106.331873 C632.134918,104.686759 629.828244,102.599536 627.929989,100.163391 C627.343164,99.3847954 626.80369,98.5715255 626.314493,97.7279954 C624.849896,95.1770523 623.216648,97.0347078 621.441378,98.9368047 C621.128487,99.2701161 620.830574,99.5834288 620.536406,99.8842423 L620.243071,100.181167 L619.603387,100.791047 C618.312875,101.998699 616.955851,103.133401 615.538606,104.189792 C613.230756,105.967453 611.144814,106.109666 608.792581,104.189792 C607.56363,103.146351 606.472545,101.951326 605.545096,100.633748 L605.242042,100.190056 L604.905464,99.6725928 C603.813703,97.9534728 602.910065,96.1216411 602.210158,94.2088291 L601.984422,93.5682694 L601.745711,92.8491261 C601.205815,91.1658644 600.785758,89.4463946 600.488698,87.7036495 L600.368927,86.9553715 L600.259171,86.1722155 C600.054535,84.6041037 599.939148,83.0256161 599.912996,81.4443775 L599.907357,80.6535642 L599.907357,73.4095968 C599.861931,71.8254688 600.139957,70.250149 600.722822,68.7797331 L600.874879,68.4143702 L616.213209,68.4143702 L616.213209,82.5467729 C616.221504,83.9100961 616.436231,85.2633877 616.849302,86.5606443 L616.994327,86.9909247 L617.106713,87.2990745 C618.451274,90.8680219 620.945042,93.5060512 622.524292,93.5060512 C624.105918,93.5060512 625.805357,90.8685087 626.11494,87.2836329 L626.136966,86.9909247 L626.136966,65.2323575 L621.38812,62.2814407 C620.207565,61.6059296 618.379038,60.8415355 617.269494,61.3926104 C616.417365,61.8192489 616.217847,62.7419102 616.197322,63.7604414 L616.195456,63.9524418 L616.195456,68.3965936 L600.963642,68.3965936 C602.049187,66.0000436 604.056605,63.957904 607.37428,61.4288698 L607.762925,61.1348495 L612.334244,57.8017357 L621.476883,51.1177314 C623.927588,49.6194967 626.444934,49.9897501 629.827845,51.5093009 Z M579.873439,31.9278839 L579.873439,88.5552661 C579.780128,90.0540229 579.868863,91.5578818 580.137203,93.033906 L580.246245,93.586046 L580.352761,93.4793863 C580.788946,95.2165183 582.026983,96.6348323 583.675934,97.3037144 L583.903301,97.3902399 L581.941628,100.012289 L577.254916,106.314097 C573.464193,106.072544 570.300612,103.854928 568.096926,100.408921 L567.899245,100.092284 L567.634244,99.6204143 C566.691937,97.8936041 565.982901,96.049149 565.525701,94.1355024 L565.396114,93.5593811 L565.247037,92.8334346 C564.918407,91.1361102 564.724396,89.4154072 564.666819,87.6874389 L564.650501,86.9464832 L564.650501,37.8386058 C564.650501,36.028624 565.359957,34.3857978 568.17097,33.8745644 L568.440702,33.8299809 L579.873439,31.9278839 Z M806.371219,50.3977788 C810.984702,52.4119319 814.285854,54.6657631 816.561196,57.5019648 L816.809805,57.8195123 L817.063927,58.1656652 C818.976199,60.8404337 820.063551,64.000289 820.533338,67.9013163 L820.59113,68.4143702 L820.59113,68.4321468 C820.710496,69.651459 820.779875,70.8750308 820.799126,72.0997784 L820.804162,73.0185115 L820.804162,92.2172472 L818.682715,93.586046 L808.386151,100.207832 L802.394615,104.083133 C799.677343,105.908568 798.201278,105.957271 795.246854,104.70601 L794.956235,104.580878 L792.790406,103.425398 C791.573079,102.572121 790.251409,101.620891 789.048987,100.683654 L788.458748,100.21672 L788.426215,100.191768 L788.396614,100.163391 L788.350831,100.119676 L788.298974,100.083396 L787.867983,99.7447126 C785.876325,98.1414361 784.161147,96.2214263 782.791013,94.0614348 L782.502719,93.5949343 L802.030685,93.5949343 L802.243717,93.763812 L803.131352,94.1904506 C803.959789,94.613356 804.97264,94.3635866 805.510214,93.6038226 C805.995951,92.9132452 806.259574,92.0929379 806.269401,91.2522561 L806.264703,90.9995496 L806.264703,72.3341121 C806.270459,71.1562167 806.097959,69.9851072 805.753816,68.8605038 L805.61673,68.4410351 L805.505801,68.1377627 C804.16017,64.6180959 801.014556,61.7521107 796.174147,60.1492075 L795.755107,60.0149233 L795.755107,82.8756401 C795.712449,84.1519011 795.910913,85.423578 796.33884,86.6240857 L796.474091,86.9820364 L796.559961,87.1801668 C797.332687,88.9084613 798.830118,90.869226 801.737331,93.3125652 L802.066191,93.586046 L782.538224,93.586046 C781.462996,91.6862638 780.786977,89.5882464 780.549664,87.4208325 L780.50554,86.9553715 L780.464487,86.5602586 C780.444515,86.2955538 780.437858,86.0280714 780.435639,85.7567004 L780.43453,85.3465885 L780.43453,59.5260666 L784.269112,57.8195123 L784.557371,57.6894611 C789.809118,55.3207207 798.403971,51.4784349 800.042383,50.7977525 C802.438997,49.7933742 804.649208,49.6511613 806.371219,50.3977788 Z M747.42339,50.5044384 C749.737061,51.35247 760.939008,56.0185786 761.305663,56.1713379 L761.314875,56.1751761 L759.672751,57.7839591 L753.157511,64.2102026 C751.819668,65.4986511 750.710877,65.6157207 749.179321,64.8366445 L748.985627,64.7346125 L744.210152,62.0681214 C741.174441,60.3971203 740.322311,60.5837747 739.292655,61.4726051 C738.654667,62.0262723 738.081896,63.1595156 738.121209,65.3182411 L738.129853,65.6056663 L738.129853,69.2320941 C738.129853,72.6807559 739.700967,73.7829056 742.106457,73.6229161 C743.495395,73.5441911 757.143363,70.8829537 757.576282,70.7984899 L757.586809,70.7964356 L757.524674,70.7964356 L757.687866,70.7674179 C759.913714,70.3899023 761.943823,70.8088069 762.039233,73.8655944 L762.042736,74.0939962 L762.042736,88.4308299 C762.11837,90.2219323 761.491033,91.9673426 760.30214,93.2972066 L760.098816,93.5149395 L760.045557,93.5682694 L759.717931,93.8883359 C759.496296,94.0983092 759.268283,94.301426 759.034211,94.4973996 L758.6786,94.785967 L751.000558,100.118949 L744.494195,104.651984 C742.566182,105.659321 740.292507,105.763401 738.280751,104.93641 C736.65173,104.337719 730.074371,101.782437 726.302278,100.313344 L726.031391,100.207832 L723.590395,99.2745603 L729.883726,93.586046 L732.777415,90.9906613 C734.54289,89.4630991 736.895872,89.8495765 738.254458,90.4780589 L738.396144,90.5462461 L742.603533,92.8038753 C743.061511,93.0833446 743.553947,93.3007563 744.06793,93.4508096 L744.378803,93.5327161 L744.619867,93.5762214 C745.023456,93.6342284 745.434825,93.6197266 745.834524,93.5327161 C747.364543,93.1561154 748.162002,91.5184729 748.218974,89.5483989 L748.222261,89.3196602 L748.222261,84.6444126 C748.222261,81.9719959 747.088796,80.9088964 743.79796,81.5791402 L743.553302,81.6312776 L728.747553,84.8488435 C726.638533,85.3355275 724.410705,85.1848873 724.312732,81.6965561 L724.309379,81.4535116 L724.309895,66.4960799 C724.320964,64.2999761 724.531457,62.4039015 726.945381,60.4343453 L727.194192,60.2371309 L730.842371,57.7750708 L741.209946,50.7977525 C743.134319,49.7790163 745.411842,49.6715028 747.42339,50.5044384 Z M486.40549,31.607905 L476.00241,42.6294015 L458.267466,42.6294015 L468.688299,31.607905 L486.40549,31.607905 Z M456.882756,16.6666667 L452.506716,24.2128364 C446.399788,36.5586901 431.647297,38.2741327 415.226053,36.2120463 C400.492483,34.3700623 387.928631,34.8045905 383.55707,37.2252012 L383.386591,37.3230842 L383.359962,37.3141959 L389.671046,25.5105287 C392.440467,20.453084 398.236722,19.5109238 400.766481,19.3775993 C410.850013,18.870966 417.782441,21.4574623 428.070129,21.7596646 C440.017694,22.1063085 449.169209,20.0619986 456.882756,16.6666667 Z" id="path-1"></path>
        <filter x="-17.9%" y="-60.0%" width="135.8%" height="220.0%" filterUnits="objectBoundingBox" id="filter-2">
            <feOffset dx="0" dy="0" in="SourceAlpha" result="shadowOffsetOuter1"></feOffset>
            <feGaussianBlur stdDeviation="30" in="shadowOffsetOuter1" result="shadowBlurOuter1"></feGaussianBlur>
            <feColorMatrix values="0 0 0 0 0   0 0 0 0 0   0 0 0 0 0  0 0 0 0.3 0" type="matrix" in="shadowBlurOuter1"></feColorMatrix>
        </filter>
    </defs>
    <g id="Benefit-logos-/-FInlayson-white" stroke="none" stroke-width="1" fill="none" fill-rule="evenodd">
        <g id="Misc-/Benefit-logos-/-Finlayson-white" transform="translate(-164.000000, 60.000000)" fill-rule="nonzero">
            <g id="Combined-Shape-Copy">
                <use fill="black" fill-opacity="1" filter="url(#filter-2)" xlink:href="#path-1"></use>
                <use fill="#FFFFFF" xlink:href="#path-1"></use>
            </g>
        </g>
    </g>
</svg>